<svg width="26" height="25" viewBox="0 0 26 25" fill="none" xmlns="http://www.w3.org/2000/svg">
<g clip-path="url(#clip0_1865_21011)">
<path d="M0.00610478 2.19972C0.00061789 5.62744 0.0033603 9.05515 0.00336 12.4843C0.00335988 13.86 0.00335975 15.2357 0.00335963 16.6129C0.00335975 15.2372 0.00335988 13.8615 0.00336 12.4843C0.0033603 9.05515 0.00061789 5.62744 0.00610478 2.19972Z" fill="#4ECCA3"/>
<path d="M8.98118 14.5015C12.058 14.5203 15.1349 14.5058 18.2105 14.5102C18.441 14.5102 18.6716 14.542 19.0305 14.5695C18.8012 14.8621 18.6853 15.0257 18.5557 15.1734C17.373 16.5303 16.1804 17.8756 15.0078 19.2441C14.2164 20.1665 14.179 21.4669 14.8856 22.2924C15.5798 23.1033 16.725 23.0613 17.5064 22.1592C19.8355 19.4671 22.1584 16.7707 24.4751 14.0656C25.2726 13.1344 25.2901 11.8905 24.5037 10.9709C22.1759 8.24701 19.8392 5.53323 17.4927 2.83102C16.715 1.93608 15.5411 1.91146 14.8644 2.72096C14.1628 3.56233 14.2227 4.8222 15.0289 5.76637C15.819 6.69173 16.6303 7.59246 17.4266 8.51057C17.9363 9.09851 18.4385 9.69659 19.0666 10.4351C18.6304 10.4786 18.375 10.5249 18.1195 10.5264C15.0638 10.5307 12.0082 10.5379 8.95252 10.5235C8.23596 10.5206 7.69885 10.8102 7.38481 11.5705C6.78913 13.0099 7.58171 14.4928 8.98118 14.5015Z" fill="#4ECCA3"/>
<path d="M0.00859992 22.8398C0.0198155 24.1171 0.690267 24.9135 1.72461 24.9512C2.74524 24.9888 3.39575 24.2865 3.5104 23.0151C3.53034 22.7993 3.52785 22.5806 3.52785 22.3648C3.52909 15.8222 3.52909 9.28103 3.52536 2.7384C3.52536 2.3532 3.56025 1.9318 3.43937 1.59294C3.2811 1.14981 3.05056 0.677719 2.73403 0.388094C2.16327 -0.13468 1.49656 -0.0999246 0.858506 0.315687C0.22544 0.728403 0.00486406 1.40613 0.0036178 2.19825C-0.00136727 5.62596 0.00112428 9.05368 0.00112398 12.4828C0.00112386 13.8586 0.00112374 15.2343 0.00112362 16.6114C0.00361582 18.6881 -0.00884659 20.7632 0.00859992 22.8398Z" fill="#4ECCA3"/>
</g>
<defs>
<clipPath id="clip0_1865_21011">
<rect width="25.0833" height="24.9527" fill="white" transform="translate(25.0833 24.9526) rotate(-180)"/>
</clipPath>
</defs>
</svg>
