<svg width="40" height="40" viewBox="0 0 40 40" fill="none" xmlns="http://www.w3.org/2000/svg">
<path d="M39.6564 9.59373C39.4296 8.64919 38.2307 8.33357 37.5439 9.02044L31.5635 15.0017L25.0713 15.0017V8.50949L31.0518 2.52824C31.7386 1.8416 31.4228 0.642301 30.4786 0.415739C28.6278 -0.029027 26.6239 -0.0616832 24.5474 0.435145C19.7466 1.58358 16.0005 5.66171 15.2349 10.5367C14.8283 12.5625 15.0236 14.5859 15.633 16.414L1.71895 30.3281C-0.47793 32.525 -0.47793 36.0851 1.71895 38.2812C2.74707 39.3828 4.18457 40 5.55488 40C6.92519 40 8.43301 39.4507 9.53223 38.3523L23.4463 24.4383C25.2791 25.0426 27.2986 25.2383 29.3971 24.9073C34.2728 24.1386 38.3502 20.3917 39.4986 15.5948C40.133 13.4453 40.1018 11.4453 39.6564 9.59373ZM6.2502 35.625C5.21504 35.625 4.37519 34.7851 4.37519 33.75C4.37519 32.714 5.21504 31.875 6.2502 31.875C7.28535 31.875 8.12519 32.714 8.12519 33.75C8.12519 34.789 7.28535 35.625 6.2502 35.625Z" fill="#F37F15"/>
</svg>
