<svg width="41" height="40" viewBox="0 0 41 40" fill="none" xmlns="http://www.w3.org/2000/svg">
<path d="M33.8998 9.61657L33.8946 9.61143L27.1642 16.3419L26.8107 16.6954L26.4571 16.3419L23.8048 13.6895L23.4512 13.336L23.8048 12.9824L30.538 6.24921C26.8946 4.09903 22.1237 4.59335 18.9884 7.72467C18.9884 7.72474 18.9883 7.72481 18.9882 7.72488M33.8998 9.61657L16.0372 17.0352C15.1505 13.6992 16.0177 9.98831 18.6349 7.37112L18.9882 7.72488M33.8998 9.61657C36.0473 13.2595 35.5521 18.0282 32.4217 21.1623M33.8998 9.61657L34.3263 9.3555C36.5919 13.1914 36.0724 18.2149 32.7755 21.5156M18.9882 7.72488C16.5023 10.211 15.6777 13.7362 16.5204 16.9067L16.5944 17.1851L16.3908 17.3887L5.09004 28.6895M18.9882 7.72488L5.09004 28.6895M5.09004 28.6895L4.95719 28.5566C5.01006 28.6095 5.04414 28.7353 4.94557 28.8339L5.09004 28.6895ZM5.09004 28.6895L11.4532 35.0527M5.09004 28.6895L23.1036 24.1094C26.4435 25 30.1544 24.1367 32.7755 21.5156M11.4532 35.0527L11.3087 35.1972L11.3086 35.1972L11.3028 35.2033C11.3047 35.2012 11.3067 35.1992 11.3087 35.1973C11.3586 35.1492 11.4195 35.1331 11.4659 35.1345C11.5129 35.136 11.5553 35.1547 11.5861 35.1855L11.4532 35.0527ZM11.4532 35.0527L22.7501 23.7558L22.9539 23.552L23.2325 23.6263C26.407 24.4728 29.932 23.6519 32.4217 21.1623M32.4217 21.1623L32.7755 21.5156M32.4217 21.1623C32.4218 21.1622 32.4219 21.1622 32.422 21.1621L32.7755 21.5156M17.7479 18.6018L18.7095 17.6402C17.4169 14.803 17.9376 11.3418 20.2735 9.00585C21.0563 8.22239 21.999 7.61713 23.0372 7.23142C24.0754 6.84568 25.1847 6.68861 26.2892 6.77094L27.3773 6.85204L26.6055 7.62325L21.4144 12.8104C21.4144 12.8105 21.4143 12.8105 21.4143 12.8105C21.2735 12.9515 21.1945 13.1426 21.1945 13.3418C21.1945 13.5411 21.2736 13.7322 21.4144 13.8732L26.2773 18.7361C26.4183 18.877 26.6094 18.9561 26.8087 18.9561C27.0079 18.9561 27.1989 18.877 27.3399 18.7363L17.7479 18.6018ZM17.7479 18.6018L17.7479 18.594L16.8946 19.4473L7.90633 28.4355L7.55278 28.7891L7.90633 29.1426L11.0001 32.2364L11.3537 32.59L11.7073 32.2363L22.0567 21.8832M17.7479 18.6018L22.0567 21.8832M22.0567 21.8832L22.0605 21.887L22.4142 21.5333L22.5065 21.441C25.3435 22.7336 28.8044 22.213 31.1403 19.8775L22.0567 21.8832ZM32.5274 13.5488L27.3401 18.7361L31.1408 19.877C32.7789 18.2428 33.5341 16.0286 33.3797 13.8667L33.3017 12.7745L32.5274 13.5488Z" fill="#F37F15" stroke="#F37F15"/>
</svg>
