<svg width="41" height="40" viewBox="0 0 41 40" fill="none" xmlns="http://www.w3.org/2000/svg">
<path d="M0.0183759 19.9808C0.0183759 15.1325 0.0163874 10.2842 0.0183759 5.43585C0.0203645 2.10318 2.41261 0.00740401 6.23861 0.00391977C15.4178 -0.00130659 24.597 -0.00130659 33.7763 0.00391977C37.6102 0.00566189 39.9806 2.08227 39.9826 5.44456C39.9885 15.1412 39.9527 24.8378 40.0025 34.5327C40.0184 37.9194 37.2403 40.0326 33.822 39.9995C24.611 39.9072 15.396 39.9054 6.18691 39.9995C2.65323 40.0379 -0.041281 37.7644 0.000478839 34.5258C0.0661015 29.6792 0.0183759 24.8291 0.0183759 19.9808ZM35.7907 20.0244C35.7907 15.2057 35.7907 10.387 35.7907 5.56825C35.7907 3.95505 35.4805 3.67631 33.6828 3.67457C24.5374 3.67283 15.392 3.67283 6.24656 3.67457C4.5523 3.67457 4.15061 4.02648 4.15061 5.53341C4.14863 15.2004 4.14863 24.8657 4.15061 34.5327C4.15061 35.9683 4.57418 36.3358 6.20679 36.3358C15.386 36.3376 24.5632 36.3376 33.7425 36.3358C35.4486 36.3358 35.7867 36.0414 35.7887 34.5659C35.7927 29.721 35.7907 24.8727 35.7907 20.0244Z" fill="#F37F15"/>
<path d="M24.2234 21.8118C22.1374 21.8118 20.0534 21.8292 17.9673 21.8049C16.7941 21.7909 15.9967 21.1881 15.8634 20.3049C15.7223 19.3676 16.2353 18.5837 17.2017 18.3206C17.4782 18.2457 17.7864 18.2352 18.0807 18.2352C22.2189 18.23 26.3551 18.2283 30.4933 18.2335C31.9688 18.2352 32.7484 18.8624 32.7503 20.0192C32.7523 21.1446 31.9509 21.7961 30.4794 21.8083C28.3934 21.8258 26.3094 21.8136 24.2234 21.8118Z" fill="#F37F15"/>
<path d="M24.2608 11.7267C22.1768 11.7267 20.0908 11.7336 18.0068 11.7249C16.6665 11.7197 15.881 11.0978 15.8492 10.0455C15.8154 8.94799 16.6029 8.19713 17.9471 8.19016C22.1828 8.16577 26.4184 8.16229 30.6541 8.19191C32.054 8.20062 32.7818 8.89921 32.75 10.0281C32.7182 11.1047 31.9645 11.718 30.6163 11.7249C28.4965 11.7336 26.3786 11.7249 24.2608 11.7267Z" fill="#F37F15"/>
<path d="M24.2512 31.7942C22.1672 31.7942 20.0831 31.8029 17.9971 31.7907C16.6529 31.7837 15.8753 31.16 15.8475 30.1008C15.8177 29.0015 16.6151 28.2629 17.9574 28.2577C22.193 28.2385 26.4267 28.235 30.6623 28.2594C32.0464 28.2681 32.7841 28.9684 32.7483 30.1008C32.7145 31.1827 31.9768 31.782 30.6027 31.7907C28.4868 31.8046 26.369 31.7942 24.2512 31.7942Z" fill="#F37F15"/>
<path d="M9.98513 32.4562C7.26477 32.4562 7.15142 32.3569 7.15341 29.9824C7.15341 29.6061 7.12557 29.228 7.17131 28.857C7.2767 27.9946 7.72612 27.6584 8.73034 27.6514C9.58742 27.6462 10.4445 27.6549 11.3035 27.6497C12.1626 27.6444 12.6955 27.9476 12.7154 28.7559C12.7353 29.5346 12.789 30.3151 12.7552 31.0938C12.7075 32.1426 12.3118 32.4388 11.0749 32.4579C10.711 32.4597 10.349 32.4562 9.98513 32.4562Z" fill="#F37F15"/>
<path d="M9.9233 7.58042C12.7729 7.58042 12.7729 7.58042 12.7729 10.0769C12.7729 12.2911 12.6437 12.4026 10.0764 12.4026C7.23675 12.4026 7.15124 12.3277 7.15323 9.8173C7.15323 9.61521 7.15124 9.41139 7.15323 9.2093C7.1751 7.93058 7.57878 7.57867 9.03043 7.57867C9.32872 7.58042 9.62501 7.58042 9.9233 7.58042Z" fill="#F37F15"/>
<path d="M9.91942 22.378C7.16127 22.378 7.15332 22.371 7.15332 19.9582C7.15332 19.7839 7.15332 19.6097 7.15332 19.4355C7.16525 17.9216 7.53314 17.5958 9.24132 17.5941C9.96913 17.5941 10.6989 17.5854 11.4267 17.6028C12.2043 17.622 12.6895 17.9774 12.7193 18.669C12.7571 19.5366 12.7332 20.4059 12.7173 21.2752C12.7034 22.0766 12.1963 22.4111 11.3094 22.3797C10.8461 22.364 10.3828 22.378 9.91942 22.378Z" fill="#F37F15"/>
</svg>
