<svg width="40" height="40" viewBox="0 0 40 40" fill="none" xmlns="http://www.w3.org/2000/svg">
<path d="M20.1116 34.505C18.6414 36.1932 17.4175 37.6044 16.1859 39.0069C15.0147 40.3397 14.756 40.3328 13.5569 38.9773C13.3199 38.709 13.0798 38.4459 12.8443 38.1776C12.0651 37.2839 12.0573 36.8048 12.8536 35.8988C14.3052 34.2471 15.7723 32.6112 17.2316 30.9683C17.749 30.3864 18.1348 28.4333 17.7831 27.7503C17.6762 27.5413 17.2688 27.4385 16.9992 27.4367C12.8675 27.4176 8.73742 27.4263 4.60574 27.4211C2.98374 27.4193 2.26182 26.6162 2.20604 24.7851C2.1983 24.5237 2.2014 24.2624 2.2014 24.0011C2.1921 18.02 2.17506 12.0389 2.18281 6.05777C2.18436 5.32254 2.11619 4.83472 1.3385 4.61868C0.435324 4.3678 -0.0852029 3.23883 0.0108467 2.14296C0.108445 1.02967 0.796284 0.203854 1.78621 0.0400839C2.06507 -0.00695643 2.35322 0.00175475 2.63672 0.00175475C14.1782 1.25106e-05 25.7196 1.25105e-05 37.261 0.00349698C37.5957 0.00349698 37.9349 0.0122082 38.2618 0.0801554C39.3525 0.304904 39.969 1.09936 39.9985 2.27537C40.0341 3.63083 39.5244 4.51589 38.4152 4.77897C37.8219 4.92009 37.7785 5.27028 37.78 5.81385C37.7893 12.1434 37.7862 18.4747 37.7862 24.8042C37.7862 26.5656 37.0473 27.4141 35.4655 27.4176C31.3602 27.428 27.2548 27.442 23.1495 27.4036C22.3703 27.3967 22.189 27.6563 22.1224 28.5256C22.0186 29.8654 22.4926 30.7662 23.2998 31.6286C24.5717 32.9875 25.7955 34.4057 27.0271 35.8117C27.89 36.796 27.8792 37.3013 27.0054 38.2996C26.6615 38.6933 26.3207 39.0906 25.9628 39.4669C25.3044 40.1586 24.8009 40.1568 24.1627 39.4408C23.0473 38.1898 21.9365 36.9354 20.8412 35.6618C20.5964 35.3744 20.4229 35.0033 20.1116 34.505ZM19.9442 22.5898C24.1503 22.5898 28.3579 22.5689 32.5639 22.609C33.3323 22.616 33.5089 22.3303 33.5043 21.5166C33.4748 16.3213 33.4779 11.1259 33.5027 5.93233C33.5058 5.164 33.3524 4.8835 32.6073 4.88698C24.22 4.91835 15.8327 4.9166 7.4454 4.88698C6.68629 4.8835 6.49574 5.14309 6.50039 5.96891C6.53137 11.1346 6.51588 16.3004 6.51588 21.4661C6.51588 22.5881 6.51898 22.5898 7.55694 22.5898C11.6855 22.5898 15.8157 22.5898 19.9442 22.5898Z" fill="#F37F15"/>
</svg>
