<svg width="41" height="40" viewBox="0 0 41 40" fill="none" xmlns="http://www.w3.org/2000/svg">
<g clip-path="url(#clip0_932_20560)">
<path d="M34.1117 12.5V12.4023H34.2094C34.8465 12.4023 35.4575 12.1492 35.9081 11.6987C36.3586 11.2482 36.6117 10.6371 36.6117 10V7.5C36.6117 6.86286 36.3586 6.25181 35.9081 5.80129C35.4575 5.35076 34.8465 5.09766 34.2094 5.09766H6.70935C6.07221 5.09766 5.46116 5.35076 5.01064 5.80129C4.56011 6.25181 4.30701 6.86286 4.30701 7.5V10C4.30701 10.6371 4.56011 11.2482 5.01064 11.6987C5.46116 12.1492 6.07221 12.4023 6.70935 12.4023H6.80701V12.5V27.5V27.5977H6.70935H5.45935C5.15373 27.5977 4.86063 27.7191 4.64452 27.9352C4.42841 28.1513 4.30701 28.4444 4.30701 28.75C4.30701 29.0556 4.42841 29.3487 4.64452 29.5648C4.86063 29.7809 5.15373 29.9023 5.45935 29.9023H19.2094H19.307V30V32.7187V32.7878L19.2419 32.8108C18.4296 33.098 17.745 33.6631 17.309 34.4063C16.8731 35.1494 16.7139 36.0227 16.8596 36.8719C17.0053 37.7211 17.4465 38.4914 18.1052 39.0467C18.7639 39.602 19.5978 39.9066 20.4594 39.9066C21.3209 39.9066 22.1548 39.602 22.8135 39.0467C23.4722 38.4914 23.9134 37.7211 24.0591 36.8719C24.2048 36.0227 24.0456 35.1494 23.6097 34.4063C23.1737 33.6631 22.4891 33.098 21.6768 32.8108L21.6117 32.7878V32.7187V30V29.9023H21.7094H35.4594C35.765 29.9023 36.0581 29.7809 36.2742 29.5648C36.4903 29.3487 36.6117 29.0556 36.6117 28.75C36.6117 28.4444 36.4903 28.1513 36.2742 27.9352C36.0581 27.7191 35.765 27.5977 35.4594 27.5977H34.2094H34.1117V27.5V12.5ZM34.2094 7.40234H34.307V7.5V10V10.0977H34.2094H6.70935H6.61169V10V7.5V7.40234H6.70935H34.2094ZM9.20935 27.5977H9.11169V27.5V12.5V12.4023H9.20935H31.7094H31.807V12.5V27.5V27.5977H31.7094H9.20935ZM21.2081 37.3705C20.9864 37.5186 20.7259 37.5977 20.4594 37.5977C20.1019 37.5977 19.7591 37.4557 19.5064 37.2029C19.2537 36.9502 19.1117 36.6074 19.1117 36.25C19.1117 35.9835 19.1907 35.7229 19.3388 35.5013C19.4869 35.2797 19.6974 35.1069 19.9436 35.0049C20.1899 34.9029 20.4608 34.8762 20.7223 34.9282C20.9837 34.9802 21.2238 35.1086 21.4123 35.2971C21.6008 35.4855 21.7291 35.7257 21.7811 35.9871C21.8331 36.2485 21.8064 36.5195 21.7044 36.7657C21.6024 37.012 21.4297 37.2225 21.2081 37.3705Z" fill="#F37F15" stroke="#F37F15" stroke-width="0.195312"/>
</g>
<defs>
<clipPath id="clip0_932_20560">
<rect width="40" height="40" fill="white" transform="translate(0.459351)"/>
</clipPath>
</defs>
</svg>
