<svg width="11" height="11" viewBox="0 0 11 11" fill="none" xmlns="http://www.w3.org/2000/svg">
<path d="M2.0625 10.625H3.4375C3.81777 10.625 4.125 10.3178 4.125 9.9375C4.125 9.55723 3.81777 9.25 3.4375 9.25H2.0625C1.68287 9.25 1.375 8.94213 1.375 8.5625V3.0625C1.375 2.68287 1.68287 2.375 2.0625 2.375H3.4375C3.81777 2.375 4.125 2.06713 4.125 1.6875C4.125 1.30787 3.81777 1 3.4375 1H2.0625C0.923398 1 0 1.9234 0 3.0625V8.5625C0 9.70117 0.923398 10.625 2.0625 10.625ZM10.8453 5.43652L7.74941 2.51465C7.59956 2.37332 7.37988 2.33472 7.19082 2.41595C7.00169 2.49753 6.87908 2.68386 6.87908 2.88968L6.87711 4.43655L4.12711 4.43653C3.74705 4.43653 3.43918 4.7444 3.43918 5.12403V6.49903C3.43918 6.87866 3.74727 7.18653 4.12711 7.18653L6.87711 7.18655L6.87908 8.71409C6.87908 8.91987 7.00169 9.10618 7.19082 9.18782C7.37995 9.26906 7.59967 9.23045 7.74941 9.08912L10.8453 6.16725C11.0516 5.99297 11.0516 5.63203 10.8453 5.43652Z" fill="#F37F15"/>
</svg>
