<svg width="61" height="49" viewBox="0 0 61 49" fill="none" xmlns="http://www.w3.org/2000/svg">
<path d="M48.9625 41.4528L49.6901 36.9621L51.9986 35.4965L52.4792 39.3463L54.0887 38.4369L52.2247 25.9097L49.7781 27.3596L48.3217 41.8587L48.9625 41.4528ZM50.7101 30.7077L51.7482 35.0731L49.7909 36.4738L50.7101 30.7077Z" fill="#F37F15"/>
<path d="M60.3625 27.542L60.38 21.0957L58.8795 22.0045L58.1542 35.0166L56.7993 23.2236L54.2275 24.6903V25.297V27.7398L54.1471 38.4367L54.7739 38.0307V26.004L54.9288 26.8553L56.5936 36.9868L58.4577 35.8848L59.427 24.3018L59.3897 35.3629L60.3218 34.8989L60.341 29.692L60.3625 27.542Z" fill="#F37F15"/>
<path d="M13.2452 21.3536L14.6782 17.3484H18.6266L20.0113 21.4435H24.3219L19.2435 7.98828H17.6095L12.6307 21.3536H13.2452ZM16.7328 11.7047L18.4664 16.9116H14.8582L16.7328 11.7047Z" fill="#F37F15"/>
<path d="M5.53253 7.87399L5.49701 21.3813L9.38708 21.3915L9.4226 7.88413L5.53253 7.87399Z" fill="#F37F15"/>
<path d="M24.683 21.5009H25.2719V8.62044L32.5261 21.5009H35.8604V8.04338H35.2715V17.8877L29.7841 7.98828H24.683V21.5009Z" fill="#F37F15"/>
<path d="M24.3219 48.4705L30.3219 45.2227" stroke="#F37F15" stroke-width="0.5" stroke-miterlimit="10"/>
<path d="M12.5921 48.5279L15.0171 47.1413C15.9614 46.6013 16.9301 46.1142 17.6996 45.674C17.8779 45.5725 18.3474 45.2964 18.5257 45.1943" fill="#F37F15"/>
<path d="M12.5921 48.5279L15.0171 47.1413C15.9614 46.6013 16.9301 46.1142 17.6996 45.674C17.8779 45.5725 18.3474 45.2964 18.5257 45.1943" stroke="#F37F15" stroke-width="0.5" stroke-miterlimit="10"/>
<path d="M24.3509 35.1024L30.38 31.5356" stroke="#F37F15" stroke-width="0.5" stroke-miterlimit="10"/>
<path d="M12.6131 34.8993L18.4966 31.4775" stroke="#F37F15" stroke-width="0.5" stroke-miterlimit="10"/>
<path d="M12.6131 34.8989L24.3218 35.0731" stroke="#F37F15" stroke-width="0.5" stroke-miterlimit="10"/>
<path d="M30.6131 44.9329L30.3801 31.5356" stroke="#F37F15" stroke-width="0.5" stroke-miterlimit="10"/>
<path d="M24.3518 35.1016L24.3224 48.4698" stroke="#F37F15" stroke-width="0.5" stroke-miterlimit="10"/>
<path d="M30.3806 31.5356L30.3218 45.2228" stroke="#F37F15" stroke-width="0.5" stroke-miterlimit="10"/>
<path d="M12.6131 34.8989V48.5281" stroke="#F37F15" stroke-width="0.5" stroke-miterlimit="10"/>
<path d="M24.3218 48.4707L12.6131 48.5302" stroke="#F37F15" stroke-width="0.5" stroke-miterlimit="10"/>
<path d="M18.4968 45.1647V31.4775" stroke="#F37F15" stroke-width="0.5" stroke-miterlimit="10"/>
<path d="M30.3801 45.223L18.5549 45.1934" stroke="#F37F15" stroke-width="0.5" stroke-miterlimit="10"/>
<path d="M30.3802 31.5355L18.4968 31.4482" stroke="#F37F15" stroke-width="0.5" stroke-miterlimit="10"/>
<path d="M14.9747 17.0598C14.994 17.0598 15.0125 17.0521 15.0262 17.0385C15.0398 17.0248 15.0475 17.0063 15.0475 16.9869C15.0475 16.9676 15.0398 16.9491 15.0262 16.9354C15.0125 16.9217 14.994 16.9141 14.9747 16.9141C14.9554 16.9141 14.9368 16.9217 14.9232 16.9354C14.9095 16.9491 14.9019 16.9676 14.9019 16.9869C14.9019 17.0063 14.9095 17.0248 14.9232 17.0385C14.9368 17.0521 14.9554 17.0598 14.9747 17.0598Z" fill="#F37F15"/>
<path d="M24.3802 35.0734L30.3802 31.5356" stroke="#F37F15" stroke-width="0.5" stroke-miterlimit="10"/>
<path d="M12.5921 34.8405L15.0171 33.4538C15.9614 32.9138 16.9301 32.4267 17.6996 31.9865C17.8779 31.885 18.3474 31.6089 18.5257 31.5068" fill="#F37F15"/>
<path d="M12.5921 34.8405L15.0171 33.4538C15.9614 32.9138 16.9301 32.4267 17.6996 31.9865C17.8779 31.885 18.3474 31.6089 18.5257 31.5068" stroke="#F37F15" stroke-width="0.5" stroke-miterlimit="10"/>
<path d="M24.3509 21.4155L30.3218 18.1387" stroke="#F37F15" stroke-width="0.5" stroke-miterlimit="10"/>
<path d="M12.6131 21.3285L18.5548 18.1387" stroke="#F37F15" stroke-width="0.5" stroke-miterlimit="10"/>
<path d="M12.555 21.3281L24.2637 21.5022" stroke="#F37F15" stroke-width="0.5" stroke-miterlimit="10"/>
<path d="M30.6138 31.2452L30.5549 17.79" stroke="#F37F15" stroke-width="0.5" stroke-miterlimit="10"/>
<path d="M24.3802 21.7627V35.0729" stroke="#F37F15" stroke-width="0.5" stroke-miterlimit="10"/>
<path d="M30.3218 18.1387L30.3806 31.5359" stroke="#F37F15" stroke-width="0.5" stroke-miterlimit="10"/>
<path d="M12.6131 21.2119V34.8411" stroke="#F37F15" stroke-width="0.5" stroke-miterlimit="10"/>
<path d="M24.3801 35.0735L12.6131 34.8413" stroke="#F37F15" stroke-width="0.5" stroke-miterlimit="10"/>
<path d="M18.4968 31.4779V18.1387" stroke="#F37F15" stroke-width="0.5" stroke-miterlimit="10"/>
<path d="M30.555 31.537L18.4968 31.4775" stroke="#F37F15" stroke-width="0.5" stroke-miterlimit="10"/>
<path d="M30.1472 18.1981L18.322 18.1387" stroke="#F37F15" stroke-width="0.5" stroke-miterlimit="10"/>
<path d="M42.0889 45.1643L48.0889 41.9165" stroke="#F37F15" stroke-width="0.5" stroke-miterlimit="10"/>
<path d="M30.3591 45.2225L32.7841 43.8358C33.7284 43.2959 34.6972 42.8087 35.4667 42.3685C35.6449 42.267 36.1436 41.9625 36.3218 41.8599" fill="#F37F15"/>
<path d="M30.3591 45.2225L32.7841 43.8358C33.7284 43.2959 34.6972 42.8087 35.4667 42.3685C35.6449 42.267 36.1436 41.9625 36.3218 41.8599" stroke="#F37F15" stroke-width="0.5" stroke-miterlimit="10"/>
<path d="M42.118 31.7967L48.3218 28.1719" stroke="#F37F15" stroke-width="0.5" stroke-miterlimit="10"/>
<path d="M30.3801 31.5357L36.2636 28.1719" stroke="#F37F15" stroke-width="0.5" stroke-miterlimit="10"/>
<path d="M30.3801 31.5356L42.0888 31.7678" stroke="#F37F15" stroke-width="0.5" stroke-miterlimit="10"/>
<path d="M48.3806 41.6271L48.3217 28.1719" stroke="#F37F15" stroke-width="0.5" stroke-miterlimit="10"/>
<path d="M42.1188 31.7964L42.0894 45.1646" stroke="#F37F15" stroke-width="0.5" stroke-miterlimit="10"/>
<path d="M48.3218 28.1719L48.0888 41.9171" stroke="#F37F15" stroke-width="0.5" stroke-miterlimit="10"/>
<path d="M30.3801 31.5356V45.2228" stroke="#F37F15" stroke-width="0.5" stroke-miterlimit="10"/>
<path d="M42.0888 45.1646L30.3801 45.224" stroke="#F37F15" stroke-width="0.5" stroke-miterlimit="10"/>
<path d="M36.3224 41.8591L36.2636 28.1719" stroke="#F37F15" stroke-width="0.5" stroke-miterlimit="10"/>
<path d="M48.1471 41.9179L36.3219 41.8877" stroke="#F37F15" stroke-width="0.5" stroke-miterlimit="10"/>
<path d="M48.3218 28.1718L36.2636 28.1421" stroke="#F37F15" stroke-width="0.5" stroke-miterlimit="10"/>
<path d="M42.147 18.1962L48.3218 14.4844" stroke="#F37F15" stroke-width="0.5" stroke-miterlimit="10"/>
<path d="M30.3218 18.1382C31.1303 17.6742 31.9016 16.9782 32.7101 16.5143C33.6544 15.9743 34.6202 15.446 35.3898 15.0063C35.568 14.9043 36.0853 14.5864 36.2635 14.4844" fill="#F37F15"/>
<path d="M30.3218 18.1382C31.1303 17.6742 31.9016 16.9782 32.7101 16.5143C33.6544 15.9743 34.6202 15.446 35.3898 15.0063C35.568 14.9043 36.0853 14.5864 36.2635 14.4844" stroke="#F37F15" stroke-width="0.5" stroke-miterlimit="10"/>
<path d="M42.147 4.68259L48.3218 1.02881" stroke="#F37F15" stroke-width="0.5" stroke-miterlimit="10"/>
<path d="M30.2053 4.62459L36.2636 1.02881" stroke="#F37F15" stroke-width="0.5" stroke-miterlimit="10"/>
<path d="M30.2053 4.68311H42.147" stroke="#F37F15" stroke-width="0.5" stroke-miterlimit="10"/>
<path d="M48.3806 14.484L48.3217 1.02881" stroke="#F37F15" stroke-width="0.5" stroke-miterlimit="10"/>
<path d="M42.147 4.68311V18.1963" stroke="#F37F15" stroke-width="0.5" stroke-miterlimit="10"/>
<path d="M48.3217 1.02881V14.484" stroke="#F37F15" stroke-width="0.5" stroke-miterlimit="10"/>
<path d="M30.1472 4.74072L30.322 18.1379" stroke="#F37F15" stroke-width="0.5" stroke-miterlimit="10"/>
<path d="M42.147 18.1981L30.3218 18.1387" stroke="#F37F15" stroke-width="0.5" stroke-miterlimit="10"/>
<path d="M36.2636 14.716V1.02881" stroke="#F37F15" stroke-width="0.5" stroke-miterlimit="10"/>
<path d="M48.2635 14.4844H36.2636" stroke="#F37F15" stroke-width="0.5" stroke-miterlimit="10"/>
<path d="M48.3218 1.0302L36.2636 1" stroke="#F37F15" stroke-width="0.5" stroke-miterlimit="10"/>
<path d="M32.7417 13.7541C32.761 13.7541 32.7795 13.7465 32.7932 13.7328C32.8068 13.7191 32.8145 13.7006 32.8145 13.6813C32.8145 13.6619 32.8068 13.6434 32.7932 13.6297C32.7795 13.6161 32.761 13.6084 32.7417 13.6084C32.7224 13.6084 32.7039 13.6161 32.6902 13.6297C32.6766 13.6434 32.6689 13.6619 32.6689 13.6813C32.6689 13.7006 32.6766 13.7191 32.6902 13.7328C32.7039 13.7465 32.7224 13.7541 32.7417 13.7541V13.7541Z" fill="#F37F15"/>
<path d="M42.147 31.7668L48.0888 28.229" stroke="#F37F15" stroke-width="0.5" stroke-miterlimit="10"/>
<path d="M30.3591 31.5358L32.7841 30.1491C33.7284 29.6091 34.6971 29.122 35.4667 28.6818C35.6449 28.5803 36.1144 28.3042 36.2927 28.2021" fill="#F37F15"/>
<path d="M30.3591 31.5358L32.7841 30.1491C33.7284 29.6091 34.6971 29.122 35.4667 28.6818C35.6449 28.5803 36.1144 28.3042 36.2927 28.2021" stroke="#F37F15" stroke-width="0.5" stroke-miterlimit="10"/>
<path d="M42.147 18.1962L48.3218 14.4844" stroke="#F37F15" stroke-width="0.5" stroke-miterlimit="10"/>
<path d="M30.3218 18.1382L36.2635 14.4844" stroke="#F37F15" stroke-width="0.5" stroke-miterlimit="10"/>
<path d="M30.2637 18.1387L42.0889 18.1981" stroke="#F37F15" stroke-width="0.5" stroke-miterlimit="10"/>
<path d="M48.3806 27.9396L48.3217 14.4844" stroke="#F37F15" stroke-width="0.5" stroke-miterlimit="10"/>
<path d="M42.147 18.1958V31.767" stroke="#F37F15" stroke-width="0.5" stroke-miterlimit="10"/>
<path d="M48.3218 14.4844L48.0888 28.2296" stroke="#F37F15" stroke-width="0.5" stroke-miterlimit="10"/>
<path d="M30.3218 18.1387L30.3806 31.5359" stroke="#F37F15" stroke-width="0.5" stroke-miterlimit="10"/>
<path d="M42.1471 31.7678L30.3801 31.5356" stroke="#F37F15" stroke-width="0.5" stroke-miterlimit="10"/>
<path d="M36.2636 28.1716V14.4844" stroke="#F37F15" stroke-width="0.5" stroke-miterlimit="10"/>
<path d="M48.1471 28.2304L36.3219 28.2002" stroke="#F37F15" stroke-width="0.5" stroke-miterlimit="10"/>
<path d="M48.3218 14.4858L36.2636 14.4556" stroke="#F37F15" stroke-width="0.5" stroke-miterlimit="10"/>
<path d="M48.1472 41.9748L54.0889 38.437" stroke="#F37F15" stroke-width="0.5" stroke-miterlimit="10"/>
<path d="M36.3219 41.8585C37.1304 41.3945 37.9757 40.8146 38.7842 40.3547C39.7285 39.8147 40.6972 39.3275 41.4667 38.8873C41.645 38.7859 42.1145 38.5098 42.2928 38.4077" fill="#F37F15"/>
<path d="M36.3219 41.8585C37.1304 41.3945 37.9757 40.8146 38.7842 40.3547C39.7285 39.8147 40.6972 39.3275 41.4667 38.8873C41.645 38.7859 42.1145 38.5098 42.2928 38.4077" stroke="#F37F15" stroke-width="0.5" stroke-miterlimit="10"/>
<path d="M48.1179 28.3167L54.3218 24.6919" stroke="#F37F15" stroke-width="0.5" stroke-miterlimit="10"/>
<path d="M36.38 28.1137L42.2635 24.6919" stroke="#F37F15" stroke-width="0.5" stroke-miterlimit="10"/>
<path d="M36.38 28.1128L48.0887 28.2869" stroke="#F37F15" stroke-width="0.5" stroke-miterlimit="10"/>
<path d="M54.3807 38.1471L54.3219 24.6919" stroke="#F37F15" stroke-width="0.5" stroke-miterlimit="10"/>
<path d="M48.1472 28.6646V41.9748" stroke="#F37F15" stroke-width="0.5" stroke-miterlimit="10"/>
<path d="M54.3218 24.6919L54.0887 38.4371" stroke="#F37F15" stroke-width="0.5" stroke-miterlimit="10"/>
<path d="M36.3808 28.0552L36.3219 41.8584" stroke="#F37F15" stroke-width="0.5" stroke-miterlimit="10"/>
<path d="M48.1471 41.9752L36.3219 41.8584" stroke="#F37F15" stroke-width="0.5" stroke-miterlimit="10"/>
<path d="M42.2635 38.3792L42.147 24.75" stroke="#F37F15" stroke-width="0.5" stroke-miterlimit="10"/>
<path d="M54.147 38.4374L42.3218 38.4077" stroke="#F37F15" stroke-width="0.5" stroke-miterlimit="10"/>
<path d="M54.2635 24.75H42.147" stroke="#F37F15" stroke-width="0.5" stroke-miterlimit="10"/>
<path d="M54.0306 38.4943L59.9724 34.9565" stroke="#F37F15" stroke-width="0.5" stroke-miterlimit="10"/>
<path d="M42.2427 38.2623L44.6678 36.8756C45.612 36.3357 46.5808 35.8485 47.3503 35.4083C47.5285 35.3068 47.9981 35.0308 48.1763 34.9287" fill="#F37F15"/>
<path d="M42.2427 38.2623L44.6678 36.8756C45.612 36.3357 46.5808 35.8485 47.3503 35.4083C47.5285 35.3068 47.9981 35.0308 48.1763 34.9287" stroke="#F37F15" stroke-width="0.5" stroke-miterlimit="10"/>
<path d="M54.2635 24.6917L60.3678 21.0913" stroke="#F37F15" stroke-width="0.5" stroke-miterlimit="10"/>
<path d="M42.147 24.7497L48.147 21.2119" stroke="#F37F15" stroke-width="0.5" stroke-miterlimit="10"/>
<path d="M42.147 24.75L54.147 24.8095" stroke="#F37F15" stroke-width="0.5" stroke-miterlimit="10"/>
<path d="M60.2642 34.6671L60.2053 21.2119" stroke="#F37F15" stroke-width="0.5" stroke-miterlimit="10"/>
<path d="M54.2637 24.75L54.0306 38.4952" stroke="#F37F15" stroke-width="0.5" stroke-miterlimit="10"/>
<path d="M60.2052 21.2119L59.9722 34.9571" stroke="#F37F15" stroke-width="0.5" stroke-miterlimit="10"/>
<path d="M42.147 24.6919V38.4951" stroke="#F37F15" stroke-width="0.5" stroke-miterlimit="10"/>
<path d="M54.0304 38.4957L42.2634 38.3789" stroke="#F37F15" stroke-width="0.5" stroke-miterlimit="10"/>
<path d="M48.1472 34.8991V21.2119" stroke="#F37F15" stroke-width="0.5" stroke-miterlimit="10"/>
<path d="M60.0305 34.9584L48.2053 34.9287" stroke="#F37F15" stroke-width="0.5" stroke-miterlimit="10"/>
<path d="M60.2054 21.2128L48.1472 21.1826" stroke="#F37F15" stroke-width="0.5" stroke-miterlimit="10"/>
<path d="M36.0597 21.4726L42.1471 18.1958" stroke="#F37F15" stroke-width="0.5" stroke-miterlimit="10"/>
<path d="M24.3009 21.5016L26.7259 20.1149C27.6702 19.575 28.6389 19.0878 29.4084 18.6476C29.5867 18.5461 30.0562 18.27 30.2345 18.168" fill="#F37F15"/>
<path d="M24.3009 21.5016L26.7259 20.1149C27.6702 19.575 28.6389 19.0878 29.4084 18.6476C29.5867 18.5461 30.0562 18.27 30.2345 18.168" stroke="#F37F15" stroke-width="0.5" stroke-miterlimit="10"/>
<path d="M36.0597 8.0759L42.1471 4.68311" stroke="#F37F15" stroke-width="0.5" stroke-miterlimit="10"/>
<path d="M24.3802 7.93059L30.1909 4.65088" stroke="#F37F15" stroke-width="0.5" stroke-miterlimit="10"/>
<path d="M24.3802 7.93066L36.0889 8.07639" stroke="#F37F15" stroke-width="0.5" stroke-miterlimit="10"/>
<path d="M30.1763 4.65332L42.1471 4.68352" stroke="#F37F15" stroke-width="0.5" stroke-miterlimit="10"/>
<path d="M42.0306 18.1963L42.0894 4.68311" stroke="#F37F15" stroke-width="0.5" stroke-miterlimit="10"/>
<path d="M36.0606 8.0752L36.0312 21.4434" stroke="#F37F15" stroke-width="0.5" stroke-miterlimit="10"/>
<path d="M42.147 4.68311V18.1963" stroke="#F37F15" stroke-width="0.5" stroke-miterlimit="10"/>
<path d="M24.3807 7.93066L24.3219 21.5019" stroke="#F37F15" stroke-width="0.5" stroke-miterlimit="10"/>
<path d="M36.0888 21.4731L24.3219 21.5033" stroke="#F37F15" stroke-width="0.5" stroke-miterlimit="10"/>
<path d="M30.3218 18.1383L30.2053 4.68311" stroke="#F37F15" stroke-width="0.5" stroke-miterlimit="10"/>
<path d="M42.147 18.1981L30.3218 18.1387" stroke="#F37F15" stroke-width="0.5" stroke-miterlimit="10"/>
<path d="M12.7589 21.3575L18.555 18.1387" stroke="#F37F15" stroke-width="0.5" stroke-miterlimit="10"/>
<path d="M1 21.3859L3.42504 19.9992C4.36931 19.4592 5.33805 18.9721 6.10465 18.5319C6.2829 18.4304 6.75241 18.1543 6.93066 18.0522" fill="#F37F15"/>
<path d="M1 21.3859L3.42504 19.9992C4.36931 19.4592 5.33805 18.9721 6.10465 18.5319C6.2829 18.4304 6.75241 18.1543 6.93066 18.0522" stroke="#F37F15" stroke-width="0.5" stroke-miterlimit="10"/>
<path d="M12.7589 7.95999L18.7006 4.59619" stroke="#F37F15" stroke-width="0.5" stroke-miterlimit="10"/>
<path d="M1.1084 7.78587L6.88995 4.53516" stroke="#F37F15" stroke-width="0.5" stroke-miterlimit="10"/>
<path d="M1.0791 7.66943L12.7878 7.98953" stroke="#F37F15" stroke-width="0.5" stroke-miterlimit="10"/>
<path d="M6.8754 4.53809L18.6715 4.62538" stroke="#F37F15" stroke-width="0.5" stroke-miterlimit="10"/>
<path d="M18.5549 18.1382L18.6714 4.625" stroke="#F37F15" stroke-width="0.5" stroke-miterlimit="10"/>
<path d="M12.7593 7.95996L12.6131 21.3282" stroke="#F37F15" stroke-width="0.5" stroke-miterlimit="10"/>
<path d="M18.6432 4.59619L18.5549 18.1384" stroke="#F37F15" stroke-width="0.5" stroke-miterlimit="10"/>
<path d="M1.07988 7.75684L1.02103 21.386" stroke="#F37F15" stroke-width="0.5" stroke-miterlimit="10"/>
<path d="M12.6131 21.3281L1.0791 21.4154" stroke="#F37F15" stroke-width="0.5" stroke-miterlimit="10"/>
<path d="M6.90448 18.0801V4.56689" stroke="#F37F15" stroke-width="0.5" stroke-miterlimit="10"/>
<path d="M18.6132 18.1386L6.96277 18.0513" stroke="#F37F15" stroke-width="0.5" stroke-miterlimit="10"/>
<path d="M24.3475 21.4932L30.3219 18.1387" stroke="#F37F15" stroke-width="0.5" stroke-miterlimit="10"/>
<path d="M12.6131 21.3276C13.4246 20.8712 14.222 20.4982 15.0014 20.0517C15.9451 19.5111 16.9436 19.0553 17.716 18.6209C17.8948 18.52 18.3661 18.2474 18.5455 18.1465" fill="#F37F15"/>
<path d="M12.6131 21.3276C13.4246 20.8712 14.222 20.4982 15.0014 20.0517C15.9451 19.5111 16.9436 19.0553 17.716 18.6209C17.8948 18.52 18.3661 18.2474 18.5455 18.1465" stroke="#F37F15" stroke-width="0.5" stroke-miterlimit="10"/>
<path d="M24.3802 7.93092L30.1472 4.68311" stroke="#F37F15" stroke-width="0.5" stroke-miterlimit="10"/>
<path d="M12.7879 7.98837L18.595 4.63037" stroke="#F37F15" stroke-width="0.5" stroke-miterlimit="10"/>
<path d="M12.7298 7.99013L24.3802 7.93066" stroke="#F37F15" stroke-width="0.5" stroke-miterlimit="10"/>
<path d="M18.5805 4.6333L30.2054 4.68385" stroke="#F37F15" stroke-width="0.5" stroke-miterlimit="10"/>
<path d="M30.3218 18.1985L30.1861 4.625" stroke="#F37F15" stroke-width="0.5" stroke-miterlimit="10"/>
<path d="M24.3802 7.93066V21.5019" stroke="#F37F15" stroke-width="0.5" stroke-miterlimit="10"/>
<path d="M30.2053 4.68311L30.3218 18.1383" stroke="#F37F15" stroke-width="0.5" stroke-miterlimit="10"/>
<path d="M12.7879 8.1626L12.6096 21.6149" stroke="#F37F15" stroke-width="0.5" stroke-miterlimit="10"/>
<path d="M24.3766 21.493L12.6131 21.3281" stroke="#F37F15" stroke-width="0.5" stroke-miterlimit="10"/>
<path d="M18.5549 18.1382L18.6491 4.7207" stroke="#F37F15" stroke-width="0.5" stroke-miterlimit="10"/>
<path d="M30.322 18.1387L18.5165 18.1469" stroke="#F37F15" stroke-width="0.5" stroke-miterlimit="10"/>
</svg>
