<svg width="218" height="170" viewBox="0 0 218 170" fill="none" xmlns="http://www.w3.org/2000/svg">
<path d="M151.45 131.222L153.506 118.5L160.03 114.347L161.388 125.254L165.936 122.678L160.669 87.1865L153.755 91.2943L149.639 132.372L151.45 131.222ZM156.388 100.78L159.322 113.148L153.791 117.116L156.388 100.78Z" fill="#4ECCA3"/>
<path d="M183.666 91.8119L183.715 73.5486L179.475 76.1234L177.425 112.989L173.596 79.5772L166.328 83.7327V85.4514V92.3722L166.101 122.678L167.872 121.528V87.4544L168.31 89.8665L173.015 118.57L178.283 115.448L181.022 82.6318L180.917 113.969L183.551 112.655L183.605 97.903L183.666 91.8119Z" fill="#4ECCA3"/>
<path d="M50.5135 74.2798L54.5631 62.9324H65.7211L69.6341 74.5345H81.8159L67.4644 36.4139H62.8468L48.7768 74.2798H50.5135ZM60.3693 46.9431L65.2684 61.6951H55.0718L60.3693 46.9431Z" fill="#4ECCA3"/>
<path d="M28.7174 36.0903L28.617 74.3585L39.6103 74.3872L39.7106 36.119L28.7174 36.0903Z" fill="#4ECCA3"/>
<path d="M82.8365 74.6971H84.5008V38.2049L105.001 74.6971H114.424V36.57H112.759V64.4605L97.2522 36.4139H82.8365V74.6971Z" fill="#4ECCA3"/>
<path d="M81.8159 151.104L98.7717 141.903" stroke="#4ECCA3" stroke-width="0.5" stroke-miterlimit="10"/>
<path d="M48.6681 151.268L55.5212 147.34C58.1897 145.81 60.9273 144.43 63.1019 143.183C63.6057 142.895 64.9325 142.113 65.4362 141.824" fill="#4ECCA3"/>
<path d="M48.6681 151.268L55.5212 147.34C58.1897 145.81 60.9273 144.43 63.1019 143.183C63.6057 142.895 64.9325 142.113 65.4362 141.824" stroke="#4ECCA3" stroke-width="0.5" stroke-miterlimit="10"/>
<path d="M81.8982 113.23L98.9363 103.125" stroke="#4ECCA3" stroke-width="0.5" stroke-miterlimit="10"/>
<path d="M48.7274 112.655L65.3539 102.961" stroke="#4ECCA3" stroke-width="0.5" stroke-miterlimit="10"/>
<path d="M48.7274 112.655L81.8159 113.148" stroke="#4ECCA3" stroke-width="0.5" stroke-miterlimit="10"/>
<path d="M99.5947 141.081L98.9363 103.125" stroke="#4ECCA3" stroke-width="0.5" stroke-miterlimit="10"/>
<path d="M81.8998 113.23L81.8175 151.104" stroke="#4ECCA3" stroke-width="0.5" stroke-miterlimit="10"/>
<path d="M98.9363 103.125L98.7717 141.903" stroke="#4ECCA3" stroke-width="0.5" stroke-miterlimit="10"/>
<path d="M48.7274 112.655V151.268" stroke="#4ECCA3" stroke-width="0.5" stroke-miterlimit="10"/>
<path d="M81.8159 151.104L48.7274 151.268" stroke="#4ECCA3" stroke-width="0.5" stroke-miterlimit="10"/>
<path d="M65.3539 141.738V102.961" stroke="#4ECCA3" stroke-width="0.5" stroke-miterlimit="10"/>
<path d="M98.9363 141.903L65.5186 141.82" stroke="#4ECCA3" stroke-width="0.5" stroke-miterlimit="10"/>
<path d="M98.9363 103.125L65.3539 102.878" stroke="#4ECCA3" stroke-width="0.5" stroke-miterlimit="10"/>
<path d="M55.4011 62.1124C55.4556 62.1124 55.508 62.0908 55.5466 62.0523C55.5851 62.0138 55.6068 61.9615 55.6068 61.907C55.6068 61.8526 55.5851 61.8003 55.5466 61.7618C55.508 61.7233 55.4556 61.7017 55.4011 61.7017C55.3465 61.7017 55.2941 61.7233 55.2556 61.7618C55.217 61.8003 55.1953 61.8526 55.1953 61.907C55.1953 61.9615 55.217 62.0138 55.2556 62.0523C55.2941 62.0908 55.3465 62.1124 55.4011 62.1124Z" fill="#4ECCA3"/>
<path d="M81.9805 113.148L98.9363 103.125" stroke="#4ECCA3" stroke-width="0.5" stroke-miterlimit="10"/>
<path d="M48.6681 112.491L55.5212 108.562C58.1897 107.032 60.9273 105.652 63.1019 104.405C63.6057 104.117 64.9325 103.335 65.4362 103.046" fill="#4ECCA3"/>
<path d="M48.6681 112.491L55.5212 108.562C58.1897 107.032 60.9273 105.652 63.1019 104.405C63.6057 104.117 64.9325 103.335 65.4362 103.046" stroke="#4ECCA3" stroke-width="0.5" stroke-miterlimit="10"/>
<path d="M81.8982 74.4522L98.7717 65.1686" stroke="#4ECCA3" stroke-width="0.5" stroke-miterlimit="10"/>
<path d="M48.7274 74.2058L65.5186 65.1686" stroke="#4ECCA3" stroke-width="0.5" stroke-miterlimit="10"/>
<path d="M48.5627 74.2058L81.6513 74.6987" stroke="#4ECCA3" stroke-width="0.5" stroke-miterlimit="10"/>
<path d="M99.5948 102.303L99.4302 64.1827" stroke="#4ECCA3" stroke-width="0.5" stroke-miterlimit="10"/>
<path d="M81.9805 75.4381V113.148" stroke="#4ECCA3" stroke-width="0.5" stroke-miterlimit="10"/>
<path d="M98.7717 65.1686L98.9363 103.125" stroke="#4ECCA3" stroke-width="0.5" stroke-miterlimit="10"/>
<path d="M48.7274 73.8772V112.491" stroke="#4ECCA3" stroke-width="0.5" stroke-miterlimit="10"/>
<path d="M81.9805 113.148L48.7274 112.491" stroke="#4ECCA3" stroke-width="0.5" stroke-miterlimit="10"/>
<path d="M65.3539 102.96V65.1686" stroke="#4ECCA3" stroke-width="0.5" stroke-miterlimit="10"/>
<path d="M99.4301 103.125L65.3539 102.961" stroke="#4ECCA3" stroke-width="0.5" stroke-miterlimit="10"/>
<path d="M98.2778 65.3329L64.86 65.1686" stroke="#4ECCA3" stroke-width="0.5" stroke-miterlimit="10"/>
<path d="M132.025 141.738L148.981 132.537" stroke="#4ECCA3" stroke-width="0.5" stroke-miterlimit="10"/>
<path d="M98.877 141.903L105.73 137.974C108.399 136.444 111.136 135.064 113.311 133.817C113.815 133.529 115.224 132.667 115.727 132.376" fill="#4ECCA3"/>
<path d="M98.877 141.903L105.73 137.974C108.399 136.444 111.136 135.064 113.311 133.817C113.815 133.529 115.224 132.667 115.727 132.376" stroke="#4ECCA3" stroke-width="0.5" stroke-miterlimit="10"/>
<path d="M132.107 103.864L149.639 93.5947" stroke="#4ECCA3" stroke-width="0.5" stroke-miterlimit="10"/>
<path d="M98.9363 103.125L115.563 93.5947" stroke="#4ECCA3" stroke-width="0.5" stroke-miterlimit="10"/>
<path d="M98.9363 103.125L132.025 103.782" stroke="#4ECCA3" stroke-width="0.5" stroke-miterlimit="10"/>
<path d="M149.804 131.715L149.639 93.5947" stroke="#4ECCA3" stroke-width="0.5" stroke-miterlimit="10"/>
<path d="M132.109 103.864L132.026 141.738" stroke="#4ECCA3" stroke-width="0.5" stroke-miterlimit="10"/>
<path d="M149.639 93.5947L148.981 132.537" stroke="#4ECCA3" stroke-width="0.5" stroke-miterlimit="10"/>
<path d="M98.9363 103.125V141.903" stroke="#4ECCA3" stroke-width="0.5" stroke-miterlimit="10"/>
<path d="M132.025 141.738L98.9363 141.903" stroke="#4ECCA3" stroke-width="0.5" stroke-miterlimit="10"/>
<path d="M115.727 132.372L115.563 93.5947" stroke="#4ECCA3" stroke-width="0.5" stroke-miterlimit="10"/>
<path d="M149.145 132.537L115.727 132.455" stroke="#4ECCA3" stroke-width="0.5" stroke-miterlimit="10"/>
<path d="M149.639 93.5947L115.563 93.5126" stroke="#4ECCA3" stroke-width="0.5" stroke-miterlimit="10"/>
<path d="M132.189 65.3329L149.639 54.8169" stroke="#4ECCA3" stroke-width="0.5" stroke-miterlimit="10"/>
<path d="M98.7717 65.1686C101.057 63.8541 103.236 61.8823 105.521 60.5678C108.19 59.0381 110.919 57.5412 113.094 56.2957C113.597 56.0065 115.059 55.1061 115.563 54.8169" fill="#4ECCA3"/>
<path d="M98.7717 65.1686C101.057 63.8541 103.236 61.8823 105.521 60.5678C108.19 59.0381 110.919 57.5412 113.094 56.2957C113.597 56.0065 115.059 55.1061 115.563 54.8169" stroke="#4ECCA3" stroke-width="0.5" stroke-miterlimit="10"/>
<path d="M132.189 27.0481L149.639 16.6964" stroke="#4ECCA3" stroke-width="0.5" stroke-miterlimit="10"/>
<path d="M98.4424 26.8838L115.563 16.6964" stroke="#4ECCA3" stroke-width="0.5" stroke-miterlimit="10"/>
<path d="M98.4424 27.0481H132.189" stroke="#4ECCA3" stroke-width="0.5" stroke-miterlimit="10"/>
<path d="M149.804 54.8169L149.639 16.6964" stroke="#4ECCA3" stroke-width="0.5" stroke-miterlimit="10"/>
<path d="M132.189 27.0481V65.3329" stroke="#4ECCA3" stroke-width="0.5" stroke-miterlimit="10"/>
<path d="M149.639 16.6964V54.8169" stroke="#4ECCA3" stroke-width="0.5" stroke-miterlimit="10"/>
<path d="M98.2778 27.2124L98.7717 65.1686" stroke="#4ECCA3" stroke-width="0.5" stroke-miterlimit="10"/>
<path d="M132.189 65.3329L98.7717 65.1686" stroke="#4ECCA3" stroke-width="0.5" stroke-miterlimit="10"/>
<path d="M115.563 55.4742V16.6964" stroke="#4ECCA3" stroke-width="0.5" stroke-miterlimit="10"/>
<path d="M149.474 54.8169H115.563" stroke="#4ECCA3" stroke-width="0.5" stroke-miterlimit="10"/>
<path d="M149.639 16.6964L115.563 16.6143" stroke="#4ECCA3" stroke-width="0.5" stroke-miterlimit="10"/>
<path d="M105.61 52.7466C105.665 52.7466 105.717 52.725 105.755 52.6864C105.794 52.6479 105.816 52.5957 105.816 52.5412C105.816 52.4867 105.794 52.4345 105.755 52.396C105.717 52.3575 105.665 52.3358 105.61 52.3358C105.555 52.3358 105.503 52.3575 105.464 52.396C105.426 52.4345 105.404 52.4867 105.404 52.5412C105.404 52.5957 105.426 52.6479 105.464 52.6864C105.503 52.725 105.555 52.7466 105.61 52.7466V52.7466Z" fill="#4ECCA3"/>
<path d="M132.189 103.782L148.981 93.759" stroke="#4ECCA3" stroke-width="0.5" stroke-miterlimit="10"/>
<path d="M98.877 103.125L105.73 99.1961C108.399 97.6664 111.136 96.2862 113.311 95.039C113.815 94.7515 115.141 93.9694 115.645 93.6802" fill="#4ECCA3"/>
<path d="M98.877 103.125L105.73 99.1961C108.399 97.6664 111.136 96.2862 113.311 95.039C113.815 94.7515 115.141 93.9694 115.645 93.6802" stroke="#4ECCA3" stroke-width="0.5" stroke-miterlimit="10"/>
<path d="M132.189 65.3329L149.639 54.8169" stroke="#4ECCA3" stroke-width="0.5" stroke-miterlimit="10"/>
<path d="M98.7717 65.1686L115.563 54.8169" stroke="#4ECCA3" stroke-width="0.5" stroke-miterlimit="10"/>
<path d="M98.6071 65.1686L132.025 65.3329" stroke="#4ECCA3" stroke-width="0.5" stroke-miterlimit="10"/>
<path d="M149.804 92.9374L149.639 54.8169" stroke="#4ECCA3" stroke-width="0.5" stroke-miterlimit="10"/>
<path d="M132.189 65.3329V103.782" stroke="#4ECCA3" stroke-width="0.5" stroke-miterlimit="10"/>
<path d="M149.639 54.8169L148.981 93.759" stroke="#4ECCA3" stroke-width="0.5" stroke-miterlimit="10"/>
<path d="M98.7717 65.1686L98.9363 103.125" stroke="#4ECCA3" stroke-width="0.5" stroke-miterlimit="10"/>
<path d="M132.189 103.782L98.9363 103.125" stroke="#4ECCA3" stroke-width="0.5" stroke-miterlimit="10"/>
<path d="M115.563 93.5947V54.8169" stroke="#4ECCA3" stroke-width="0.5" stroke-miterlimit="10"/>
<path d="M149.145 93.759L115.727 93.6769" stroke="#4ECCA3" stroke-width="0.5" stroke-miterlimit="10"/>
<path d="M149.639 54.8169L115.563 54.7347" stroke="#4ECCA3" stroke-width="0.5" stroke-miterlimit="10"/>
<path d="M149.145 132.701L165.936 122.678" stroke="#4ECCA3" stroke-width="0.5" stroke-miterlimit="10"/>
<path d="M115.727 132.372C118.012 131.058 120.401 129.415 122.686 128.112C125.354 126.582 128.092 125.202 130.267 123.955C130.77 123.667 132.097 122.885 132.601 122.596" fill="#4ECCA3"/>
<path d="M115.727 132.372C118.012 131.058 120.401 129.415 122.686 128.112C125.354 126.582 128.092 125.202 130.267 123.955C130.77 123.667 132.097 122.885 132.601 122.596" stroke="#4ECCA3" stroke-width="0.5" stroke-miterlimit="10"/>
<path d="M149.063 94.0055L166.595 83.736" stroke="#4ECCA3" stroke-width="0.5" stroke-miterlimit="10"/>
<path d="M115.892 93.4304L132.519 83.736" stroke="#4ECCA3" stroke-width="0.5" stroke-miterlimit="10"/>
<path d="M115.892 93.4304L148.981 93.9234" stroke="#4ECCA3" stroke-width="0.5" stroke-miterlimit="10"/>
<path d="M166.759 121.856L166.595 83.736" stroke="#4ECCA3" stroke-width="0.5" stroke-miterlimit="10"/>
<path d="M149.145 94.9913V132.701" stroke="#4ECCA3" stroke-width="0.5" stroke-miterlimit="10"/>
<path d="M166.595 83.736L165.936 122.678" stroke="#4ECCA3" stroke-width="0.5" stroke-miterlimit="10"/>
<path d="M115.892 93.2661L115.727 132.373" stroke="#4ECCA3" stroke-width="0.5" stroke-miterlimit="10"/>
<path d="M149.145 132.701L115.727 132.372" stroke="#4ECCA3" stroke-width="0.5" stroke-miterlimit="10"/>
<path d="M132.519 122.514L132.189 83.9003" stroke="#4ECCA3" stroke-width="0.5" stroke-miterlimit="10"/>
<path d="M166.101 122.678L132.683 122.596" stroke="#4ECCA3" stroke-width="0.5" stroke-miterlimit="10"/>
<path d="M166.43 83.9003H132.189" stroke="#4ECCA3" stroke-width="0.5" stroke-miterlimit="10"/>
<path d="M165.772 122.842L182.563 112.819" stroke="#4ECCA3" stroke-width="0.5" stroke-miterlimit="10"/>
<path d="M132.459 122.185L139.312 118.256C141.981 116.727 144.719 115.346 146.893 114.099C147.397 113.812 148.724 113.03 149.227 112.74" fill="#4ECCA3"/>
<path d="M132.459 122.185L139.312 118.256C141.981 116.727 144.719 115.346 146.893 114.099C147.397 113.812 148.724 113.03 149.227 112.74" stroke="#4ECCA3" stroke-width="0.5" stroke-miterlimit="10"/>
<path d="M166.43 83.7359L183.681 73.5354" stroke="#4ECCA3" stroke-width="0.5" stroke-miterlimit="10"/>
<path d="M132.189 83.9003L149.145 73.8772" stroke="#4ECCA3" stroke-width="0.5" stroke-miterlimit="10"/>
<path d="M132.189 83.9003L166.101 84.0646" stroke="#4ECCA3" stroke-width="0.5" stroke-miterlimit="10"/>
<path d="M183.386 111.998L183.221 73.8772" stroke="#4ECCA3" stroke-width="0.5" stroke-miterlimit="10"/>
<path d="M166.43 83.9003L165.772 122.842" stroke="#4ECCA3" stroke-width="0.5" stroke-miterlimit="10"/>
<path d="M183.221 73.8772L182.563 112.819" stroke="#4ECCA3" stroke-width="0.5" stroke-miterlimit="10"/>
<path d="M132.189 83.736V122.842" stroke="#4ECCA3" stroke-width="0.5" stroke-miterlimit="10"/>
<path d="M165.772 122.842L132.519 122.514" stroke="#4ECCA3" stroke-width="0.5" stroke-miterlimit="10"/>
<path d="M149.145 112.655V73.8772" stroke="#4ECCA3" stroke-width="0.5" stroke-miterlimit="10"/>
<path d="M182.728 112.819L149.31 112.737" stroke="#4ECCA3" stroke-width="0.5" stroke-miterlimit="10"/>
<path d="M183.221 73.8772L149.145 73.795" stroke="#4ECCA3" stroke-width="0.5" stroke-miterlimit="10"/>
<path d="M114.987 74.6166L132.189 65.3329" stroke="#4ECCA3" stroke-width="0.5" stroke-miterlimit="10"/>
<path d="M81.7566 74.6987L88.6097 70.77C91.2782 69.2403 94.0158 67.86 96.1904 66.6129C96.6942 66.3254 98.021 65.5432 98.5247 65.254" fill="#4ECCA3"/>
<path d="M81.7566 74.6987L88.6097 70.77C91.2782 69.2403 94.0158 67.86 96.1904 66.6129C96.6942 66.3254 98.021 65.5432 98.5247 65.254" stroke="#4ECCA3" stroke-width="0.5" stroke-miterlimit="10"/>
<path d="M114.987 36.6604L132.189 27.0481" stroke="#4ECCA3" stroke-width="0.5" stroke-miterlimit="10"/>
<path d="M81.9805 36.2496L98.4014 26.9578" stroke="#4ECCA3" stroke-width="0.5" stroke-miterlimit="10"/>
<path d="M81.9805 36.2496L115.069 36.6604" stroke="#4ECCA3" stroke-width="0.5" stroke-miterlimit="10"/>
<path d="M98.3601 26.9659L132.189 27.0481" stroke="#4ECCA3" stroke-width="0.5" stroke-miterlimit="10"/>
<path d="M131.86 65.3329L132.025 27.0481" stroke="#4ECCA3" stroke-width="0.5" stroke-miterlimit="10"/>
<path d="M114.988 36.6604L114.906 74.5345" stroke="#4ECCA3" stroke-width="0.5" stroke-miterlimit="10"/>
<path d="M132.189 27.0481V65.3329" stroke="#4ECCA3" stroke-width="0.5" stroke-miterlimit="10"/>
<path d="M81.9805 36.2496L81.8159 74.6988" stroke="#4ECCA3" stroke-width="0.5" stroke-miterlimit="10"/>
<path d="M115.069 74.6166L81.8159 74.6987" stroke="#4ECCA3" stroke-width="0.5" stroke-miterlimit="10"/>
<path d="M98.7716 65.1686L98.4424 27.0481" stroke="#4ECCA3" stroke-width="0.5" stroke-miterlimit="10"/>
<path d="M132.189 65.3329L98.7717 65.1686" stroke="#4ECCA3" stroke-width="0.5" stroke-miterlimit="10"/>
<path d="M49.1389 74.2879L65.5186 65.1686" stroke="#4ECCA3" stroke-width="0.5" stroke-miterlimit="10"/>
<path d="M15.9088 74.3701L22.762 70.4414C25.4304 68.9116 28.1681 67.5314 30.3344 66.2843C30.8382 65.9967 32.165 65.2146 32.6687 64.9254" fill="#4ECCA3"/>
<path d="M15.9088 74.3701L22.762 70.4414C25.4304 68.9116 28.1681 67.5314 30.3344 66.2843C30.8382 65.9967 32.165 65.2146 32.6687 64.9254" stroke="#4ECCA3" stroke-width="0.5" stroke-miterlimit="10"/>
<path d="M49.1389 36.3318L65.9301 26.8016" stroke="#4ECCA3" stroke-width="0.5" stroke-miterlimit="10"/>
<path d="M16.215 35.8389L32.5535 26.6292" stroke="#4ECCA3" stroke-width="0.5" stroke-miterlimit="10"/>
<path d="M16.1327 35.5103L49.2212 36.414" stroke="#4ECCA3" stroke-width="0.5" stroke-miterlimit="10"/>
<path d="M32.5124 26.6373L65.8478 26.8838" stroke="#4ECCA3" stroke-width="0.5" stroke-miterlimit="10"/>
<path d="M65.5186 65.1686L65.8478 26.8838" stroke="#4ECCA3" stroke-width="0.5" stroke-miterlimit="10"/>
<path d="M49.1406 36.3318L48.7274 74.2058" stroke="#4ECCA3" stroke-width="0.5" stroke-miterlimit="10"/>
<path d="M65.7655 26.8016L65.5186 65.1686" stroke="#4ECCA3" stroke-width="0.5" stroke-miterlimit="10"/>
<path d="M16.1327 35.7567L15.9681 74.3702" stroke="#4ECCA3" stroke-width="0.5" stroke-miterlimit="10"/>
<path d="M48.7274 74.2058L16.1327 74.4523" stroke="#4ECCA3" stroke-width="0.5" stroke-miterlimit="10"/>
<path d="M32.5947 65.0043V26.7195" stroke="#4ECCA3" stroke-width="0.5" stroke-miterlimit="10"/>
<path d="M65.6832 65.1686L32.7593 64.9221" stroke="#4ECCA3" stroke-width="0.5" stroke-miterlimit="10"/>
<path d="M81.8883 74.6724L98.7717 65.1686" stroke="#4ECCA3" stroke-width="0.5" stroke-miterlimit="10"/>
<path d="M48.7274 74.2058C51.0205 72.9127 53.2741 71.8561 55.4768 70.5909C58.1436 69.0595 60.9652 67.768 63.148 66.5373C63.6534 66.2514 64.9852 65.4791 65.4922 65.1932" fill="#4ECCA3"/>
<path d="M48.7274 74.2058C51.0205 72.9127 53.2741 71.8561 55.4768 70.5909C58.1436 69.0595 60.9652 67.768 63.148 66.5373C63.6534 66.2514 64.9852 65.4791 65.4922 65.1932" stroke="#4ECCA3" stroke-width="0.5" stroke-miterlimit="10"/>
<path d="M81.9805 36.2496L98.2778 27.0481" stroke="#4ECCA3" stroke-width="0.5" stroke-miterlimit="10"/>
<path d="M49.2212 36.414L65.6321 26.9003" stroke="#4ECCA3" stroke-width="0.5" stroke-miterlimit="10"/>
<path d="M49.0566 36.4139L81.9805 36.2496" stroke="#4ECCA3" stroke-width="0.5" stroke-miterlimit="10"/>
<path d="M65.591 26.9084L98.4424 27.0481" stroke="#4ECCA3" stroke-width="0.5" stroke-miterlimit="10"/>
<path d="M98.7716 65.3395L98.3881 26.8838" stroke="#4ECCA3" stroke-width="0.5" stroke-miterlimit="10"/>
<path d="M81.9805 36.2496V74.6988" stroke="#4ECCA3" stroke-width="0.5" stroke-miterlimit="10"/>
<path d="M98.4424 27.0481L98.7716 65.1686" stroke="#4ECCA3" stroke-width="0.5" stroke-miterlimit="10"/>
<path d="M49.2212 36.9069L48.7175 75.0192" stroke="#4ECCA3" stroke-width="0.5" stroke-miterlimit="10"/>
<path d="M81.9706 74.6724L48.7274 74.2058" stroke="#4ECCA3" stroke-width="0.5" stroke-miterlimit="10"/>
<path d="M65.5186 65.1686L65.782 27.1549" stroke="#4ECCA3" stroke-width="0.5" stroke-miterlimit="10"/>
<path d="M98.7717 65.1686L65.4099 65.1932" stroke="#4ECCA3" stroke-width="0.5" stroke-miterlimit="10"/>
</svg>
