<svg width="169" height="136" viewBox="0 0 169 136" fill="none" xmlns="http://www.w3.org/2000/svg">
<path d="M136.45 115.222L138.506 102.5L145.03 98.3474L146.388 109.254L150.936 106.678L145.669 71.1865L138.755 75.2943L134.639 116.372L136.45 115.222ZM141.388 84.7801L144.322 97.1479L138.791 101.116L141.388 84.7801Z" fill="#040F15"/>
<path d="M168.666 75.8119L168.715 57.5486L164.475 60.1234L162.425 96.9885L158.596 63.5772L151.328 67.7327V69.4514V76.3722L151.101 106.678L152.872 105.528V71.4544L153.31 73.8665L158.015 102.57L163.283 99.4483L166.022 66.6318L165.917 97.9695L168.551 96.655L168.605 81.903L168.666 75.8119Z" fill="#040F15"/>
<path d="M35.5135 58.2798L39.5631 46.9324H50.721L54.634 58.5345H66.8159L52.4644 20.4139H47.8468L33.7767 58.2798H35.5135ZM45.3692 30.9431L50.2683 45.6951H40.0718L45.3692 30.9431Z" fill="#040F15"/>
<path d="M13.7174 20.0903L13.617 58.3585L24.6102 58.3872L24.7106 20.119L13.7174 20.0903Z" fill="#040F15"/>
<path d="M67.8364 58.6971H69.5007V22.2049L90.0008 58.6971H99.4236V20.57H97.7593V48.4605L82.2522 20.4139H67.8364V58.6971Z" fill="#040F15"/>
<path d="M66.8159 135.104L83.7716 125.903" stroke="#040F15" stroke-width="0.5" stroke-miterlimit="10"/>
<path d="M33.6681 135.268L40.5212 131.34C43.1897 129.81 45.9273 128.43 48.1019 127.183C48.6056 126.895 49.9325 126.113 50.4362 125.824" fill="#040F15"/>
<path d="M33.6681 135.268L40.5212 131.34C43.1897 129.81 45.9273 128.43 48.1019 127.183C48.6056 126.895 49.9325 126.113 50.4362 125.824" stroke="#040F15" stroke-width="0.5" stroke-miterlimit="10"/>
<path d="M66.8982 97.23L83.9363 87.1248" stroke="#040F15" stroke-width="0.5" stroke-miterlimit="10"/>
<path d="M33.7274 96.655L50.3539 86.9606" stroke="#040F15" stroke-width="0.5" stroke-miterlimit="10"/>
<path d="M33.7274 96.6549L66.8159 97.1479" stroke="#040F15" stroke-width="0.5" stroke-miterlimit="10"/>
<path d="M84.5947 125.081L83.9363 87.1248" stroke="#040F15" stroke-width="0.5" stroke-miterlimit="10"/>
<path d="M66.8998 97.2301L66.8175 135.104" stroke="#040F15" stroke-width="0.5" stroke-miterlimit="10"/>
<path d="M83.9362 87.1248L83.7716 125.903" stroke="#040F15" stroke-width="0.5" stroke-miterlimit="10"/>
<path d="M33.7274 96.6549V135.268" stroke="#040F15" stroke-width="0.5" stroke-miterlimit="10"/>
<path d="M66.8159 135.104L33.7274 135.268" stroke="#040F15" stroke-width="0.5" stroke-miterlimit="10"/>
<path d="M50.3539 125.738V86.9606" stroke="#040F15" stroke-width="0.5" stroke-miterlimit="10"/>
<path d="M83.9363 125.903L50.5186 125.82" stroke="#040F15" stroke-width="0.5" stroke-miterlimit="10"/>
<path d="M83.9363 87.1248L50.3539 86.8783" stroke="#040F15" stroke-width="0.5" stroke-miterlimit="10"/>
<path d="M40.401 46.1124C40.4556 46.1124 40.5079 46.0908 40.5465 46.0523C40.5851 46.0138 40.6068 45.9615 40.6068 45.907C40.6068 45.8526 40.5851 45.8003 40.5465 45.7618C40.5079 45.7233 40.4556 45.7017 40.401 45.7017C40.3464 45.7017 40.2941 45.7233 40.2555 45.7618C40.2169 45.8003 40.1953 45.8526 40.1953 45.907C40.1953 45.9615 40.2169 46.0138 40.2555 46.0523C40.2941 46.0908 40.3464 46.1124 40.401 46.1124Z" fill="#040F15"/>
<path d="M66.9804 97.1478L83.9362 87.1248" stroke="#040F15" stroke-width="0.5" stroke-miterlimit="10"/>
<path d="M33.6681 96.4906L40.5212 92.5619C43.1897 91.0321 45.9273 89.6519 48.1019 88.4048C48.6056 88.1172 49.9325 87.3351 50.4362 87.0459" fill="#040F15"/>
<path d="M33.6681 96.4906L40.5212 92.5619C43.1897 91.0321 45.9273 89.6519 48.1019 88.4048C48.6056 88.1172 49.9325 87.3351 50.4362 87.0459" stroke="#040F15" stroke-width="0.5" stroke-miterlimit="10"/>
<path d="M66.8982 58.4522L83.7717 49.1686" stroke="#040F15" stroke-width="0.5" stroke-miterlimit="10"/>
<path d="M33.7274 58.2058L50.5186 49.1686" stroke="#040F15" stroke-width="0.5" stroke-miterlimit="10"/>
<path d="M33.5627 58.2058L66.6513 58.6987" stroke="#040F15" stroke-width="0.5" stroke-miterlimit="10"/>
<path d="M84.5947 86.3033L84.4301 48.1827" stroke="#040F15" stroke-width="0.5" stroke-miterlimit="10"/>
<path d="M66.9804 59.4381V97.1478" stroke="#040F15" stroke-width="0.5" stroke-miterlimit="10"/>
<path d="M83.7716 49.1686L83.9362 87.1248" stroke="#040F15" stroke-width="0.5" stroke-miterlimit="10"/>
<path d="M33.7274 57.8772V96.4906" stroke="#040F15" stroke-width="0.5" stroke-miterlimit="10"/>
<path d="M66.9805 97.1479L33.7274 96.4906" stroke="#040F15" stroke-width="0.5" stroke-miterlimit="10"/>
<path d="M50.3539 86.9605V49.1686" stroke="#040F15" stroke-width="0.5" stroke-miterlimit="10"/>
<path d="M84.4301 87.1249L50.3539 86.9606" stroke="#040F15" stroke-width="0.5" stroke-miterlimit="10"/>
<path d="M83.2778 49.3329L49.86 49.1686" stroke="#040F15" stroke-width="0.5" stroke-miterlimit="10"/>
<path d="M117.025 125.738L133.981 116.537" stroke="#040F15" stroke-width="0.5" stroke-miterlimit="10"/>
<path d="M83.877 125.903L90.7301 121.974C93.3986 120.444 96.1362 119.064 98.3108 117.817C98.8145 117.529 100.224 116.667 100.727 116.376" fill="#040F15"/>
<path d="M83.877 125.903L90.7301 121.974C93.3986 120.444 96.1362 119.064 98.3108 117.817C98.8145 117.529 100.224 116.667 100.727 116.376" stroke="#040F15" stroke-width="0.5" stroke-miterlimit="10"/>
<path d="M117.107 87.8643L134.639 77.5947" stroke="#040F15" stroke-width="0.5" stroke-miterlimit="10"/>
<path d="M83.9363 87.1248L100.563 77.5947" stroke="#040F15" stroke-width="0.5" stroke-miterlimit="10"/>
<path d="M83.9363 87.1248L117.025 87.782" stroke="#040F15" stroke-width="0.5" stroke-miterlimit="10"/>
<path d="M134.804 115.715L134.639 77.5947" stroke="#040F15" stroke-width="0.5" stroke-miterlimit="10"/>
<path d="M117.109 87.8643L117.026 125.738" stroke="#040F15" stroke-width="0.5" stroke-miterlimit="10"/>
<path d="M134.639 77.5947L133.981 116.537" stroke="#040F15" stroke-width="0.5" stroke-miterlimit="10"/>
<path d="M83.9363 87.1248V125.903" stroke="#040F15" stroke-width="0.5" stroke-miterlimit="10"/>
<path d="M117.025 125.738L83.9363 125.903" stroke="#040F15" stroke-width="0.5" stroke-miterlimit="10"/>
<path d="M100.727 116.372L100.563 77.5947" stroke="#040F15" stroke-width="0.5" stroke-miterlimit="10"/>
<path d="M134.145 116.537L100.727 116.455" stroke="#040F15" stroke-width="0.5" stroke-miterlimit="10"/>
<path d="M134.639 77.5947L100.563 77.5126" stroke="#040F15" stroke-width="0.5" stroke-miterlimit="10"/>
<path d="M117.189 49.3329L134.639 38.8169" stroke="#040F15" stroke-width="0.5" stroke-miterlimit="10"/>
<path d="M83.7716 49.1686C86.0565 47.8541 88.2361 45.8823 90.521 44.5678C93.1895 43.0381 95.9189 41.5412 98.0936 40.2957C98.5973 40.0065 100.059 39.1061 100.563 38.8169" fill="#040F15"/>
<path d="M83.7716 49.1686C86.0565 47.8541 88.2361 45.8823 90.521 44.5678C93.1895 43.0381 95.9189 41.5412 98.0936 40.2957C98.5973 40.0065 100.059 39.1061 100.563 38.8169" stroke="#040F15" stroke-width="0.5" stroke-miterlimit="10"/>
<path d="M117.189 11.0481L134.639 0.696411" stroke="#040F15" stroke-width="0.5" stroke-miterlimit="10"/>
<path d="M83.4424 10.8838L100.563 0.696411" stroke="#040F15" stroke-width="0.5" stroke-miterlimit="10"/>
<path d="M83.4424 11.0481H117.189" stroke="#040F15" stroke-width="0.5" stroke-miterlimit="10"/>
<path d="M134.804 38.8169L134.639 0.696411" stroke="#040F15" stroke-width="0.5" stroke-miterlimit="10"/>
<path d="M117.189 11.0481V49.3329" stroke="#040F15" stroke-width="0.5" stroke-miterlimit="10"/>
<path d="M134.639 0.696411V38.8169" stroke="#040F15" stroke-width="0.5" stroke-miterlimit="10"/>
<path d="M83.2778 11.2124L83.7716 49.1686" stroke="#040F15" stroke-width="0.5" stroke-miterlimit="10"/>
<path d="M117.189 49.3329L83.7716 49.1686" stroke="#040F15" stroke-width="0.5" stroke-miterlimit="10"/>
<path d="M100.563 39.4742V0.696411" stroke="#040F15" stroke-width="0.5" stroke-miterlimit="10"/>
<path d="M134.474 38.8169H100.563" stroke="#040F15" stroke-width="0.5" stroke-miterlimit="10"/>
<path d="M134.639 0.696413L100.563 0.614258" stroke="#040F15" stroke-width="0.5" stroke-miterlimit="10"/>
<path d="M90.6099 36.7466C90.6645 36.7466 90.7168 36.725 90.7554 36.6864C90.794 36.6479 90.8157 36.5957 90.8157 36.5412C90.8157 36.4867 90.794 36.4345 90.7554 36.396C90.7168 36.3575 90.6645 36.3358 90.6099 36.3358C90.5553 36.3358 90.503 36.3575 90.4644 36.396C90.4258 36.4345 90.4041 36.4867 90.4041 36.5412C90.4041 36.5957 90.4258 36.6479 90.4644 36.6864C90.503 36.725 90.5553 36.7466 90.6099 36.7466V36.7466Z" fill="#040F15"/>
<path d="M117.189 87.7821L133.981 77.759" stroke="#040F15" stroke-width="0.5" stroke-miterlimit="10"/>
<path d="M83.877 87.1249L90.7301 83.1961C93.3985 81.6664 96.1362 80.2862 98.3108 79.039C98.8145 78.7515 100.141 77.9694 100.645 77.6802" fill="#040F15"/>
<path d="M83.877 87.1249L90.7301 83.1961C93.3985 81.6664 96.1362 80.2862 98.3108 79.039C98.8145 78.7515 100.141 77.9694 100.645 77.6802" stroke="#040F15" stroke-width="0.5" stroke-miterlimit="10"/>
<path d="M117.189 49.3329L134.639 38.8169" stroke="#040F15" stroke-width="0.5" stroke-miterlimit="10"/>
<path d="M83.7716 49.1686L100.563 38.8169" stroke="#040F15" stroke-width="0.5" stroke-miterlimit="10"/>
<path d="M83.6071 49.1686L117.025 49.3329" stroke="#040F15" stroke-width="0.5" stroke-miterlimit="10"/>
<path d="M134.804 76.9374L134.639 38.8169" stroke="#040F15" stroke-width="0.5" stroke-miterlimit="10"/>
<path d="M117.189 49.3329V87.782" stroke="#040F15" stroke-width="0.5" stroke-miterlimit="10"/>
<path d="M134.639 38.8169L133.981 77.759" stroke="#040F15" stroke-width="0.5" stroke-miterlimit="10"/>
<path d="M83.7716 49.1686L83.9362 87.1248" stroke="#040F15" stroke-width="0.5" stroke-miterlimit="10"/>
<path d="M117.189 87.782L83.9363 87.1248" stroke="#040F15" stroke-width="0.5" stroke-miterlimit="10"/>
<path d="M100.563 77.5947V38.8169" stroke="#040F15" stroke-width="0.5" stroke-miterlimit="10"/>
<path d="M134.145 77.759L100.727 77.6769" stroke="#040F15" stroke-width="0.5" stroke-miterlimit="10"/>
<path d="M134.639 38.8169L100.563 38.7347" stroke="#040F15" stroke-width="0.5" stroke-miterlimit="10"/>
<path d="M134.145 116.701L150.936 106.678" stroke="#040F15" stroke-width="0.5" stroke-miterlimit="10"/>
<path d="M100.727 116.372C103.012 115.058 105.401 113.415 107.686 112.112C110.354 110.582 113.092 109.202 115.267 107.955C115.77 107.667 117.097 106.885 117.601 106.596" fill="#040F15"/>
<path d="M100.727 116.372C103.012 115.058 105.401 113.415 107.686 112.112C110.354 110.582 113.092 109.202 115.267 107.955C115.77 107.667 117.097 106.885 117.601 106.596" stroke="#040F15" stroke-width="0.5" stroke-miterlimit="10"/>
<path d="M134.063 78.0055L151.595 67.736" stroke="#040F15" stroke-width="0.5" stroke-miterlimit="10"/>
<path d="M100.892 77.4304L117.519 67.736" stroke="#040F15" stroke-width="0.5" stroke-miterlimit="10"/>
<path d="M100.892 77.4304L133.981 77.9234" stroke="#040F15" stroke-width="0.5" stroke-miterlimit="10"/>
<path d="M151.759 105.856L151.595 67.736" stroke="#040F15" stroke-width="0.5" stroke-miterlimit="10"/>
<path d="M134.145 78.9913V116.701" stroke="#040F15" stroke-width="0.5" stroke-miterlimit="10"/>
<path d="M151.595 67.736L150.936 106.678" stroke="#040F15" stroke-width="0.5" stroke-miterlimit="10"/>
<path d="M100.892 77.2661L100.727 116.373" stroke="#040F15" stroke-width="0.5" stroke-miterlimit="10"/>
<path d="M134.145 116.701L100.727 116.372" stroke="#040F15" stroke-width="0.5" stroke-miterlimit="10"/>
<path d="M117.519 106.514L117.189 67.9003" stroke="#040F15" stroke-width="0.5" stroke-miterlimit="10"/>
<path d="M151.101 106.678L117.683 106.596" stroke="#040F15" stroke-width="0.5" stroke-miterlimit="10"/>
<path d="M151.43 67.9003H117.189" stroke="#040F15" stroke-width="0.5" stroke-miterlimit="10"/>
<path d="M150.772 106.842L167.563 96.8193" stroke="#040F15" stroke-width="0.5" stroke-miterlimit="10"/>
<path d="M117.459 106.185L124.312 102.256C126.981 100.727 129.719 99.3463 131.893 98.0992C132.397 97.8117 133.724 97.0295 134.227 96.7404" fill="#040F15"/>
<path d="M117.459 106.185L124.312 102.256C126.981 100.727 129.719 99.3463 131.893 98.0992C132.397 97.8117 133.724 97.0295 134.227 96.7404" stroke="#040F15" stroke-width="0.5" stroke-miterlimit="10"/>
<path d="M151.43 67.7359L168.681 57.5354" stroke="#040F15" stroke-width="0.5" stroke-miterlimit="10"/>
<path d="M117.189 67.9003L134.145 57.8772" stroke="#040F15" stroke-width="0.5" stroke-miterlimit="10"/>
<path d="M117.189 67.9003L151.101 68.0646" stroke="#040F15" stroke-width="0.5" stroke-miterlimit="10"/>
<path d="M168.386 95.9977L168.221 57.8772" stroke="#040F15" stroke-width="0.5" stroke-miterlimit="10"/>
<path d="M151.43 67.9003L150.772 106.842" stroke="#040F15" stroke-width="0.5" stroke-miterlimit="10"/>
<path d="M168.221 57.8772L167.563 96.8193" stroke="#040F15" stroke-width="0.5" stroke-miterlimit="10"/>
<path d="M117.189 67.736V106.842" stroke="#040F15" stroke-width="0.5" stroke-miterlimit="10"/>
<path d="M150.772 106.842L117.519 106.514" stroke="#040F15" stroke-width="0.5" stroke-miterlimit="10"/>
<path d="M134.145 96.655V57.8772" stroke="#040F15" stroke-width="0.5" stroke-miterlimit="10"/>
<path d="M167.728 96.8192L134.31 96.7371" stroke="#040F15" stroke-width="0.5" stroke-miterlimit="10"/>
<path d="M168.221 57.8772L134.145 57.795" stroke="#040F15" stroke-width="0.5" stroke-miterlimit="10"/>
<path d="M99.9866 58.6166L117.189 49.3329" stroke="#040F15" stroke-width="0.5" stroke-miterlimit="10"/>
<path d="M66.7565 58.6987L73.6096 54.77C76.2781 53.2403 79.0157 51.86 81.1904 50.6129C81.6941 50.3254 83.0209 49.5432 83.5247 49.254" fill="#040F15"/>
<path d="M66.7565 58.6987L73.6096 54.77C76.2781 53.2403 79.0157 51.86 81.1904 50.6129C81.6941 50.3254 83.0209 49.5432 83.5247 49.254" stroke="#040F15" stroke-width="0.5" stroke-miterlimit="10"/>
<path d="M99.9866 20.6604L117.189 11.0481" stroke="#040F15" stroke-width="0.5" stroke-miterlimit="10"/>
<path d="M66.9804 20.2496L83.4013 10.9578" stroke="#040F15" stroke-width="0.5" stroke-miterlimit="10"/>
<path d="M66.9804 20.2496L100.069 20.6604" stroke="#040F15" stroke-width="0.5" stroke-miterlimit="10"/>
<path d="M83.3601 10.9659L117.189 11.0481" stroke="#040F15" stroke-width="0.5" stroke-miterlimit="10"/>
<path d="M116.86 49.3329L117.025 11.0481" stroke="#040F15" stroke-width="0.5" stroke-miterlimit="10"/>
<path d="M99.9883 20.6604L99.9061 58.5345" stroke="#040F15" stroke-width="0.5" stroke-miterlimit="10"/>
<path d="M117.189 11.0481V49.3329" stroke="#040F15" stroke-width="0.5" stroke-miterlimit="10"/>
<path d="M66.9804 20.2496L66.8159 58.6988" stroke="#040F15" stroke-width="0.5" stroke-miterlimit="10"/>
<path d="M100.069 58.6166L66.8159 58.6987" stroke="#040F15" stroke-width="0.5" stroke-miterlimit="10"/>
<path d="M83.7716 49.1686L83.4424 11.0481" stroke="#040F15" stroke-width="0.5" stroke-miterlimit="10"/>
<path d="M117.189 49.3329L83.7716 49.1686" stroke="#040F15" stroke-width="0.5" stroke-miterlimit="10"/>
<path d="M34.1389 58.2879L50.5186 49.1686" stroke="#040F15" stroke-width="0.5" stroke-miterlimit="10"/>
<path d="M0.908813 58.3701L7.76192 54.4414C10.4304 52.9116 13.168 51.5314 15.3344 50.2843C15.8381 49.9967 17.165 49.2146 17.6687 48.9254" fill="#040F15"/>
<path d="M0.908813 58.3701L7.76192 54.4414C10.4304 52.9116 13.168 51.5314 15.3344 50.2843C15.8381 49.9967 17.165 49.2146 17.6687 48.9254" stroke="#040F15" stroke-width="0.5" stroke-miterlimit="10"/>
<path d="M34.1389 20.3318L50.9301 10.8016" stroke="#040F15" stroke-width="0.5" stroke-miterlimit="10"/>
<path d="M1.21503 19.8389L17.5535 10.6292" stroke="#040F15" stroke-width="0.5" stroke-miterlimit="10"/>
<path d="M1.13269 19.5103L34.2212 20.414" stroke="#040F15" stroke-width="0.5" stroke-miterlimit="10"/>
<path d="M17.5123 10.6373L50.8478 10.8838" stroke="#040F15" stroke-width="0.5" stroke-miterlimit="10"/>
<path d="M50.5186 49.1686L50.8478 10.8838" stroke="#040F15" stroke-width="0.5" stroke-miterlimit="10"/>
<path d="M34.1406 20.3318L33.7274 58.2058" stroke="#040F15" stroke-width="0.5" stroke-miterlimit="10"/>
<path d="M50.7655 10.8016L50.5186 49.1686" stroke="#040F15" stroke-width="0.5" stroke-miterlimit="10"/>
<path d="M1.13269 19.7567L0.968079 58.3702" stroke="#040F15" stroke-width="0.5" stroke-miterlimit="10"/>
<path d="M33.7273 58.2058L1.13269 58.4523" stroke="#040F15" stroke-width="0.5" stroke-miterlimit="10"/>
<path d="M17.5947 49.0043V10.7195" stroke="#040F15" stroke-width="0.5" stroke-miterlimit="10"/>
<path d="M50.6831 49.1686L17.7593 48.9221" stroke="#040F15" stroke-width="0.5" stroke-miterlimit="10"/>
<path d="M66.8882 58.6724L83.7716 49.1686" stroke="#040F15" stroke-width="0.5" stroke-miterlimit="10"/>
<path d="M33.7274 58.2058C36.0205 56.9127 38.2741 55.8561 40.4768 54.5909C43.1436 53.0595 45.9652 51.768 48.148 50.5373C48.6534 50.2514 49.9852 49.4791 50.4922 49.1932" fill="#040F15"/>
<path d="M33.7274 58.2058C36.0205 56.9127 38.2741 55.8561 40.4768 54.5909C43.1436 53.0595 45.9652 51.768 48.148 50.5373C48.6534 50.2514 49.9852 49.4791 50.4922 49.1932" stroke="#040F15" stroke-width="0.5" stroke-miterlimit="10"/>
<path d="M66.9804 20.2496L83.2777 11.0481" stroke="#040F15" stroke-width="0.5" stroke-miterlimit="10"/>
<path d="M34.2212 20.414L50.6321 10.9003" stroke="#040F15" stroke-width="0.5" stroke-miterlimit="10"/>
<path d="M34.0566 20.4139L66.9805 20.2496" stroke="#040F15" stroke-width="0.5" stroke-miterlimit="10"/>
<path d="M50.5909 10.9084L83.4424 11.0481" stroke="#040F15" stroke-width="0.5" stroke-miterlimit="10"/>
<path d="M83.7716 49.3395L83.3881 10.8838" stroke="#040F15" stroke-width="0.5" stroke-miterlimit="10"/>
<path d="M66.9804 20.2496V58.6988" stroke="#040F15" stroke-width="0.5" stroke-miterlimit="10"/>
<path d="M83.4424 11.0481L83.7716 49.1686" stroke="#040F15" stroke-width="0.5" stroke-miterlimit="10"/>
<path d="M34.2212 20.9069L33.7175 59.0192" stroke="#040F15" stroke-width="0.5" stroke-miterlimit="10"/>
<path d="M66.9706 58.6724L33.7274 58.2058" stroke="#040F15" stroke-width="0.5" stroke-miterlimit="10"/>
<path d="M50.5186 49.1686L50.782 11.1549" stroke="#040F15" stroke-width="0.5" stroke-miterlimit="10"/>
<path d="M83.7717 49.1686L50.4099 49.1932" stroke="#040F15" stroke-width="0.5" stroke-miterlimit="10"/>
</svg>
