<svg width="26" height="26" viewBox="0 0 26 26" fill="none" xmlns="http://www.w3.org/2000/svg">
<path d="M0.0996106 3.16567C0.0941237 6.59338 0.0968662 10.0211 0.0968659 13.4503C0.0968657 14.826 0.0968656 16.2017 0.0968655 17.5789C0.0968656 16.2031 0.0968657 14.8274 0.0968659 13.4503C0.0968662 10.0211 0.0941237 6.59338 0.0996106 3.16567Z" fill="#F6FAFB"/>
<path d="M9.07469 15.4674C12.1515 15.4862 15.2284 15.4718 18.304 15.4761C18.5345 15.4761 18.7651 15.508 19.124 15.5355C18.8947 15.828 18.7788 15.9916 18.6492 16.1393C17.4665 17.4962 16.2739 18.8415 15.1013 20.21C14.3099 21.1325 14.2725 22.4329 14.9791 23.2583C15.6733 24.0693 16.8185 24.0273 17.5999 23.1251C19.929 20.433 22.2519 17.7366 24.5686 15.0315C25.3661 14.1004 25.3836 12.8564 24.5972 11.9369C22.2694 9.21296 19.9327 6.49917 17.5862 3.79697C16.8085 2.90202 15.6346 2.87741 14.958 3.68691C14.2563 4.52827 14.3162 5.78814 15.1225 6.73232C15.9125 7.65767 16.7238 8.5584 17.5201 9.47651C18.0298 10.0645 18.532 10.6625 19.1601 11.4011C18.7239 11.4445 18.4685 11.4909 18.213 11.4923C15.1573 11.4966 12.1017 11.5039 9.04602 11.4894C8.32946 11.4865 7.79236 11.7761 7.47831 12.5364C6.88264 13.9758 7.67521 15.4587 9.07469 15.4674Z" fill="#F6FAFB"/>
<path d="M0.102106 23.8058C0.113321 25.083 0.783773 25.8795 1.81811 25.9171C2.83874 25.9548 3.48926 25.2524 3.60391 23.981C3.62385 23.7652 3.62135 23.5466 3.62135 23.3308C3.6226 16.7882 3.6226 10.247 3.61886 3.70435C3.61886 3.31914 3.65376 2.89774 3.53288 2.55888C3.37461 2.11575 3.14406 1.64366 2.82753 1.35404C2.25678 0.831263 1.59006 0.866018 0.952012 1.28163C0.318946 1.69435 0.0983699 2.37207 0.0971237 3.16419C0.0921386 6.59191 0.0946301 10.0196 0.0946298 13.4488C0.0946297 14.8245 0.0946296 16.2002 0.0946295 17.5774C0.0971217 19.654 0.0846593 21.7292 0.102106 23.8058Z" fill="#F6FAFB"/>
</svg>
