<?xml version="1.0" encoding="utf-8"?>
<!-- Generator: Adobe Illustrator 26.0.2, SVG Export Plug-In . SVG Version: 6.00 Build 0)  -->
<svg version="1.1" xmlns="http://www.w3.org/2000/svg" xmlns:xlink="http://www.w3.org/1999/xlink" x="0px" y="0px"
	 viewBox="0 0 536.6 512.2" style="enable-background:new 0 0 536.6 512.2;" xml:space="preserve">
<style type="text/css">
	.st0{fill:none;stroke:#A6B4BF;stroke-width:0.5;stroke-miterlimit:10;}
	.st1{fill:none;}
	.st2{fill:none;stroke:#203A59;stroke-width:0.3876;stroke-miterlimit:10;}
	.st3{fill:none;stroke:#D3E4F4;stroke-width:0.2286;stroke-miterlimit:10;}
</style>
<g id="gray">
	<g>
		<path class="st0" d="M283.8,248.5c0,1.5-0.2,3-0.7,4.4l-0.6-0.2c0.4-1.4,0.7-2.8,0.7-4.2c0-7.8-6.3-14.1-14-14.1l0-0.6h0
			C277.2,233.8,283.8,240.4,283.8,248.5z M279.6,258.8c-1.1,1.1-2.4,2.1-3.8,2.8l-0.3-0.6c1.3-0.7,2.5-1.6,3.6-2.7L279.6,258.8z
			 M269.2,262.5v0.6h-0.1c-8.1,0-14.7-6.6-14.7-14.7c0-1.5,0.2-3,0.7-4.5l0.6,0.2c-0.4,1.4-0.7,2.8-0.7,4.3
			C255.1,256.2,261.4,262.5,269.2,262.5L269.2,262.5z M262.7,236c-1.3,0.7-2.5,1.6-3.6,2.6l-0.5-0.5c1.1-1.1,2.4-2.1,3.8-2.8
			L262.7,236z"/>
		<path class="st0" d="M288.1,248.5c0,10.5-8.5,19-19,19c-10.5,0-19-8.5-19-19c0-10.5,8.5-19,19-19
			C279.6,229.5,288.1,238,288.1,248.5z M252.7,248.5c0,9.1,7.4,16.4,16.4,16.4c9,0,16.4-7.4,16.4-16.4c0-9.1-7.4-16.4-16.4-16.4
			C260.1,232.1,252.7,239.4,252.7,248.5z"/>
		<path class="st0" d="M289.1,245.7l-1.3,0.2c-0.3-2.4-1.1-4.8-2.4-6.9l1.1-0.7C287.9,240.6,288.8,243.1,289.1,245.7z M287.7,256.5
			c-0.4,1-0.9,1.9-1.5,2.8l-1.1-0.7c0.5-0.8,1-1.7,1.4-2.6L287.7,256.5z M284.4,261.7c-2.4,2.8-5.5,4.9-9,6l-0.4-1.2
			c3.3-1.1,6.2-3,8.5-5.6L284.4,261.7z M282.6,233.5l-0.9,1c-2.6-2.3-5.7-3.9-9.1-4.5l0.2-1.3C276.6,229.3,279.9,231,282.6,233.5z
			 M269.8,228.3l0,1.3c-0.2,0-0.5,0-0.7,0c-0.7,0-1.5,0-2.2,0.1l-0.2-1.3c0.8-0.1,1.6-0.1,2.4-0.1
			C269.3,228.3,269.6,228.3,269.8,228.3z M269.2,267.4v1.3h-0.1c-2.7,0-5.2-0.5-7.7-1.5l0.5-1.2C264.2,267,266.6,267.4,269.2,267.4
			L269.2,267.4z M257.5,233.5c-1.9,1.5-3.6,3.4-4.8,5.5l-1.1-0.6c1.3-2.3,3-4.3,5.1-5.9L257.5,233.5z M253.9,259.8l-1,0.8
			c-0.6-0.8-1.2-1.7-1.7-2.6l1.1-0.6C252.8,258.2,253.3,259,253.9,259.8z M251.2,254.6l-1.2,0.4c-0.7-2.1-1.1-4.3-1.1-6.6
			c0-1.4,0.2-2.9,0.4-4.3l1.3,0.3c-0.3,1.3-0.4,2.6-0.4,4C250.2,250.6,250.5,252.7,251.2,254.6z"/>
		<path class="st0" d="M283.4,271.9c-2.5,1.6-5.3,2.7-8.2,3.3l-0.1-0.6c2.8-0.6,5.5-1.7,8-3.2L283.4,271.9z M269.2,275.3v0.6h-0.1
			c-15.1,0-27.4-12.3-27.4-27.4c0-9.6,4.9-18.4,13.2-23.4l0.3,0.5c-8,4.9-12.8,13.5-12.8,22.9C242.4,263.3,254.4,275.3,269.2,275.3
			L269.2,275.3z M269.1,221.7c-2,0-3.9,0.2-5.9,0.7l-0.1-0.6c2-0.4,4-0.7,6-0.7V221.7z"/>
		<path class="st0" d="M316.5,248.5c0,26.2-21.3,47.5-47.4,47.5c-26.1,0-47.4-21.3-47.4-47.5c0-26.2,21.3-47.5,47.4-47.5
			C295.2,201,316.5,222.3,316.5,248.5z M222,248.5c0,26,21.1,47.1,47.1,47.1c26,0,47.1-21.2,47.1-47.1c0-26-21.1-47.1-47.1-47.1
			C243.1,201.3,222,222.5,222,248.5z"/>
		<path class="st0" d="M321.3,248.5C321.3,248.5,321.3,248.5,321.3,248.5c0,9-2.3,18-6.8,25.8c-4.3,7.6-10.5,14-17.9,18.6l-1.3-2.1
			c14.7-9.2,23.5-25,23.5-42.4c0,0,0,0,0,0c0-8.8-2.3-17.4-6.7-25l2.1-1.2C318.9,230.2,321.3,239.3,321.3,248.5z M309.8,215.7
			l-1.9,1.5c-3.2-4-7-7.5-11.3-10.3l1.3-2C302.4,207.8,306.4,211.5,309.8,215.7z M293.8,202.4l-1.1,2.1c-7.2-3.9-15.3-5.9-23.5-5.9
			c-17.7,0-34.3,9.6-43.2,25l-2.1-1.2c4.5-7.8,11-14.4,18.8-19c8-4.7,17.2-7.2,26.5-7.2C277.7,196.2,286.2,198.3,293.8,202.4z
			 M292.5,295.3c-4.8,2.4-9.9,4.1-15.3,4.9l-0.4-2.4c5.1-0.8,10-2.4,14.5-4.7L292.5,295.3z M269.2,298.4v2.4l-0.1,0
			c-13.7,0-26.6-5.2-36.4-14.8c-9.8-9.5-15.4-22.3-15.8-35.9l2.4-0.1c0.8,27.1,22.7,48.3,49.8,48.3H269.2z M222.6,230.5
			c-1.8,4.8-2.9,9.8-3.2,14.9l-2.4-0.1c0.3-5.4,1.5-10.7,3.4-15.7L222.6,230.5z"/>
		<path class="st0" d="M316.4,248.5c0,10.8-3.5,21-10.3,29.5l-1.3-1c6.5-8.2,9.9-18,9.9-28.5c0-8.1-2.1-16-6.1-22.9l1.4-0.8
			C314.2,231.9,316.4,240.1,316.4,248.5z M306,218.9l-1.3,1c-5.8-7.2-13.5-12.5-22.3-15.2l0.5-1.5C292.1,206,300.1,211.4,306,218.9z
			 M301.3,283.2c-7,6.5-15.7,10.7-25.1,12.2l-0.2-1.6c9.1-1.4,17.5-5.4,24.2-11.8L301.3,283.2z M276.1,201.6l-0.2,1.6
			c-2.2-0.3-4.5-0.5-6.8-0.5c-16.3,0-31.5,8.8-39.6,22.9l-1.4-0.8c8.4-14.6,24.1-23.7,41-23.7C271.4,201.1,273.8,201.3,276.1,201.6z
			 M269.2,294.2l0,1.6l-0.1,0c-9.7,0-19-2.9-26.9-8.4c-7.8-5.4-13.7-12.9-17.1-21.6l1.5-0.6c6.9,17.6,23.6,29,42.5,29H269.2z
			 M226.5,231.8c-2.1,5.3-3.1,10.9-3.1,16.7v0c0,3.4,0.4,6.9,1.1,10.2l-1.6,0.4c-0.8-3.4-1.2-7-1.2-10.6v0c0-6,1.1-11.8,3.2-17.3
			L226.5,231.8z"/>
		<path class="st0" d="M308.5,248.5c0,21.7-17.7,39.4-39.4,39.4c-21.7,0-39.4-17.7-39.4-39.4c0-21.7,17.7-39.4,39.4-39.4
			C290.8,209.1,308.5,226.8,308.5,248.5z M229.9,248.5c0,21.6,17.6,39.3,39.2,39.3c21.6,0,39.2-17.6,39.2-39.3s-17.6-39.3-39.2-39.3
			C247.5,209.2,229.9,226.8,229.9,248.5z"/>
		<path class="st0" d="M305.6,248.5c0,20.2-16.4,36.5-36.5,36.5c-20.1,0-36.5-16.4-36.5-36.5c0-20.2,16.4-36.5,36.5-36.5
			C289.2,211.9,305.6,228.3,305.6,248.5z M232.8,248.5c0,20.1,16.3,36.4,36.3,36.4s36.3-16.3,36.3-36.4c0-20.1-16.3-36.4-36.3-36.4
			C249.1,212.1,232.8,228.4,232.8,248.5z"/>
		<path class="st0" d="M308.5,248.5c0,8.5-2.6,16.5-7.6,23.3l-2.5-1.8c4.6-6.3,7-13.7,7-21.5c0-20.1-16.3-36.4-36.3-36.4H269V209
			h0.1C290.8,209,308.5,226.7,308.5,248.5z M293.3,279.6c-5.2,4-11.3,6.7-17.7,7.8l-0.5-3c5.9-1,11.6-3.5,16.3-7.2L293.3,279.6z"/>
		<path class="st0" d="M307.6,248.5c0,21.2-17.3,38.5-38.5,38.5c-21.2,0-38.5-17.3-38.5-38.5c0-21.2,17.3-38.5,38.5-38.5
			S307.6,227.3,307.6,248.5z M231,248.5c0,21.1,17.1,38.2,38.1,38.2c21,0,38.1-17.1,38.1-38.2c0-21.1-17.1-38.2-38.1-38.2
			C248.1,210.3,231,227.4,231,248.5z"/>
		<path class="st0" d="M308.7,248.5c0,21.9-17.8,39.6-39.6,39.6c-21.8,0-39.6-17.8-39.6-39.6c0-21.9,17.8-39.6,39.6-39.6
			S308.7,226.6,308.7,248.5z M229.8,248.5c0,21.7,17.6,39.3,39.3,39.3c21.7,0,39.3-17.6,39.3-39.3c0-21.7-17.6-39.3-39.3-39.3
			C247.4,209.2,229.8,226.8,229.8,248.5z"/>
		<path class="st0" d="M305.6,248.5c0,20.2-16.4,36.6-36.5,36.6c-20.1,0-36.5-16.4-36.5-36.6c0-20.2,16.4-36.6,36.5-36.6
			C289.2,211.9,305.6,228.3,305.6,248.5z M232.9,248.5c0,20,16.2,36.2,36.2,36.2c20,0,36.2-16.3,36.2-36.2c0-20-16.2-36.2-36.2-36.2
			S232.9,228.5,232.9,248.5z"/>
		<path class="st0" d="M306.6,248.5c0,20.7-16.8,37.5-37.5,37.5s-37.5-16.8-37.5-37.5c0-20.7,16.8-37.5,37.5-37.5
			C289.8,211,306.6,227.8,306.6,248.5z M231.9,248.5c0,20.5,16.7,37.2,37.2,37.2c20.5,0,37.2-16.7,37.2-37.2
			c0-20.5-16.7-37.2-37.2-37.2S231.9,228,231.9,248.5z"/>
		<path class="st0" d="M336,248.5c0,37-30,67-66.9,67c-36.9,0-66.9-30.1-66.9-67c0-37,30-67,66.9-67C306,181.5,336,211.5,336,248.5z
			 M202.8,248.5c0,36.6,29.7,66.4,66.3,66.4c36.6,0,66.3-29.8,66.3-66.4c0-36.6-29.7-66.4-66.3-66.4
			C232.5,182.1,202.8,211.9,202.8,248.5z"/>
		<path class="st0" d="M341,248.5c0,19.2-7.5,37.3-21.1,50.9c-13.6,13.6-31.7,21.1-50.9,21.1c-19.2,0-37.3-7.5-50.9-21.1
			c-13.6-13.6-21.1-31.7-21.1-50.9c0-19.2,7.5-37.3,21.1-50.9c13.6-13.6,31.7-21.1,50.9-21.1c19.2,0,37.3,7.5,50.9,21.1
			C333.6,211.2,341,229.3,341,248.5z M197.8,248.5c0,39.4,32,71.4,71.3,71.4c39.3,0,71.3-32,71.3-71.4c0-39.4-32-71.4-71.3-71.4
			C229.8,177.1,197.8,209.1,197.8,248.5z"/>
		<path class="st0" d="M343.4,248.5c0,19.9-7.7,38.6-21.8,52.6c-14,14.1-32.7,21.8-52.6,21.8c-19.9,0-38.5-7.7-52.6-21.8
			c-14-14.1-21.8-32.8-21.8-52.6c0-19.9,7.7-38.6,21.8-52.6c14-14.1,32.7-21.8,52.6-21.8c19.9,0,38.5,7.7,52.6,21.8
			C335.7,209.9,343.4,228.6,343.4,248.5z M195.4,248.5c0,40.7,33.1,73.8,73.7,73.8c40.6,0,73.7-33.1,73.7-73.8s-33.1-73.8-73.7-73.8
			C228.5,174.7,195.4,207.8,195.4,248.5z"/>
		<path class="st0" d="M234.5,164c-3.8,1.6-7.5,3.4-11.1,5.5l-2.2-3.8c3.7-2.2,7.6-4.1,11.6-5.7L234.5,164z M220.4,171.3
			c-3.5,2.2-6.8,4.7-10,7.3l-2.9-3.4c3.3-2.8,6.8-5.4,10.5-7.7L220.4,171.3z M207.8,181c-3,2.8-5.9,5.8-8.6,8.9l-3.4-2.9
			c2.8-3.3,5.8-6.5,9-9.4L207.8,181z M197,192.6c-2.5,3.3-4.8,6.7-6.9,10.3l-3.8-2.2c2.2-3.7,4.6-7.4,7.2-10.8L197,192.6z
			 M188.4,206c-1.9,3.6-3.6,7.5-5,11.3l-4.2-1.5c1.5-4.1,3.2-8,5.3-11.9L188.4,206z M182.3,220.7c-1.3,3.9-2.2,8-3,12l-4.4-0.8
			c0.7-4.3,1.8-8.5,3.1-12.6L182.3,220.7z M179.3,264.4l-4.4,0.8c-0.7-4.2-1.2-8.6-1.4-12.9l4.4-0.2
			C178.2,256.2,178.6,260.3,179.3,264.4z M178.8,236.2c-0.5,4-0.8,8.2-0.8,12.3v0h-4.4v0c0-4.3,0.3-8.7,0.9-12.9L178.8,236.2z"/>
		<path class="st0" d="M248.4,159.5c-4,1-7.9,2.3-11.8,3.8l-1.6-4.1c4-1.6,8.2-2.9,12.3-4L248.4,159.5z"/>
		<path class="st0" d="M303.5,160.3l0.2,0.1c48.5,19.1,72.4,74.2,53.3,122.8c-5.9,15-15.6,28.4-28,38.5l1.9,2.3
			c12.8-10.5,22.8-24.2,28.9-39.7c9.5-24.3,9.1-50.8-1.3-74.7c-10.4-23.9-29.5-42.3-53.7-51.9l-0.2-0.1L303.5,160.3z"/>
		<path class="st0" d="M185.1,291.9c0,0.1-1.8,1.1-2.7,1.5c2.7,5.2,5.8,10.2,9.4,14.8c10.7,13.9,25,24.7,41.4,31.1
			c15.8,6.2,32.9,8.2,49.6,5.8c16.2-2.3,31.6-8.8,44.7-18.6l-1.8-2.3c-26.5,19.9-60.7,24.6-91.5,12.4
			C212.8,328.1,195.5,311.9,185.1,291.9z"/>
		<path class="st0" d="M309.8,310.8c-2.5,1.6-5.1,3.2-7.8,4.5l-5.4-10.9c2.2-1.1,4.5-2.4,6.6-3.8L309.8,310.8z M207.1,243.4
			c-0.1,1.7-0.2,3.4-0.2,5l0,0.1l-12.2,0v-0.2c0-2,0.1-4,0.2-6L207.1,243.4z"/>
		<path class="st0" d="M362.8,227.9l-4.3,1c-10.8-49.2-59.6-80.6-108.8-69.8l-0.1,0l-0.9-4.4l0.1,0c25-5.5,50.6-0.8,72.2,13
			C342.4,181.5,357.3,202.9,362.8,227.9z M289.7,342.3l-0.2,0c-25,5.5-50.7,0.8-72.2-13c-21.6-13.8-36.4-35.3-41.9-60.3l4.4-1
			c10.8,49.3,59.6,80.7,108.8,69.9l0.2,0L289.7,342.3z"/>
		<path class="st0" d="M269.2,305.8l0,1.9h-0.1c-14.8,0-28.9-5.5-39.8-15.4l1.3-1.4c10.6,9.6,24.2,14.9,38.5,14.9L269.2,305.8z
			 M238.9,199.8c-12.2,7.6-21,19.3-24.9,33l-1.8-0.5c4-14.2,13.1-26.3,25.7-34.1L238.9,199.8z M223.5,283l-1.5,1.1
			c-7.8-10.3-11.9-22.7-11.9-35.7c0-1.8,0.1-3.6,0.2-5.4l1.9,0.2c-0.2,1.7-0.2,3.5-0.2,5.3C211.9,261.1,215.9,273,223.5,283z"/>
		<path class="st0" d="M338.5,248.5c0,18.6-7.2,36-20.3,49.1c-13.1,13.1-30.5,20.3-49.1,20.3c-18.5,0-36-7.2-49.1-20.3
			c-13.1-13.1-20.3-30.6-20.3-49.1c0-18.6,7.2-36,20.3-49.1c13.1-13.1,30.5-20.3,49.1-20.3c18.5,0,36,7.2,49.1,20.3
			C331.3,212.5,338.5,229.9,338.5,248.5z M200.4,248.5c0,37.9,30.8,68.8,68.7,68.8c37.9,0,68.7-30.9,68.7-68.8
			c0-37.9-30.8-68.8-68.7-68.8C231.2,179.7,200.4,210.5,200.4,248.5z"/>
		<path class="st0" d="M291.7,177.9l-3.6,11.4c-1.1-0.4-2.2-0.7-3.4-1l3-11.6C289,177.1,290.4,177.5,291.7,177.9z M277.4,174.8
			l-1.3,11.9c-2.3-0.3-4.6-0.4-6.9-0.4H269v-12l0.1,0C271.9,174.4,274.6,174.5,277.4,174.8z M269.3,310.7v12h-0.2
			c-2.8,0-5.6-0.2-8.4-0.5l1.3-11.9c2.3,0.3,4.7,0.4,7,0.4L269.3,310.7z M253.5,308.7l-3,11.6c-1.3-0.4-2.7-0.7-4-1.2l3.7-11.4
			C251.2,308,252.3,308.4,253.5,308.7z"/>
		<path class="st0" d="M382,249.1L382,249.1c0,15.1-3,29.8-8.8,43.6c-5.6,13.4-13.7,25.3-24,35.6c-7.3,7.3-15.6,13.6-24.6,18.6
			l-0.2,0.1L314.3,329l0.2-0.1c7.3-4.1,14.1-9.2,20-15.2c17.2-17.2,26.7-40.2,26.7-64.5v-0.3l20.8-0.1L382,249.1z M324.6,346.5
			c8.9-5,17.1-11.2,24.3-18.5c10.2-10.2,18.3-22.2,23.9-35.5c5.8-13.7,8.8-28.3,8.8-43.4l-19.9,0.1c0,24.4-9.6,47.4-26.8,64.7
			c-5.9,5.9-12.6,11-19.9,15.2L324.6,346.5z M377.3,216.7l-19.9,6.1l-0.1-0.2c-3.9-12.8-10.7-24.8-19.8-34.8l-0.2-0.2l15.4-14
			l0.2,0.2c11.1,12.2,19.5,27,24.3,42.8L377.3,216.7z M357.7,222.1l19-5.8c-4.8-15.5-13-30.1-24-42.2L338,187.6
			C347,197.5,353.8,209.4,357.7,222.1z M327.6,152.9l-10.7,17.9l-0.2-0.1c-14.1-8.4-30.2-12.9-46.7-12.9c-16.1,0-31.8,4.2-45.6,12.2
			l-0.2,0.1l-10.4-18l0.2-0.1c17-9.8,36.4-15,56.1-15c20.2,0,40.1,5.5,57.4,15.8L327.6,152.9z M316.8,170.2l10.2-17.1
			c-17.2-10.2-36.8-15.6-56.9-15.6c-19.6,0-38.8,5.1-55.6,14.9l10,17.2c13.8-8,29.6-12.2,45.7-12.2
			C286.5,157.4,302.7,161.8,316.8,170.2z M294,358.7l-0.2,0c-7.8,1.7-15.8,2.5-23.8,2.5c-8.6,0-17.1-1-25.4-2.9l-0.2-0.1l4.7-20.3
			l0.2,0.1c6.7,1.6,13.7,2.4,20.7,2.4c6.5,0,13.1-0.7,19.4-2.1l0.2,0L294,358.7z M245,358c8.2,1.9,16.6,2.8,25,2.8
			c7.9,0,15.8-0.8,23.5-2.5l-4.2-19.4c-6.3,1.3-12.8,2-19.3,2c-6.9,0-13.8-0.8-20.5-2.3L245,358z M224.7,328.3l-10.4,18l-0.2-0.1
			c-8.5-4.9-16.3-10.9-23.2-17.8c-10.3-10.3-18.4-22.3-24-35.6c-5.8-13.8-8.8-28.5-8.8-43.6c0-0.5,0-1.1,0-1.6l0-0.2l20.8,0.3l0,0.2
			c0,0.4,0,0.9,0,1.3c0,24.4,9.5,47.3,26.7,64.5c5.6,5.7,12,10.5,18.9,14.5L224.7,328.3z M214.1,345.7l9.9-17.2
			c-6.9-4-13.2-8.9-18.8-14.5c-17.3-17.3-26.8-40.4-26.8-64.9c0,0,0,0,0,0c0-0.4,0-0.7,0-1.1l-19.9-0.3c-0.2,15.5,2.8,30.6,8.8,44.8
			c5.6,13.3,13.7,25.2,23.9,35.5C198,334.9,205.7,340.9,214.1,345.7z M203.6,186.6l-0.2,0.2c-9.2,9.8-16.2,21.8-20.3,34.5l-0.1,0.2
			l-19.8-6.3l0.1-0.2c5-15.7,13.6-30.3,24.9-42.4l0.2-0.2L203.6,186.6z M182.8,221c4.1-12.7,11-24.5,20.1-34.3l-14.5-13.6
			c-11.1,11.9-19.6,26.4-24.6,41.9L182.8,221z"/>
		<path class="st0" d="M360.7,370c-11.5,8.7-24.2,15.6-37.7,20.7l-26.9-72c6.6-2.5,12.8-5.9,18.4-10.1L360.7,370z M420.5,259.8
			l-76.6-5.3c1.5-21.4-6.3-42.4-21.5-57.6l-0.1-0.1l54.3-54.3l0.1,0.1C407.6,173.4,423.5,216.2,420.5,259.8z M163.6,356.2l-0.2-0.2
			c-30.9-31-46.9-73.8-43.8-117.5l76.6,5.4c-1.5,21.4,6.3,42.5,21.5,57.6l0.2,0.2L163.6,356.2z M244.1,179.8
			c-6.6,2.5-12.8,5.9-18.4,10.1l-46.1-61.4c11.5-8.7,24.2-15.6,37.7-20.7L244.1,179.8z"/>
		<path class="st0" d="M373.2,210.7l-0.1,0l-52.5,19.7l0-0.1c-1.8-4.8-4.3-9.3-7.3-13.4l-0.1-0.1l0.1-0.1L358,183l0.1,0.1
			c6.3,8.4,11.4,17.7,15.1,27.5L373.2,210.7z M320.7,230.1l52.2-19.6c-3.7-9.8-8.7-18.9-14.9-27.3l-44.5,33.6
			C316.4,220.9,318.9,225.4,320.7,230.1z M348.1,326.9l-0.3,0.3c-22.6,22.6-53.8,34.3-85.6,32l-0.1,0l0-0.1l4-56l0.1,0
			c15.6,1.1,30.8-4.6,41.9-15.6l0.2-0.2L348.1,326.9z M262.4,358.9c31.7,2.2,62.8-9.4,85.3-31.9l0.1-0.1l-39.5-39.4l0,0
			c-11.1,11.1-26.3,16.8-42,15.7L262.4,358.9z M277.9,139.4l0,0.1l-3.9,56l-0.1,0c-15.6-1.1-30.8,4.6-41.9,15.7l-0.1,0.1l-39.7-39.8
			l0.2-0.2c22.5-22.6,53.7-34.2,85.5-32L277.9,139.4z M273.7,195.2l3.9-55.6c-31.7-2.2-62.7,9.5-85.2,31.9l39.4,39.4
			C242.9,199.9,258.1,194.2,273.7,195.2z M227,281.7l-44.9,33.8l-0.1-0.1c-6.3-8.4-11.4-17.7-15.1-27.5l0-0.1l0.1,0l52.5-19.6l0,0.1
			C221.4,273,223.9,277.5,227,281.7L227,281.7z M182.1,315.2l44.5-33.5c-3-4.1-5.5-8.5-7.3-13.3l-52.2,19.5
			C170.9,297.6,175.9,306.8,182.1,315.2z"/>
		<path class="st0" d="M410.4,249.3C410.4,249.3,410.4,249.3,410.4,249.3c0,25.4-6.8,50.2-19.7,71.9l-0.9-0.5
			c12.8-21.5,19.6-46.2,19.6-71.3c0-24.6-6.5-48.8-18.8-70l0.9-0.5C403.9,200.1,410.4,224.5,410.4,249.3z M365.8,146.5l-0.7,0.7
			c-15-14-33.3-24.8-52.8-31l0.3-1C332.3,121.6,350.7,132.4,365.8,146.5z M364.6,353.1c-15.3,14-33.8,24.5-53.5,30.6l-0.3-1
			c19.6-6,37.9-16.5,53.1-30.4L364.6,353.1z M272,108.7l0,1c-0.6,0-1.3,0-1.9,0c-49.7,0-95.9,26.8-120.8,69.9l-0.9-0.5
			c12.1-21,29.6-38.6,50.4-51c21.5-12.7,46.1-19.4,71.2-19.4C270.7,108.7,271.3,108.7,272,108.7z M270.4,389.8H270
			c-25.4,0-50.4-6.9-72.1-19.9c-21.1-12.6-38.6-30.7-50.6-52.1l0.9-0.5c24.7,44.1,71.3,71.5,121.7,71.5h0.3V389.8z M134.2,217.7
			c-2.4,10.3-3.6,20.9-3.6,31.5c0,0,0,0,0,0c0,10,1.1,20,3.2,29.7l-1,0.2c-2.1-9.8-3.2-19.8-3.2-29.9c0,0,0,0,0,0
			c0-10.7,1.2-21.4,3.6-31.8L134.2,217.7z"/>
		<g>
			<path class="st0" d="M276.5,259.2c-1.2,0.7-2.4,1.2-3.8,1.5l-0.1-0.3c1.3-0.3,2.6-0.8,3.7-1.5L276.5,259.2z M269.9,260.7v0.3h0
				c-7,0-12.7-5.7-12.7-12.7c0-4.5,2.3-8.5,6.1-10.8l0.2,0.3c-3.7,2.3-5.9,6.2-5.9,10.6C257.5,255.2,263.1,260.7,269.9,260.7
				L269.9,260.7z M269.9,236c-0.9,0-1.8,0.1-2.7,0.3l-0.1-0.3c0.9-0.2,1.8-0.3,2.8-0.3V236z"/>
			<path class="st0" d="M291.8,248.3c0,12.1-9.8,21.9-21.9,21.9c-12.1,0-21.9-9.8-21.9-21.9c0-12.1,9.8-21.9,21.9-21.9
				C282,226.4,291.8,236.2,291.8,248.3z M248.1,248.3c0,12,9.8,21.8,21.8,21.8c12,0,21.8-9.8,21.8-21.8c0-12-9.8-21.8-21.8-21.8
				C257.9,226.5,248.1,236.3,248.1,248.3z"/>
			<path class="st0" d="M294,248.3C294,248.3,294,248.3,294,248.3c0,4.2-1.1,8.3-3.1,11.9c-2,3.5-4.8,6.5-8.3,8.6l-0.6-1
				c6.8-4.2,10.9-11.6,10.9-19.6v0c0-4.1-1.1-8.1-3.1-11.6l1-0.6C292.9,239.9,294,244.1,294,248.3z M288.7,233.2l-0.9,0.7
				c-1.5-1.8-3.2-3.4-5.2-4.8l0.6-0.9C285.3,229.5,287.1,231.2,288.7,233.2z M281.3,227l-0.5,1c-3.3-1.8-7.1-2.7-10.9-2.7
				c-8.2,0-15.8,4.4-20,11.5l-1-0.6c2.1-3.6,5.1-6.6,8.7-8.8c3.7-2.2,7.9-3.3,12.3-3.3C273.9,224.2,277.8,225.2,281.3,227z
				 M280.7,270c-2.2,1.1-4.6,1.9-7.1,2.3l-0.2-1.1c2.3-0.4,4.6-1.1,6.7-2.2L280.7,270z M269.9,271.4l0,1.1h-0.1
				c-6.3,0-12.3-2.4-16.8-6.8c-4.5-4.4-7.1-10.3-7.3-16.6l1.1,0C247.3,261.6,257.4,271.4,269.9,271.4L269.9,271.4z M248.4,240
				c-0.9,2.2-1.4,4.5-1.5,6.9l-1.1-0.1c0.1-2.5,0.7-4.9,1.6-7.2L248.4,240z"/>
			<path class="st0" d="M291.8,248.3c0,5-1.6,9.7-4.7,13.6l-0.6-0.5c3-3.8,4.6-8.3,4.6-13.2c0-3.7-1-7.4-2.8-10.6l0.6-0.4
				C290.7,240.7,291.8,244.5,291.8,248.3z M287,234.7l-0.6,0.5c-2.7-3.3-6.2-5.8-10.3-7l0.2-0.7C280.5,228.7,284.2,231.2,287,234.7z
				 M284.8,264.4c-3.2,3-7.2,5-11.6,5.6l-0.1-0.7c4.2-0.6,8.1-2.5,11.2-5.4L284.8,264.4z M273.1,226.7l-0.1,0.7
				c-1-0.2-2.1-0.2-3.1-0.2c-7.5,0-14.5,4.1-18.3,10.6l-0.6-0.4c3.9-6.8,11.2-11,19-11C271,226.4,272.1,226.5,273.1,226.7z
				 M269.9,269.5v0.7h0c-4.5,0-8.8-1.3-12.5-3.9c-3.6-2.5-6.3-5.9-7.9-10l0.7-0.3C253.4,264.2,261.1,269.5,269.9,269.5L269.9,269.5z
				 M250.2,240.6c-1,2.5-1.4,5.1-1.5,7.7c0,0,0,0,0,0c0,1.6,0.2,3.2,0.5,4.7l-0.7,0.2c-0.4-1.6-0.5-3.2-0.5-4.9c0,0,0,0,0,0
				c0-2.8,0.5-5.4,1.5-8L250.2,240.6z"/>
			<path class="st0" d="M288.1,248.3c0,3.9-1.2,7.6-3.5,10.8l-1.1-0.8c2.1-2.9,3.3-6.3,3.3-10c0-9.3-7.5-16.8-16.8-16.8h0l0-1.4l0,0
				C279.9,230.1,288.1,238.3,288.1,248.3z M281.1,262.7c-2.4,1.9-5.2,3.1-8.2,3.6l-0.2-1.4c2.7-0.5,5.3-1.6,7.5-3.3L281.1,262.7z"/>
			<path class="st0" d="M253.9,209.3c-1.8,0.7-3.5,1.6-5.1,2.5l-1-1.8c1.7-1,3.5-1.9,5.4-2.6L253.9,209.3z M247.4,212.7
				c-1.6,1-3.2,2.2-4.6,3.4l-1.3-1.6c1.5-1.3,3.2-2.5,4.8-3.5L247.4,212.7z M241.6,217.1c-1.4,1.3-2.7,2.7-4,4.1l-1.6-1.3
				c1.3-1.5,2.7-3,4.2-4.3L241.6,217.1z M236.6,222.5c-1.2,1.5-2.2,3.1-3.2,4.7l-1.8-1c1-1.7,2.1-3.4,3.3-5L236.6,222.5z
				 M232.6,228.7c-0.9,1.7-1.7,3.4-2.3,5.2l-1.9-0.7c0.7-1.9,1.5-3.7,2.4-5.5L232.6,228.7z M229.7,235.5c-0.6,1.8-1,3.7-1.4,5.6
				l-2-0.4c0.3-2,0.8-3.9,1.4-5.8L229.7,235.5z M228.4,255.7l-2,0.4c-0.3-2-0.6-4-0.6-6l2-0.1C227.9,251.9,228.1,253.8,228.4,255.7z
				 M228.1,242.7c-0.3,1.9-0.4,3.8-0.4,5.7l0,0l-2.1,0v0c0-2,0.1-4,0.4-6L228.1,242.7z"/>
			<path class="st0" d="M260.3,207.2c-1.8,0.5-3.7,1.1-5.4,1.8l-0.8-1.9c1.9-0.7,3.8-1.4,5.7-1.8L260.3,207.2z"/>
			<path class="st0" d="M285.8,207.6L285.8,207.6c22.5,8.9,33.6,34.3,24.7,56.8c-2.7,7-7.2,13.1-13,17.8l0.9,1
				c5.9-4.8,10.5-11.2,13.4-18.4c4.4-11.2,4.2-23.5-0.6-34.5c-4.8-11.1-13.6-19.6-24.8-24l-0.1,0L285.8,207.6z"/>
			<path class="st0" d="M231.1,268.4c0,0-0.9,0.5-1.2,0.7c1.2,2.4,2.7,4.7,4.4,6.9c5,6.4,11.6,11.4,19.2,14.4
				c7.3,2.9,15.2,3.8,22.9,2.7c7.5-1.1,14.6-4.1,20.7-8.6l-0.8-1.1c-12.3,9.2-28.1,11.4-42.3,5.7
				C243.9,285.1,235.9,277.6,231.1,268.4z"/>
			<path class="st0" d="M288.7,277.1c-1.2,0.8-2.4,1.5-3.6,2.1l-2.5-5.1c1-0.5,2.1-1.1,3-1.7L288.7,277.1z M241.3,246
				c-0.1,0.8-0.1,1.6-0.1,2.3v0.1l-5.6,0l0-0.1c0-0.9,0-1.9,0.1-2.8L241.3,246z"/>
			<path class="st0" d="M313.2,238.8l-2,0.4c-5-22.8-27.6-37.2-50.3-32.3l0,0l-0.4-2l0,0c11.6-2.5,23.4-0.4,33.4,6
				C303.8,217.4,310.7,227.3,313.2,238.8z M279.4,291.7l-0.1,0c-11.6,2.5-23.4,0.4-33.4-6c-10-6.4-16.8-16.3-19.4-27.9l2-0.4
				c5,22.8,27.5,37.3,50.3,32.3l0.1,0L279.4,291.7z"/>
			<path class="st0" d="M269.9,274.8v0.9l-0.1,0c-6.8,0-13.4-2.5-18.4-7.1l0.6-0.6C257,272.4,263.3,274.8,269.9,274.8L269.9,274.8z
				 M255.9,225.8c-5.6,3.5-9.7,8.9-11.5,15.3l-0.8-0.2c1.9-6.6,6.1-12.2,11.9-15.8L255.9,225.8z M248.8,264.3l-0.7,0.5
				c-3.6-4.8-5.5-10.5-5.5-16.5c0-0.8,0-1.7,0.1-2.5l0.9,0.1c-0.1,0.8-0.1,1.6-0.1,2.4C243.4,254.2,245.3,259.7,248.8,264.3z"/>
			<path class="st0" d="M280.3,215.7l-1.7,5.3c-0.5-0.2-1-0.3-1.6-0.5l1.4-5.4C279.1,215.3,279.7,215.5,280.3,215.7z M273.7,214.3
				l-0.6,5.5c-1.1-0.1-2.1-0.2-3.2-0.2h0v-5.5h0C271.2,214.1,272.5,214.2,273.7,214.3z M270,277.1l0,5.5h-0.1
				c-1.3,0-2.6-0.1-3.9-0.2l0.6-5.5C267.7,277,268.8,277.1,270,277.1L270,277.1z M262.7,276.2l-1.4,5.4c-0.6-0.2-1.2-0.3-1.9-0.5
				l1.7-5.3C261.6,275.9,262.1,276,262.7,276.2z"/>
			<path class="st0" d="M288.1,248.3c0,3.9-1.2,7.7-3.5,10.8l-1.2-0.9c2.1-2.9,3.2-6.3,3.2-9.9c0-9.3-7.5-16.8-16.8-16.8h0l0-1.5h0
				C280,230.1,288.1,238.3,288.1,248.3z M281.1,262.8c-2.4,1.9-5.2,3.1-8.2,3.6l-0.2-1.5c2.7-0.5,5.3-1.6,7.5-3.3L281.1,262.8z"/>
		</g>
		<path class="st0" d="M322.1,248.6L322.1,248.6c0,7-1.4,13.8-4.1,20.2c-2.6,6.2-6.3,11.7-11.1,16.5c-3.4,3.4-7.2,6.3-11.4,8.6
			l-0.1,0.1l-4.7-8.4l0.1-0.1c3.4-1.9,6.5-4.3,9.3-7c8-8,12.3-18.6,12.3-29.8l0-0.1l9.6,0L322.1,248.6z M295.5,293.7
			c4.1-2.3,7.9-5.2,11.2-8.5c4.7-4.7,8.5-10.3,11-16.4c2.7-6.4,4-13.1,4.1-20l-9.2,0c0,11.3-4.4,21.9-12.4,29.9
			c-2.7,2.7-5.8,5.1-9.2,7L295.5,293.7z M319.9,233.6l-9.2,2.8l0-0.1c-1.8-5.9-5-11.5-9.2-16.1l-0.1-0.1l7.1-6.5l0.1,0.1
			c5.1,5.7,9,12.5,11.2,19.8L319.9,233.6z M310.8,236.2l8.8-2.7c-2.2-7.2-6-13.9-11.1-19.5l-6.8,6.2
			C305.9,224.8,309,230.3,310.8,236.2z M296.9,204.2l-4.9,8.3l-0.1-0.1c-6.5-3.9-14-5.9-21.6-5.9c-7.4,0-14.7,2-21.1,5.7l-0.1,0.1
			l-4.8-8.3l0.1-0.1c7.8-4.6,16.8-7,25.9-7C279.7,196.8,288.8,199.3,296.9,204.2L296.9,204.2z M291.9,212.1l4.7-7.9
			c-7.9-4.7-17-7.2-26.3-7.2c-9,0-17.9,2.4-25.7,6.9l4.6,8c6.4-3.7,13.7-5.6,21.1-5.6C277.9,206.2,285.4,208.3,291.9,212.1z
			 M281.4,299.3l-0.1,0c-3.6,0.8-7.3,1.2-11,1.2c-4,0-7.9-0.4-11.7-1.3l-0.1,0l2.2-9.4l0.1,0c3.1,0.7,6.3,1.1,9.5,1.1c3,0,6-0.3,9-1
			l0.1,0L281.4,299.3z M258.8,298.9c3.8,0.9,7.7,1.3,11.6,1.3c3.7,0,7.3-0.4,10.8-1.1l-1.9-9c-2.9,0.6-5.9,0.9-8.9,0.9
			c-3.2,0-6.4-0.4-9.5-1.1L258.8,298.9z M249.3,285.3l-4.8,8.3l-0.1-0.1c-3.9-2.3-7.5-5-10.7-8.3c-4.8-4.8-8.5-10.3-11.1-16.5
			c-2.7-6.4-4.1-13.2-4.1-20.2c0-0.2,0-0.5,0-0.7l0-0.1l9.6,0.1l0,0.1c0,0.2,0,0.4,0,0.6c0,11.3,4.4,21.9,12.3,29.8
			C243.1,281.1,246.1,283.4,249.3,285.3L249.3,285.3z M244.5,293.3l4.6-8c-3.2-1.8-6.1-4.1-8.7-6.7c-8-8-12.4-18.7-12.4-30l0,0
			c0-0.2,0-0.3,0-0.5l-9.2-0.1c-0.1,7.2,1.3,14.2,4,20.7c2.6,6.1,6.3,11.7,11,16.4C237,288.3,240.6,291.1,244.5,293.3z M239.6,219.8
			L239.6,219.8c-4.3,4.6-7.6,10.1-9.4,16l0,0.1L221,233l0-0.1c2.3-7.2,6.3-14,11.5-19.6l0.1-0.1L239.6,219.8z M230,235.6
			c1.9-5.9,5.1-11.3,9.3-15.9l-6.7-6.3c-5.1,5.5-9.1,12.2-11.3,19.3L230,235.6z"/>
		<path class="st0" d="M335.2,248.7L335.2,248.7c0,11.7-3.2,23.2-9.1,33.2l-0.4-0.2c5.9-9.9,9-21.3,9-33c0-11.4-3-22.6-8.7-32.3
			l0.4-0.2C332.2,226,335.2,237.2,335.2,248.7z M314.6,201.2l-0.3,0.3c-6.9-6.5-15.4-11.4-24.4-14.3l0.1-0.4
			C299.1,189.7,307.6,194.7,314.6,201.2z M314.1,296.7c-7.1,6.5-15.6,11.3-24.7,14.1l-0.1-0.4c9-2.8,17.5-7.6,24.6-14L314.1,296.7z
			 M271.2,183.7l0,0.5c-0.3,0-0.6,0-0.9,0c-23,0-44.3,12.4-55.8,32.3l-0.4-0.2c5.6-9.7,13.7-17.9,23.3-23.6c9.9-5.9,21.3-9,32.9-9
			C270.6,183.7,270.9,183.7,271.2,183.7z M270.5,313.7h-0.1c-11.8,0-23.3-3.2-33.3-9.2c-9.7-5.8-17.8-14.2-23.4-24.1l0.4-0.2
			c11.4,20.4,33,33.1,56.3,33.1l0.1,0V313.7z M207.5,234.1c-1.1,4.8-1.7,9.7-1.7,14.6c0,0,0,0,0,0c0,4.6,0.5,9.2,1.5,13.7l-0.5,0.1
			c-1-4.5-1.5-9.2-1.5-13.8c0,0,0,0,0,0c0-5,0.6-9.9,1.7-14.7L207.5,234.1z"/>
		<path class="st0" d="M328,184L328,184c8.7,7.8,15.6,17.1,20.6,27.6c4.8,10.1,7.5,21,8.2,32.2c0.4,8-0.2,16-1.9,23.8l0,0.2
			l-15.7-3.5l0-0.2c1.4-6.4,2-12.9,1.6-19.4c-1.1-18.8-9.4-36.1-23.4-48.7l-0.2-0.2l10.7-12.1L328,184z M354.5,267.4
			c1.7-7.7,2.3-15.6,1.9-23.5c-0.6-11.2-3.4-22-8.1-32.1c-4.9-10.4-11.8-19.7-20.5-27.4l-10.2,11.5c14.1,12.6,22.4,30,23.4,48.9
			c0.4,6.5-0.2,13-1.6,19.3L354.5,267.4z M306.8,170l-6.8,14.6l-0.2-0.1c-9.4-4.4-19.8-6.6-30.3-6.5l-0.2,0l-0.1-16.1h0.2
			c12.8-0.1,25.6,2.7,37.2,8L306.8,170z M299.9,184.1l6.5-14c-11.4-5.3-24.1-8-36.7-7.9l0.1,15.4
			C280.1,177.6,290.5,179.8,299.9,184.1z M244.5,165.8l4.8,15.4l-0.2,0.1c-12.1,3.8-23,10.8-31.5,20.3c-8.3,9.3-14,20.6-16.5,32.7
			l0,0.2l-15.8-3.3l0-0.2c3.1-14.9,10.1-28.7,20.2-40.1c10.4-11.7,23.8-20.3,38.7-25L244.5,165.8z M248.9,181l-4.6-14.7
			c-14.7,4.6-28,13.2-38.3,24.8c-10.1,11.3-17,25-20.1,39.8l15.1,3.1c2.5-12.1,8.2-23.4,16.5-32.6
			C225.9,191.8,236.8,184.8,248.9,181z M345.7,291.2l-0.1,0.2c-3,5.4-6.7,10.4-10.8,15c-4.4,4.9-9.4,9.4-14.7,13.1l-0.1,0.1
			l-9.3-13.2l0.1-0.1c4.4-3.1,8.4-6.7,12-10.7c3.4-3.8,6.3-7.9,8.8-12.3l0.1-0.2L345.7,291.2z M320,319.2c5.3-3.7,10.2-8.1,14.5-13
			c4.1-4.6,7.7-9.5,10.7-14.8l-13.4-7.6c-2.5,4.3-5.4,8.4-8.8,12.2c-3.6,4-7.6,7.6-11.9,10.7L320,319.2z M292.5,315.7l5,15.3
			l-0.2,0.1c-7.2,2.4-14.7,3.8-22.2,4.2c-11.2,0.6-22.3-0.9-32.9-4.5c-11-3.8-21-9.6-29.7-17.4c-0.3-0.3-0.6-0.6-0.9-0.8l-0.1-0.1
			l10.9-11.9l0.1,0.1c0.2,0.2,0.5,0.5,0.8,0.7c14,12.6,32.1,18.9,50.9,17.9c6.2-0.3,12.3-1.5,18.1-3.4L292.5,315.7z M297,330.7
			l-4.8-14.6c-5.8,1.9-11.9,3-18,3.4c-18.9,1.1-37.1-5.3-51.2-18c0,0,0,0,0,0c-0.2-0.2-0.4-0.4-0.6-0.6L212,312.3
			c8.9,8.1,19.1,14.2,30.3,18.1c10.6,3.6,21.6,5.1,32.8,4.5C282.5,334.4,289.9,333.1,297,330.7z M200,254.8l0,0.2
			c0.9,10.4,4.2,20.6,9.4,29.5l0.1,0.2l-13.9,8.2l-0.1-0.2c-6.5-11-10.5-23.5-11.6-36.2l0-0.2L200,254.8z M209,284.5
			c-5.2-8.9-8.4-19-9.4-29.3l-15.3,1.4c1.2,12.6,5.1,24.9,11.5,35.7L209,284.5z"/>
		<path class="st0" d="M301.3,169.3L301.3,169.3l-15.8,40.6l-0.1,0c-3.7-1.4-7.6-2.3-11.5-2.7l-0.1,0l0-0.1l3.6-43.3l0.1,0
			C285.7,164.5,293.6,166.3,301.3,169.3L301.3,169.3z M285.4,209.6l15.6-40.2c-7.5-2.9-15.4-4.7-23.4-5.4l-3.6,43
			C277.9,207.3,281.7,208.2,285.4,209.6z M355.3,243.7l0,0.3c1.4,24.7-8,48.7-25.7,65.9l-0.1,0.1l-0.1-0.1l-30.2-31.2l0.1-0.1
			c8.7-8.4,13.3-20.2,12.6-32.2l0-0.2L355.3,243.7z M329.5,309.7c17.6-17.2,27-41.1,25.6-65.7l0-0.1l-43,2.5l0,0
			c0.7,12.1-3.9,23.9-12.6,32.3L329.5,309.7z M211.1,187.5L211.1,187.5l30.3,31.2l-0.1,0.1c-8.7,8.4-13.2,20.2-12.6,32.2l0,0.2
			l-43.4,2.4l0-0.2C184,228.8,193.3,204.8,211.1,187.5L211.1,187.5z M241.1,218.7l-30.1-30.9c-17.6,17.2-26.9,41.1-25.5,65.6l43-2.4
			C227.9,238.9,232.5,227.2,241.1,218.7z M266.8,290.3l-3.7,43.4l-0.1,0c-8.1-0.7-16.1-2.5-23.6-5.5l-0.1,0l0-0.1l15.8-40.5l0.1,0
			C258.9,289,262.8,289.9,266.8,290.3L266.8,290.3z M262.9,333.4l3.7-43c-3.9-0.3-7.7-1.2-11.4-2.7L239.5,328
			C247,330.9,254.9,332.7,262.9,333.4z"/>
		<path class="st0" d="M342.7,167.7C342.7,167.7,342.7,167.7,342.7,167.7c14.6,13.1,25.4,29.8,31.2,48.4l-0.7,0.2
			c-5.8-18.5-16.5-35.1-31-48.1c-14.2-12.7-31.5-21.4-50-25.2l0.2-0.8C311,146.1,328.4,154.9,342.7,167.7z M260.5,140.4l0.1,0.8
			c-15.8,1.4-31.4,6.4-45,14.5l-0.4-0.7C228.9,146.9,244.6,141.9,260.5,140.4z M378.9,247.6c0.2,16-3.3,32.2-10,46.6l-0.7-0.3
			c6.6-14.4,10.1-30.4,9.9-46.3L378.9,247.6z M190.4,175.1l0.6,0.5c-0.3,0.4-0.7,0.7-1,1.1c-25.6,28.7-34,69.2-22,105.7l-0.7,0.2
			c-5.9-17.8-7-37-3.4-55.4c3.8-19,12.6-36.6,25.5-51.1C189.7,175.9,190,175.5,190.4,175.1z M351.4,321l-0.2,0.2
			c-13.1,14.7-29.9,25.5-48.6,31.3c-18.2,5.7-37.5,6.4-56.1,2.3l0.2-0.8c38.1,8.5,77.9-4.3,103.9-33.4l0.2-0.2L351.4,321z
			 M182.1,310.8c4.7,6.7,10.2,12.8,16.3,18.3c0,0,0,0,0,0c5.8,5.2,12.1,9.7,18.7,13.5l-0.4,0.7c-6.7-3.8-13.1-8.4-18.9-13.6
			c0,0,0,0,0,0c-6.2-5.5-11.7-11.7-16.4-18.5L182.1,310.8z"/>
	</g>
	<rect x="-140.3" y="123.5" class="st1" width="400" height="250"/>
</g>
<g id="black">
	<g>
		<g>
			<path class="st2" d="M268.6,287.8C268.6,287.8,268.6,287.8,268.6,287.8c-6.9,0-13.7-1.8-19.6-5.2c-5.8-3.3-10.7-8-14.2-13.6
				l1.6-1c7,11.2,19.1,17.9,32.3,17.9c0,0,0,0,0,0c6.7,0,13.3-1.8,19-5.1l0.9,1.6C282.5,286,275.6,287.8,268.6,287.8z M303.7,266.8
				l-1.6-0.9c2.9-5.5,4.5-11.7,4.5-17.9c0-13.5-7.3-26.1-19-32.9l0.9-1.6c6,3.4,10.9,8.4,14.4,14.3c3.6,6.1,5.5,13.1,5.5,20.2
				C308.4,254.6,306.8,261.1,303.7,266.8z M232.9,265.8c-1.8-3.7-3.1-7.6-3.7-11.6l1.8-0.3c0.6,3.9,1.8,7.6,3.6,11.1L232.9,265.8z
				 M230.6,248.1h-1.8V248c0-10.4,4-20.3,11.3-27.7c7.2-7.5,17-11.7,27.3-12.1l0.1,1.8C246.7,210.7,230.6,227.4,230.6,248.1
				L230.6,248.1z M282.3,212.6c-3.6-1.4-7.5-2.2-11.4-2.5l0.1-1.8c4.1,0.2,8.1,1.1,11.9,2.6L282.3,212.6z"/>
			<path class="st2" d="M268.6,284c-8.2,0-16-2.7-22.4-7.8l0.8-1c6.2,4.9,13.7,7.6,21.7,7.6c6.1,0,12.2-1.6,17.5-4.7l0.6,1.1
				C281.2,282.4,274.9,284,268.6,284z M242.2,272.6c-5-5.3-8.2-11.9-9.3-19.1l1.2-0.2c1,6.9,4.1,13.3,9,18.5L242.2,272.6z
				 M304.3,253.3l-1.2-0.2c0.3-1.7,0.4-3.4,0.4-5.2c0-12.4-6.7-24-17.5-30.2l0.6-1.1c11.1,6.4,18.1,18.4,18.1,31.2
				C304.7,249.8,304.5,251.6,304.3,253.3z M233.7,248.1h-1.2V248c0-7.4,2.2-14.5,6.4-20.5c4.1-5.9,9.8-10.4,16.5-13l0.4,1.1
				C242.4,220.9,233.7,233.6,233.7,248.1L233.7,248.1z M281.3,215.6c-4.1-1.6-8.3-2.4-12.7-2.4h0c-2.6,0-5.2,0.3-7.8,0.9l-0.3-1.2
				c2.6-0.6,5.3-0.9,8-0.9h0c4.5,0,9,0.8,13.2,2.5L281.3,215.6z"/>
			<path class="st2" d="M332.9,221.7c-1.2-2.9-2.6-5.7-4.2-8.4l2.9-1.7c1.6,2.8,3.1,5.8,4.4,8.9L332.9,221.7z M327.4,210.9
				c-1.7-2.6-3.5-5.2-5.6-7.6l2.6-2.2c2.1,2.5,4.1,5.2,5.8,8L327.4,210.9z M320,201.3c-2.1-2.3-4.4-4.5-6.8-6.5l2.2-2.6
				c2.5,2.1,4.9,4.4,7.1,6.8L320,201.3z M311.1,193.1c-2.5-1.9-5.1-3.7-7.8-5.3l1.7-2.9c2.8,1.6,5.6,3.5,8.2,5.5L311.1,193.1z
				 M300.9,186.5c-2.8-1.5-5.7-2.7-8.6-3.8l1.2-3.2c3.1,1.1,6.1,2.5,9,4L300.9,186.5z M289.8,181.8c-3-1-6.1-1.7-9.2-2.2l0.6-3.3
				c3.2,0.6,6.5,1.4,9.6,2.4L289.8,181.8z M256.5,179.6l-0.6-3.3c3.2-0.6,6.5-0.9,9.8-1l0.1,3.4
				C262.7,178.7,259.5,179.1,256.5,179.6z M277.9,179.2c-3.1-0.4-6.2-0.6-9.4-0.6h0v-3.4h0c3.3,0,6.6,0.2,9.8,0.7L277.9,179.2z"/>
			<path class="st2" d="M336.4,232.3c-0.8-3-1.7-6.1-2.9-9l3.1-1.3c1.2,3.1,2.2,6.2,3,9.4L336.4,232.3z"/>
			<path class="st2" d="M335.7,274.2l-0.1,0.1c-14.6,37-56.5,55.2-93.5,40.6c-11.5-4.5-21.6-11.9-29.4-21.4L211,295
				c8,9.8,18.5,17.4,30.3,22c18.5,7.3,38.7,6.9,56.9-1c18.2-7.9,32.3-22.4,39.5-40.9l0.1-0.2L335.7,274.2z"/>
			<path class="st2" d="M235.5,184c-0.1,0-0.8-1.4-1.1-2c-4,2-7.8,4.4-11.3,7.2c-10.6,8.2-18.8,19.1-23.7,31.6
				c-4.7,12-6.3,25.1-4.4,37.8c1.8,12.3,6.7,24.1,14.2,34.1l1.8-1.3c-15.2-20.2-18.7-46.3-9.5-69.7
				C207.9,205.1,220.3,191.9,235.5,184z"/>
			<path class="st2" d="M221.1,279c-1.3-1.9-2.4-3.9-3.4-6l8.3-4.1c0.8,1.7,1.8,3.4,2.9,5L221.1,279z M272.4,200.8
				c-1.3-0.1-2.6-0.2-3.8-0.2l-0.1,0l0-9.3h0.1c1.5,0,3.1,0.1,4.6,0.2L272.4,200.8z"/>
			<path class="st2" d="M284.3,319.4l-0.7-3.3c37.5-8.2,61.4-45.4,53.2-82.9l0-0.1l3.3-0.7l0,0.1c4.2,19.1,0.6,38.6-9.9,55
				C319.6,303.9,303.3,315.2,284.3,319.4z M197.1,263.7l0-0.2c-4.2-19.1-0.6-38.6,9.9-55c10.6-16.4,26.9-27.8,46-31.9l0.7,3.3
				c-37.6,8.2-61.5,45.4-53.3,82.9l0,0.2L197.1,263.7z"/>
			<path class="st2" d="M224.9,248.1h-1.4V248c0-11.2,4.2-22,11.8-30.3l1.1,1C229,226.7,224.9,237.1,224.9,248.1L224.9,248.1z
				 M305.7,225c-5.8-9.3-14.7-16-25.2-19l0.4-1.4c10.8,3.1,20,10,26,19.6L305.7,225z M242.3,213.2l-0.9-1.1c7.9-6,17.3-9.1,27.2-9.1
				c1.4,0,2.8,0.1,4.1,0.2l-0.1,1.4c-1.3-0.1-2.7-0.2-4-0.2C259,204.4,249.9,207.5,242.3,213.2z"/>
			<path class="st2" d="M322.4,265.2l-8.7-2.8c0.3-0.8,0.5-1.7,0.7-2.6l8.8,2.3C323,263.2,322.7,264.2,322.4,265.2z M324.7,254.3
				l-9.1-1c0.2-1.7,0.3-3.5,0.3-5.3v-0.1h9.1v0.1C325,250.1,324.9,252.2,324.7,254.3z M221.2,248.1h-9.1V248c0-2.1,0.1-4.3,0.4-6.4
				l9.1,1c-0.2,1.8-0.3,3.6-0.3,5.3V248.1z M222.7,236.1l-8.8-2.3c0.3-1,0.6-2.1,0.9-3.1l8.7,2.8
				C223.2,234.4,222.9,235.2,222.7,236.1z"/>
		</g>
	</g>
	<path class="st2" d="M268.1,334L268.1,334c-11.5,0-22.7-2.3-33.3-6.7c-10.2-4.3-19.3-10.4-27.2-18.3c-5.6-5.6-10.4-11.9-14.2-18.8
		l-0.1-0.2l13.9-7.7l0.1,0.2c3.1,5.6,7,10.7,11.6,15.3c13.1,13.1,30.6,20.3,49.2,20.3h0.2l0.1,15.9L268.1,334z M193.9,290.3
		c3.8,6.8,8.5,13,14.1,18.5c7.8,7.8,16.9,13.9,27,18.2c10.5,4.4,21.6,6.7,33,6.7l-0.1-15.1c-18.6,0-36.1-7.3-49.3-20.5
		c-4.5-4.5-8.4-9.6-11.5-15.2L193.9,290.3z M292.8,330.4l-4.6-15.2l0.2-0.1c9.8-3,18.9-8.2,26.5-15.1l0.1-0.1l10.7,11.7l-0.1,0.1
		c-9.3,8.5-20.6,14.9-32.6,18.5L292.8,330.4z M288.6,315.5l4.4,14.5c11.8-3.6,22.9-9.9,32.1-18.3L315,300.5
		C307.4,307.3,298.3,312.5,288.6,315.5z M341.4,292.6l-13.6-8.1l0.1-0.2c6.4-10.7,9.8-23,9.8-35.6c0-12.2-3.2-24.3-9.3-34.8
		l-0.1-0.2l13.7-8l0.1,0.2c7.5,12.9,11.5,27.7,11.5,42.7c0,15.4-4.2,30.5-12,43.7L341.4,292.6z M328.2,284.3l13,7.8
		c7.8-13.1,11.9-28.1,11.9-43.4c0-14.9-3.9-29.6-11.3-42.4l-13.1,7.6c6.1,10.5,9.3,22.6,9.3,34.8C338,261.3,334.6,273.6,328.2,284.3
		z M184.6,267l0-0.2c-1.3-5.9-1.9-12-1.9-18.1c0-6.5,0.7-13,2.2-19.3l0-0.2l15.5,3.6l0,0.2c-1.2,5.1-1.8,10.4-1.8,15.7
		c0,5,0.5,9.9,1.6,14.8l0,0.2L184.6,267z M185.2,229.7c-1.4,6.2-2.2,12.6-2.2,19.1c0,6,0.6,12,1.9,17.9l14.8-3.2
		c-1-4.8-1.5-9.7-1.5-14.7c0-5.3,0.6-10.5,1.8-15.6L185.2,229.7z M207.7,214.2l-13.7-7.9l0.1-0.2c3.7-6.5,8.3-12.4,13.6-17.7
		c7.8-7.8,17-14,27.2-18.3c10.5-4.5,21.7-6.7,33.3-6.7c0.4,0,0.8,0,1.2,0l0.2,0l-0.2,15.9l-0.2,0c-0.3,0-0.7,0-1,0
		c-18.6,0-36,7.2-49.2,20.3c-4.3,4.3-8,9.2-11.1,14.4L207.7,214.2z M194.5,206.1l13.1,7.6c3-5.2,6.8-10,11-14.3
		c13.2-13.2,30.8-20.5,49.4-20.5c0,0,0,0,0,0c0.3,0,0.6,0,0.8,0l0.2-15.1c-11.8-0.1-23.3,2.1-34.2,6.7c-10.1,4.3-19.2,10.4-27,18.2
		C202.7,193.8,198.2,199.7,194.5,206.1z M315.7,198.1l-0.1-0.1c-7.5-7-16.6-12.3-26.3-15.4l-0.2-0.1l4.8-15.1l0.2,0.1
		c11.9,3.8,23.1,10.4,32.3,19l0.1,0.1L315.7,198.1z M289.5,182.2c9.6,3.1,18.7,8.4,26.1,15.3l10.4-11.1
		c-9.1-8.5-20.1-14.9-31.9-18.7L289.5,182.2z"/>
	<path class="st2" d="M176,317.8c-6.6-8.8-11.9-18.4-15.8-28.7l54.8-20.5c1.9,5,4.5,9.7,7.7,14L176,317.8z M259.9,363.4L264,305
		c16.3,1.1,32.3-4.8,43.9-16.4l0.1-0.1l41.4,41.4l-0.1,0.1C325.8,353.5,293.2,365.7,259.9,363.4z M320.9,229c-1.9-5-4.5-9.7-7.7-14
		l46.8-35.1c6.6,8.8,11.9,18.4,15.7,28.7L320.9,229z"/>
	<path class="st2" d="M297.4,327.3L297.4,327.3l-15-40.1l0.1,0c3.7-1.4,7.1-3.3,10.2-5.6l0.1-0.1l0.1,0.1l25.7,34.1l-0.1,0.1
		C312,320.6,305,324.5,297.4,327.3L297.4,327.3z M282.6,287.3l14.9,39.8c7.4-2.8,14.4-6.6,20.8-11.4l-25.6-33.9
		C289.6,284.1,286.2,285.9,282.6,287.3z M208.8,308.2l-0.2-0.2c-17.2-17.2-26.1-41-24.4-65.2l0-0.1l0.1,0l42.7,3l0,0.1
		c-0.8,11.9,3.5,23.5,11.9,31.9l0.2,0.2L208.8,308.2z M184.4,242.9c-1.7,24.2,7.2,47.9,24.3,65l0.1,0.1l30-30.1l0,0
		c-8.4-8.4-12.8-20.1-12-32L184.4,242.9z M351.7,254.7L351.7,254.7l-42.8-3l0-0.1c0.8-11.9-3.5-23.5-11.9-31.9l-0.1-0.1l30.3-30.3
		l0.1,0.1C344.5,206.6,353.4,230.3,351.7,254.7L351.7,254.7z M309.1,251.5l42.4,3c1.7-24.1-7.2-47.8-24.3-64.9l-30,30
		C305.6,228,309.9,239.6,309.1,251.5z M243.3,215.9l-25.8-34.2l0.1-0.1c6.4-4.8,13.5-8.7,21-11.5l0.1,0l0,0.1l15,40l-0.1,0
		C249.9,211.6,246.5,213.5,243.3,215.9L243.3,215.9z M217.8,181.7l25.5,33.9c3.1-2.3,6.5-4.2,10.1-5.5l-14.9-39.8
		C231.1,173.1,224.1,177,217.8,181.7z"/>
	<path class="st2" d="M268,355.7C268,355.7,268,355.7,268,355.7c-19.3,0-38.3-5.2-54.8-15l0.4-0.7c16.4,9.8,35.2,14.9,54.4,14.9
		c18.7,0,37.2-4.9,53.3-14.3l0.4,0.7C305.4,350.7,286.9,355.7,268,355.7z M346.3,321.7l-0.6-0.5c10.7-11.5,18.9-25.4,23.6-40.2
		l0.7,0.2C365.3,296.2,357,310.2,346.3,321.7z M188.8,320.8c-10.6-11.7-18.7-25.8-23.3-40.8l0.7-0.2c4.6,14.9,12.6,28.9,23.1,40.5
		L188.8,320.8z M375.1,250.2l-0.8,0c0-0.5,0-1,0-1.5c0-37.8-20.4-73.1-53.2-92l0.4-0.7c16,9.2,29.4,22.5,38.8,38.4
		c9.7,16.4,14.8,35.2,14.8,54.3C375.1,249.2,375.1,249.7,375.1,250.2z M160.9,249v-0.2c0-19.4,5.2-38.4,15.2-54.9
		c9.6-16.1,23.4-29.4,39.7-38.5l0.4,0.7c-33.6,18.8-54.5,54.3-54.5,92.8l0,0.2H160.9z M292,145.2c-7.8-1.8-15.9-2.7-24-2.7
		c0,0,0,0,0,0c-7.6,0-15.2,0.8-22.6,2.4l-0.2-0.7c7.4-1.6,15.1-2.4,22.8-2.4c0,0,0,0,0,0c8.2,0,16.3,0.9,24.2,2.7L292,145.2z"/>
	<path class="st2" d="M268.5,288.4L268.5,288.4c-5.3,0-10.5-1-15.4-3.1c-4.7-2-8.9-4.8-12.6-8.5c-2.6-2.6-4.8-5.5-6.6-8.7l0-0.1
		l6.4-3.6l0,0.1c1.4,2.6,3.2,5,5.3,7.1c6.1,6.1,14.1,9.4,22.7,9.4h0.1l0,7.3H268.5z M234.1,268.1c1.8,3.1,3.9,6,6.5,8.6
		c3.6,3.6,7.8,6.4,12.5,8.4c4.8,2,10,3.1,15.3,3.1l0-7c-8.6,0-16.7-3.4-22.8-9.5c-2.1-2.1-3.9-4.5-5.3-7L234.1,268.1z M296.3,265.4
		l6,3.6c3.6-6,5.5-13,5.5-20.1c0-6.9-1.8-13.7-5.2-19.6l-6.1,3.5c2.8,4.9,4.3,10.4,4.3,16.1C300.8,254.7,299.2,260.4,296.3,265.4z
		 M229.9,257.4L229.9,257.4c-0.6-2.8-0.9-5.6-0.9-8.5c0-3,0.3-6,1-8.9l0-0.1l7.2,1.7l0,0.1c-0.5,2.4-0.8,4.8-0.8,7.3
		c0,2.3,0.2,4.6,0.7,6.8l0,0.1L229.9,257.4z M230.1,240.1c-0.7,2.9-1,5.8-1,8.8c0,2.8,0.3,5.6,0.9,8.3l6.8-1.5
		c-0.5-2.2-0.7-4.5-0.7-6.8c0-2.4,0.3-4.9,0.8-7.2L230.1,240.1z M290.5,225.5L290.5,225.5c-3.5-3.3-7.7-5.8-12.2-7.2l-0.1,0l2.2-7
		l0.1,0c5.5,1.8,10.7,4.8,14.9,8.8l0.1,0.1L290.5,225.5z M278.4,218.2c4.5,1.4,8.6,3.9,12.1,7.1l4.8-5.1c-4.2-3.9-9.3-6.9-14.7-8.6
		L278.4,218.2z"/>
	<path class="st2" d="M268.4,298.4L268.4,298.4c-8.9,0-17.7-2.4-25.3-6.9l0.2-0.3c7.6,4.5,16.3,6.9,25.1,6.9
		c8.7,0,17.2-2.3,24.6-6.6l0.2,0.3C285.7,296.1,277.1,298.4,268.4,298.4z M304.6,282.7l-0.3-0.2c4.9-5.3,8.7-11.7,10.9-18.6l0.3,0.1
		C313.4,270.9,309.6,277.3,304.6,282.7z M231.8,282.3c-4.9-5.4-8.6-11.9-10.8-18.8l0.3-0.1c2.1,6.9,5.8,13.4,10.7,18.7L231.8,282.3z
		 M317.9,249.6l-0.4,0c0-0.2,0-0.4,0-0.7c0-17.5-9.4-33.8-24.6-42.5l0.2-0.3c7.4,4.3,13.6,10.4,17.9,17.8c4.5,7.6,6.8,16.2,6.8,25.1
		C317.9,249.2,317.9,249.4,317.9,249.6z M218.9,249v-0.1c0-9,2.4-17.7,7-25.4c4.5-7.4,10.8-13.6,18.4-17.8l0.2,0.3
		c-15.5,8.7-25.2,25.1-25.2,42.9l0,0.1H218.9z M279.5,201.1c-3.6-0.8-7.4-1.3-11.1-1.3h0c-3.5,0-7,0.4-10.5,1.1l-0.1-0.3
		c3.4-0.7,7-1.1,10.5-1.1h0c3.8,0,7.5,0.4,11.2,1.3L279.5,201.1z"/>
	<path class="st2" d="M317.7,292.9L317.7,292.9c-5.9,6.6-13,11.9-21,15.7c-7.7,3.6-16,5.7-24.6,6.2c-6.1,0.3-12.2-0.2-18.1-1.5
		l-0.1,0l2.7-12l0.1,0c4.8,1.1,9.8,1.5,14.8,1.2c14.3-0.8,27.5-7.1,37.1-17.8l0.1-0.1l9.2,8.1L317.7,292.9z M254.2,313
		c5.9,1.3,11.9,1.8,17.9,1.4c8.5-0.5,16.8-2.6,24.4-6.2c8-3.8,15-9,20.9-15.6l-8.8-7.8c-9.6,10.7-22.8,17.1-37.2,17.9
		c-4.9,0.3-9.9-0.1-14.7-1.2L254.2,313z M328.4,276.7l-11.1-5.2l0.1-0.1c3.3-7.2,5-15.1,5-23l0-0.1l12.3-0.1v0.1
		c0.1,9.7-2,19.5-6.1,28.3L328.4,276.7z M317.6,271.4l10.6,4.9c4-8.7,6.1-18.3,6-27.9l-11.7,0.1
		C322.6,256.4,320.9,264.3,317.6,271.4z M331.6,229.3l-11.7,3.7l0-0.1c-2.9-9.2-8.2-17.5-15.5-24c-7.1-6.3-15.7-10.6-24.9-12.6
		l-0.1,0l2.5-12l0.1,0c11.3,2.3,21.9,7.7,30.6,15.4c8.9,7.9,15.5,18.1,19,29.5L331.6,229.3z M320,232.6l11.2-3.5
		c-3.5-11.2-10.1-21.3-18.9-29.2c-8.6-7.7-19.1-13-30.3-15.3l-2.4,11.5c9.2,1.9,17.8,6.3,24.9,12.6
		C311.7,215.1,317.1,223.4,320,232.6z M236,306.4l-0.1-0.1c-4.1-2.3-7.9-5.1-11.5-8.2c-3.8-3.4-7.1-7.1-10-11.2l-0.1-0.1l10-7.1
		l0.1,0.1c2.3,3.3,5.1,6.4,8.2,9.1c2.9,2.6,6,4.8,9.3,6.7l0.1,0.1L236,306.4z M214.7,286.8c2.9,4,6.2,7.7,9.9,11.1
		c3.5,3.1,7.3,5.8,11.3,8.1l5.8-10.2c-3.3-1.9-6.4-4.1-9.3-6.7c-3.1-2.7-5.8-5.8-8.1-9.1L214.7,286.8z M217.4,265.8l-11.7,3.8l0-0.1
		c-1.8-5.5-2.9-11.2-3.2-16.9c-0.5-8.6,0.7-17,3.4-25.1c2.9-8.4,7.3-16,13.3-22.6c0.2-0.2,0.4-0.5,0.6-0.7l0.1-0.1l9,8.3l-0.1,0.1
		c-0.2,0.2-0.3,0.4-0.5,0.6c-9.6,10.7-14.4,24.5-13.6,38.8c0.3,4.7,1.1,9.3,2.6,13.8L217.4,265.8z M205.9,269.3l11.1-3.7
		c-1.4-4.4-2.3-9.1-2.6-13.7c-0.8-14.4,4.1-28.3,13.7-39c0,0,0,0,0,0c0.1-0.2,0.3-0.3,0.4-0.5l-8.6-7.9
		c-6.2,6.8-10.8,14.5-13.8,23.1c-2.8,8-3.9,16.4-3.4,25C203.1,258.2,204.1,263.9,205.9,269.3z"/>
	<path class="st2" d="M328.9,272.5L328.9,272.5l-30.9-12l0-0.1c1.1-2.8,1.8-5.8,2-8.8l0-0.1l0.1,0l33,2.8l0,0.1
		C332.6,260.6,331.2,266.7,328.9,272.5L328.9,272.5z M298.2,260.4l30.6,11.9c2.2-5.7,3.6-11.7,4.1-17.8l-32.8-2.8
		C299.9,254.7,299.3,257.6,298.2,260.4z M272.2,313.7l-0.2,0c-18.8,1.1-37.1-6.1-50.2-19.6l0-0.1l0.1-0.1l23.7-23l0.1,0.1
		c6.4,6.6,15.4,10.1,24.6,9.6l0.2,0L272.2,313.7z M222,294.1c13.1,13.4,31.3,20.5,50.1,19.5l0.1,0l-1.9-32.8l0,0
		c-9.2,0.5-18.2-3-24.6-9.6L222,294.1z M236.7,246.3l-33-2.8l0-0.1c0.5-6.2,1.9-12.2,4.2-18l0-0.1l0.1,0l30.8,12l0,0.1
		C237.7,240.2,237,243.2,236.7,246.3L236.7,246.3z M203.9,243.3l32.8,2.8c0.3-3,0.9-5.9,2-8.7L208,225.5
		C205.8,231.2,204.4,237.2,203.9,243.3z"/>
	<path class="st2" d="M330.2,304.1C330.2,304.1,330.2,304.1,330.2,304.1c-10,11.1-22.7,19.4-36.9,23.8l-0.2-0.6
		c14.1-4.4,26.7-12.6,36.6-23.6c9.7-10.8,16.3-24,19.2-38.1l0.6,0.1C346.6,279.9,339.9,293.2,330.2,304.1z M350.9,241.5l-0.6,0.1
		c-1.1-12.1-4.9-23.9-11-34.3l0.5-0.3C346,217.4,349.8,229.3,350.9,241.5z M269.2,331.7c-12.2,0.1-24.5-2.5-35.5-7.6l0.2-0.5
		c11,5.1,23.2,7.7,35.3,7.5L269.2,331.7z M324.5,188l-0.4,0.4c-0.3-0.3-0.6-0.5-0.8-0.8c-21.8-19.5-52.7-25.9-80.6-16.8l-0.2-0.6
		c13.6-4.5,28.2-5.3,42.2-2.6c14.4,2.9,27.9,9.6,39,19.5C323.9,187.5,324.2,187.8,324.5,188z M213.3,310.7l-0.1-0.1
		c-11.2-10-19.4-22.8-23.9-37c-4.3-13.8-4.9-28.6-1.8-42.7l0.6,0.1c-6.5,29,3.3,59.4,25.5,79.2l0.1,0.1L213.3,310.7z M221.1,181.7
		c-5.1,3.6-9.8,7.8-14,12.4c0,0,0,0,0,0c-3.9,4.4-7.4,9.2-10.3,14.3l-0.5-0.3c2.9-5.1,6.4-9.9,10.3-14.4c0,0,0,0,0,0
		c4.2-4.7,8.9-8.9,14.1-12.5L221.1,181.7z"/>
	<rect x="-140.3" y="123.5" class="st1" width="400" height="250"/>
</g>
<g id="blue">
	<g>
		<path class="st3" d="M226.1,237.5c1.2-4.8,3.1-9.3,5.7-13.4l0.9,0.6c-2.6,4-4.4,8.4-5.5,13.1L226.1,237.5z M238.7,217.1l-0.7-0.7
			l0.1-0.1c17.6-17.6,46.2-17.6,63.8,0c11.2,11.2,15.7,27.1,12,42.6l-1-0.3c3.7-15.1-0.7-30.6-11.7-41.6
			C283.9,199.9,256,199.8,238.7,217.1L238.7,217.1z M301.1,279.3c2.3-2.3,4.3-4.8,6.1-7.6l0.9,0.6c-1.8,2.8-3.9,5.4-6.2,7.7
			L301.1,279.3z"/>
		<path class="st3" d="M214.8,303.3c-30.5-30.5-30.5-80-0.1-110.4c30.4-30.4,80-30.4,110.4,0.1c30.5,30.5,30.5,80,0.1,110.4
			C294.8,333.8,245.2,333.8,214.8,303.3z M324.8,193.3c-30.3-30.3-79.5-30.3-109.7-0.1c-30.2,30.2-30.2,79.4,0.1,109.7
			c30.3,30.3,79.5,30.3,109.7,0.1C355,272.8,355,223.6,324.8,193.3z"/>
		<path class="st3" d="M209.2,308.9C209.2,308.9,209.2,308.9,209.2,308.9c-10.5-10.5-18.2-23.6-22.1-37.9
			c-3.8-13.8-4.1-28.5-0.9-42.5l3.9,0.9c-6.4,27.8,1.8,56.5,21.9,76.6c0,0,0,0,0,0c10.2,10.2,23,17.6,36.9,21.3l-1,3.9
			C233.3,327.4,219.9,319.7,209.2,308.9z M260.9,333.7l0.4-4c8.4,0.9,16.9,0.5,25.1-1.2l0.8,3.9
			C278.5,334.2,269.7,334.6,260.9,333.7z M294.9,330.5l-1.2-3.8c12.8-3.9,24.7-11,34.2-20.5c20.6-20.6,28.8-51,21.2-79.3l3.9-1
			c3.8,14.3,3.9,29.5,0.2,43.9c-3.8,14.8-11.6,28.4-22.4,39.2C320.8,319,308.4,326.5,294.9,330.5z M188.3,220.9
			c2.8-8.4,6.8-16.3,12.1-23.5l3.2,2.4c-5,6.8-8.8,14.3-11.5,22.4L188.3,220.9z M211.8,190.2l-2.8-2.8l0.1-0.1
			c15.9-15.9,37.1-24.8,59.6-25.2c22.5-0.3,43.8,8,60.2,23.3l-2.7,2.9c-32.5-30.6-82.6-29.8-114.2,1.7L211.8,190.2z M345,215
			c-3.4-7.7-8-14.8-13.6-21.2l3-2.6c5.9,6.6,10.7,14.1,14.3,22.2L345,215z"/>
		<path class="st3" d="M214.9,303.2c-12.6-12.6-20.3-28.6-22.3-46.2l2.6-0.3c2,17.1,9.4,32.5,21.6,44.7c9.4,9.4,21.1,16.1,33.9,19.5
			l-0.7,2.6C236.7,319.9,224.6,312.9,214.9,303.2z M261.4,325.6l0.3-2.6c15.1,1.7,30.2-1.2,43.6-8.3l1.2,2.3
			C292.6,324.4,277,327.3,261.4,325.6z M192.1,245.3c0.5-15.7,5.8-30.7,15-43.4l2.1,1.6c-9,12.2-14,26.7-14.5,41.9L192.1,245.3z
			 M316.3,310.8l-1.6-2.1c3-2.2,5.8-4.7,8.5-7.3c18.9-18.9,26.4-46.8,19.4-72.8l2.6-0.7c7.2,26.8-0.5,55.7-20.1,75.3
			C322.3,306,319.4,308.5,316.3,310.8z M216.6,195l-1.9-1.9l0.1-0.1c11.3-11.3,25.5-18.7,41.2-21.6c15.3-2.8,30.9-0.9,45.1,5.2
			l-1.1,2.4c-28.6-12.5-61.3-6.3-83.3,15.8L216.6,195z M338.9,218c-3.8-8.6-9.1-16.4-15.8-23.1l0,0c-4-4-8.5-7.6-13.2-10.6l1.4-2.2
			c4.9,3.1,9.5,6.8,13.7,10.9l0,0c6.9,6.9,12.4,15,16.3,23.9L338.9,218z"/>
		<path class="st3" d="M224.1,294c-25.3-25.3-25.3-66.5,0-91.7c25.3-25.3,66.4-25.3,91.7,0c25.3,25.3,25.3,66.5,0,91.7
			C290.6,319.3,249.4,319.3,224.1,294z M315.6,202.5c-25.2-25.2-66.2-25.2-91.3,0c-25.2,25.2-25.1,66.1,0,91.3
			c25.2,25.2,66.2,25.2,91.3,0.1C340.8,268.7,340.8,227.7,315.6,202.5z"/>
		<path class="st3" d="M227.5,290.6c-23.5-23.5-23.5-61.6,0-85c23.4-23.4,61.6-23.4,85,0c23.5,23.5,23.5,61.6,0,85
			C289.1,314.1,250.9,314.1,227.5,290.6z M312.3,205.8c-23.3-23.4-61.3-23.4-84.6,0c-23.3,23.3-23.3,61.3,0,84.6
			c23.4,23.4,61.3,23.4,84.7,0C335.6,267.2,335.6,229.2,312.3,205.8z"/>
		<path class="st3" d="M224.1,294c-9.9-9.9-16.2-22.3-18.3-36.1l5-0.8c1.9,12.7,7.8,24.2,16.9,33.2c23.3,23.4,61.3,23.4,84.7,0
			l0.1-0.1l3.6,3.6l-0.1,0.1C290.6,319.4,249.4,319.4,224.1,294z M205.5,240.1c1.3-10.7,5.3-21,11.5-29.7l4.1,2.9
			c-5.7,8-9.4,17.5-10.6,27.4L205.5,240.1z"/>
		<path class="st3" d="M225.2,292.9c-24.7-24.7-24.7-64.9,0-89.6c24.7-24.7,64.9-24.7,89.6,0c24.7,24.7,24.7,64.9,0,89.6
			C290.1,317.6,249.9,317.6,225.2,292.9z M314.3,203.8c-24.5-24.5-64.4-24.5-88.8,0c-24.5,24.5-24.5,64.3,0,88.8
			c24.5,24.5,64.4,24.5,88.8,0C338.9,268.1,338.8,228.3,314.3,203.8z"/>
		<path class="st3" d="M223.9,294.2c-25.4-25.4-25.5-66.8,0-92.2c25.4-25.4,66.8-25.4,92.2,0.1c25.4,25.4,25.5,66.8,0.1,92.2
			C290.7,319.7,249.3,319.7,223.9,294.2z M315.7,202.4c-25.2-25.2-66.3-25.2-91.5,0c-25.2,25.2-25.2,66.2,0,91.5
			c25.2,25.2,66.3,25.2,91.5,0C340.9,268.7,340.9,227.7,315.7,202.4z"/>
		<path class="st3" d="M227.4,290.7c-23.5-23.5-23.5-61.6,0-85.1c23.4-23.4,61.6-23.4,85.1,0c23.5,23.5,23.5,61.6,0,85.1
			C289.1,314.2,250.9,314.1,227.4,290.7z M312.1,206c-23.3-23.3-61.1-23.3-84.3,0c-23.2,23.2-23.2,61.1,0,84.3
			c23.3,23.3,61.1,23.3,84.3,0C335.4,267.1,335.4,229.3,312.1,206z"/>
		<path class="st3" d="M226.3,291.8c-24.1-24.1-24.1-63.3,0-87.3c24.1-24.1,63.2-24,87.3,0c24.1,24.1,24.1,63.3,0,87.3
			C289.6,315.9,250.4,315.9,226.3,291.8z M313.2,204.9c-23.9-23.9-62.7-23.9-86.6,0c-23.9,23.9-23.8,62.7,0,86.6
			c23.9,23.9,62.7,23.9,86.6,0C337.1,267.6,337.1,228.8,313.2,204.9z"/>
		<path class="st3" d="M192,326.1c-43-43-43-113-0.1-155.9c43-43,112.9-42.9,155.9,0.1c43,43,43,113,0.1,155.9
			C305,369.1,235,369.1,192,326.1z M347.1,171c-42.6-42.6-111.9-42.6-154.4-0.1c-42.6,42.6-42.5,111.8,0.1,154.4
			c42.6,42.6,111.9,42.6,154.4,0.1C389.8,282.9,389.7,213.6,347.1,171z"/>
		<path class="st3" d="M186.2,331.9c-22.4-22.4-34.7-52.1-34.7-83.8c0-31.6,12.3-61.4,34.7-83.8c22.4-22.4,52.1-34.7,83.8-34.7
			c31.6,0,61.4,12.4,83.8,34.7c22.4,22.4,34.7,52.1,34.7,83.8c0,31.6-12.3,61.4-34.7,83.8c-22.4,22.4-52.1,34.7-83.8,34.7
			C238.4,366.6,208.6,354.3,186.2,331.9z M352.9,165.2c-45.8-45.8-120.3-45.8-166-0.1c-45.8,45.8-45.7,120.2,0.1,166
			c45.8,45.8,120.3,45.8,166,0.1C398.8,285.5,398.7,211,352.9,165.2z"/>
		<path class="st3" d="M183.4,334.7c-23.1-23.1-35.9-53.9-35.9-86.6c0-32.7,12.7-63.4,35.8-86.6c23.1-23.1,53.9-35.8,86.6-35.8
			c32.7,0,63.5,12.8,86.6,35.9c23.1,23.1,35.9,53.9,35.9,86.6c0,32.7-12.7,63.5-35.8,86.6c-23.1,23.1-53.9,35.8-86.6,35.8
			C237.3,370.6,206.6,357.8,183.4,334.7z M355.7,162.4c-47.4-47.4-124.4-47.4-171.7-0.1c-47.3,47.3-47.3,124.3,0.1,171.7
			c47.4,47.4,124.4,47.4,171.7,0.1C403.1,286.7,403.1,209.7,355.7,162.4z"/>
		<path class="st3" d="M408.5,306.2c2.6-6.2,4.8-12.7,6.5-19.3l7.1,1.9c-1.8,6.9-4.1,13.7-6.9,20.2L408.5,306.2z M416.4,281.3
			c1.5-6.6,2.5-13.4,3.1-20.1l7.3,0.6c-0.6,7.1-1.7,14.2-3.3,21.1L416.4,281.3z M419.9,255.4c0.3-6.8,0.2-13.6-0.4-20.4l7.3-0.6
			c0.6,7.1,0.8,14.2,0.4,21.3L419.9,255.4z M418.8,229.3c-0.9-6.7-2.2-13.4-3.9-20l7.1-1.9c1.8,6.9,3.2,13.9,4.1,21L418.8,229.3z
			 M413.3,203.7c-2-6.5-4.5-12.9-7.3-19l6.6-3.1c3,6.4,5.6,13.1,7.7,19.9L413.3,203.7z M403.4,179.5c-3.1-6-6.7-11.9-10.5-17.4
			l6-4.2c4.1,5.8,7.8,12,11.1,18.3L403.4,179.5z M355.9,125.2l4.2-6c5.8,4.1,11.4,8.6,16.6,13.4l-5,5.4
			C366.8,133.4,361.5,129.1,355.9,125.2z M389.4,157.3c-4.1-5.3-8.6-10.5-13.4-15.3L376,142l5.2-5.2l0.1,0.1c5,5,9.7,10.4,14,16
			L389.4,157.3z"/>
		<path class="st3" d="M397.6,327.7c3.5-5.8,6.6-11.9,9.3-18.1l6.7,2.9c-2.8,6.5-6.1,12.9-9.7,19L397.6,327.7z"/>
		<path class="st3" d="M332.5,390.8l-0.3,0.1c-78.7,34.2-170.7-2.1-205-80.8c-10.6-24.4-14.8-51.2-12.2-77.5l-4.8-0.5
			c-2.7,27.1,1.7,54.7,12.6,79.9c17.1,39.3,48.5,69.7,88.4,85.4c39.9,15.7,83.5,15,122.9-2.1l0.3-0.1L332.5,390.8z"/>
		<path class="st3" d="M317.3,99.9c-0.1-0.1,0.9-3.4,1.4-4.8c-9.2-2.9-18.6-5.1-28.3-6.3c-28.6-3.7-57.9,0.4-84.5,12
			c-25.6,11.1-47.9,28.8-64.5,51c-16.1,21.6-26.6,47.1-30.4,73.7l4.8,0.7c7.7-54,42.1-99.3,92-121C242.8,90,281.9,88.7,317.3,99.9z"
			/>
		<path class="st3" d="M150.1,223c1-4.8,2.3-9.7,3.9-14.3l19,6.4c-1.3,3.9-2.4,7.9-3.3,12L150.1,223z M347.9,181.9
			c-1.8-2.1-3.7-4.1-5.6-6.1l-0.2-0.2l14.1-14.2l0.2,0.2c2.3,2.3,4.6,4.8,6.7,7.3L347.9,181.9z"/>
		<path class="st3" d="M184.9,381.2l3.9-6.2c69.9,44.7,163.1,24.4,207.9-45.4l0.1-0.1l6.2,4l-0.1,0.1c-22.8,35.5-58,59.9-99.1,68.9
			C262.6,411.5,220.4,403.9,184.9,381.2z M136.8,163l0.2-0.3c22.8-35.5,58-60,99.2-68.9c41.2-9,83.5-1.4,119,21.4l-4,6.2
			c-69.9-44.9-163.2-24.5-208,45.3L143,167L136.8,163z"/>
		<path class="st3" d="M203.1,181.7l-2.2-2.2l0.2-0.2c17.2-17.2,40-27.3,64.3-28.4l0.1,3.1c-23.5,1.1-45.6,10.8-62.2,27.5
			L203.1,181.7z M361.7,269.7c5.3-23,2-46.9-9.5-67.4l2.7-1.5c11.8,21.2,15.3,45.9,9.8,69.6L361.7,269.7z M282.9,154.8l0.4-3.1
			c21.1,2.9,40.3,12.5,55.4,27.6c2.1,2.1,4.1,4.3,6,6.6l-2.4,2c-1.8-2.2-3.8-4.4-5.8-6.4C321.9,166.9,303.3,157.7,282.9,154.8z"/>
		<path class="st3" d="M189.2,328.9c-21.6-21.6-33.5-50.3-33.5-80.8c0-30.5,11.9-59.2,33.4-80.8c21.6-21.6,50.3-33.4,80.8-33.4
			c30.5,0,59.2,11.9,80.8,33.5c21.6,21.6,33.5,50.3,33.5,80.8c0,30.5-11.9,59.2-33.4,80.8c-21.6,21.6-50.3,33.4-80.8,33.4
			C239.5,362.4,210.8,350.5,189.2,328.9z M350,168.1c-44.2-44.2-116-44.2-160.1-0.1c-44.1,44.1-44.1,115.9,0.1,160.1
			c44.2,44.2,116,44.2,160.1,0.1C394.2,284.1,394.1,212.3,350,168.1z"/>
		<path class="st3" d="M325.8,356.6l-9-17.5c1.7-0.9,3.4-1.8,5.1-2.8l10,17C329.9,354.4,327.9,355.6,325.8,356.6z M346.1,343.5
			l-12.3-15.4c3-2.4,5.8-4.9,8.5-7.6l0.1-0.1l13.9,13.9l-0.1,0.1C353,337.6,349.6,340.7,346.1,343.5z M197.4,176l-13.9-13.9l0.2-0.2
			c3.2-3.2,6.7-6.3,10.3-9.2l12.3,15.4c-3,2.4-5.9,5-8.6,7.7L197.4,176z M218.1,159.9l-10-17c2-1.2,4-2.3,6-3.3l9,17.5
			C221.5,158,219.8,158.9,218.1,159.9z"/>
		<path class="st3" d="M137.8,378.8L137.8,378.8c-17.6-17.6-31.3-38.2-40.5-61c-9-22.1-13.5-45.5-13.5-69.4c0-17,2.3-34,6.9-50.3
			l0.1-0.4l33,9.3l-0.1,0.4c-3.8,13.3-5.7,27.1-5.7,41c0,40.1,15.7,77.8,44,106.2l0.3,0.3l-24.1,24.3L137.8,378.8z M91.3,198.6
			c-4.5,16.2-6.8,32.9-6.8,49.8c0,23.8,4.5,47.1,13.5,69.1c9.2,22.8,22.8,43.2,40.3,60.7l23.1-23.2c-28.4-28.5-44-66.3-44.1-106.6
			c0-13.8,1.9-27.6,5.6-40.9L91.3,198.6z M181.1,411.1l16.1-30.2l0.3,0.2c19.4,10.4,41.4,16.4,63.5,17.5l0.4,0l-1.6,34.2l-0.4,0
			c-27.2-1.3-54.2-8.7-78.1-21.5L181.1,411.1z M197.5,381.9l-15.4,28.9c23.6,12.5,50.2,19.8,77,21.2l1.5-32.7
			C238.7,398.1,216.9,392.1,197.5,381.9z M313.1,427.4l-8.4-33.2l0.4-0.1c26.2-6.6,50.1-20.2,69.3-39.4c18.7-18.7,32.1-42,38.9-67.4
			l0.1-0.4l33.1,8.8l-0.1,0.4c-8.3,31.2-24.8,59.8-47.8,82.8c-23.6,23.6-53,40.3-85.2,48.4L313.1,427.4z M305.6,394.8l8,31.7
			c31.9-8.1,61.1-24.7,84.4-48.1c22.8-22.8,39.2-51.1,47.5-82.1l-31.6-8.4c-6.8,25.4-20.3,48.6-39,67.3
			C355.7,374.5,331.8,388.1,305.6,394.8z M112.7,148.9l0.2-0.3c7.1-11,15.4-21.3,24.7-30.6c10-10,21-18.8,32.9-26.1l0.3-0.2
			l18.2,29.1l-0.3,0.2c-9.6,6-18.7,13.2-26.8,21.3c-7.6,7.6-14.4,16-20.2,25l-0.2,0.3L112.7,148.9z M170.6,92.7
			c-11.7,7.3-22.6,16-32.4,25.8c-9.2,9.2-17.4,19.3-24.4,30.2l27.5,17.7c5.8-8.9,12.5-17.2,20-24.8c8.1-8.1,17-15.2,26.6-21.2
			L170.6,92.7z M228.7,103.5l-8.9-33.1l0.4-0.1c15.6-4.2,31.6-6.3,47.8-6.2c23.9,0,47.3,4.6,69.4,13.5c22.9,9.3,43.4,22.9,61,40.5
			c0.6,0.6,1.2,1.3,1.9,1.9l0.3,0.3L376,144.2l-0.3-0.3c-0.5-0.5-1-1-1.5-1.5c-28.4-28.4-66.1-44-106.2-44
			c-13.2,0-26.3,1.7-38.9,5.1L228.7,103.5z M220.8,70.9l8.5,31.6c12.6-3.3,25.7-5,38.8-5c40.3,0,78.2,15.7,106.8,44.3c0,0,0,0,0,0
			c0.4,0.4,0.8,0.8,1.3,1.3l23.5-22.8c-17.9-18.3-38.9-32.4-62.4-42c-22-8.9-45.3-13.5-69.1-13.5C252.1,64.8,236.2,66.9,220.8,70.9z
			 M418.2,243.9l0-0.4c-0.8-22.1-6.5-44.2-16.6-63.8l-0.2-0.3l30.5-15.7l0.2,0.3c12.4,24.1,19.5,51.2,20.4,78.3l0,0.4L418.2,243.9z
			 M402.4,179.7c10,19.5,15.7,41.4,16.5,63.4l32.7-1.1c-1-26.8-7.9-53.5-20.1-77.3L402.4,179.7z"/>
		<path class="st3" d="M22,213.4c3.3-23.5,9.9-46.4,19.8-68l115.1,52.4c-4.8,10.5-8,21.7-9.7,33.2L22,213.4z M80.6,411.2l95.3-82.9
			c23.2,26.7,56.8,42,92.1,42h0.2l0.1,126.4h-0.2C196.2,496.7,127.8,465.5,80.6,411.2z M267.3,0h0.5c72,0,140.4,31.3,187.7,85.7
			L360,168.5c-23.2-26.7-56.7-42.1-92.1-42.1h-0.4L267.3,0z M379,299c4.8-10.5,8.1-21.7,9.7-33.2l125.2,17.8
			c-3.3,23.5-10,46.4-19.8,67.9L379,299z"/>
		<path class="st3" d="M192.8,413.2l0.1-0.2l38.2-84l0.2,0.1c7.7,3.5,15.8,5.9,24.2,7l0.2,0l0,0.2l-12.8,91.5l-0.2,0
			c-17.2-2.4-33.9-7.3-49.6-14.5L192.8,413.2z M231.3,329.6l-38,83.5c15.6,7.1,32.1,11.9,49.1,14.3l12.7-90.9
			C246.9,335.3,238.9,333,231.3,329.6z M86.7,248.8l0-0.6c0-52.6,22.7-102.5,62.4-136.9l0.2-0.1l0.1,0.2l60.6,69.8l-0.2,0.1
			c-19.4,16.8-30.6,41.2-30.6,66.9l0,0.5L86.7,248.8z M149.2,111.8c-39.5,34.4-62.2,84.1-62.1,136.5v0.2l91.8-0.1v-0.1
			c0-25.7,11.1-50.2,30.6-67.1L149.2,111.8z M386.8,385.3l-0.1-0.2L326,315.5l0.2-0.1c19.4-16.9,30.5-41.3,30.5-66.9l0-0.3l92.6,0
			v0.3c0,52.5-22.7,102.3-62.3,136.8L386.8,385.3z M326.5,315.5l60.2,69.3c39.4-34.3,62-84,62-136.3l-91.8,0
			C357,274.2,345.9,298.6,326.5,315.5z M280.3,160.5l13-91.6l0.2,0c17.2,2.4,33.8,7.3,49.6,14.5l0.2,0.1l-0.1,0.2l-38.3,84l-0.2-0.1
			c-7.7-3.5-15.8-5.9-24.1-7.1L280.3,160.5z M293.6,69.3l-12.8,90.8c8.3,1.2,16.3,3.5,23.9,7l38.1-83.4
			C327.1,76.6,310.6,71.8,293.6,69.3z"/>
		<path class="st3" d="M104.5,411.7C104.5,411.7,104.5,411.7,104.5,411.7C75,382.2,54,345.4,43.8,305.2l1.6-0.4
			c10.1,39.9,31,76.5,60.3,105.8c28.6,28.6,64.3,49.2,103.3,59.6l-0.4,1.6C169.3,461.3,133.4,440.6,104.5,411.7z M276.1,479.4
			l-0.1-1.7c33.8-1.1,67.5-9.9,97.5-25.4l0.8,1.5C344.1,469.4,310.1,478.3,276.1,479.4z M37,237.6c1.5-34.1,10.8-67.9,26.7-97.8
			l1.5,0.8c-15.8,29.7-25,63.3-26.5,97.1L37,237.6z M429.3,414.1l-1.2-1.2c0.8-0.7,1.5-1.5,2.2-2.2c57.8-57.8,80.5-142.8,59.3-221.9
			l1.6-0.4c10.3,38.6,10.6,79.4,0.6,118c-10.2,39.8-31.1,76.3-60.3,105.5C430.8,412.7,430,413.4,429.3,414.1z M104,85.1l0.4-0.4
			c29.6-29.6,66.6-50.6,107-60.7c39.3-9.8,80.6-9.2,119.5,1.8l-0.5,1.6c-80-22.7-166.2-0.3-224.9,58.4l-0.4,0.4L104,85.1z
			 M462.7,127c-9.2-14.7-20.2-28.5-32.5-40.9c0,0,0,0,0,0c-11.6-11.6-24.5-22-38.2-30.9l0.9-1.4c13.8,8.9,26.8,19.4,38.5,31.1
			c0,0,0,0,0,0c12.5,12.5,23.5,26.3,32.8,41.2L462.7,127z"/>
		<g>
			<path class="st3" d="M241.1,277.3C241.1,277.3,241.1,277.3,241.1,277.3c-4.9-4.9-8.4-10.9-10.2-17.5c-1.8-6.4-1.9-13.2-0.4-19.6
				l1.8,0.4c-3,12.9,0.8,26.1,10.1,35.4c0,0,0,0,0,0c4.7,4.7,10.6,8.1,17.1,9.8l-0.5,1.8C252.2,285.9,246.1,282.3,241.1,277.3z
				 M265,288.8l0.2-1.8c3.9,0.4,7.8,0.2,11.6-0.5l0.4,1.8C273.2,289,269.1,289.2,265,288.8z M280.7,287.3l-0.5-1.8
				c5.9-1.8,11.4-5.1,15.8-9.5c9.5-9.5,13.3-23.6,9.8-36.7l1.8-0.5c1.8,6.6,1.8,13.6,0.1,20.3c-1.8,6.8-5.3,13.1-10.4,18.1
				C292.7,282,287,285.4,280.7,287.3z M231.5,236.7c1.3-3.9,3.2-7.5,5.6-10.8l1.5,1.1c-2.3,3.2-4.1,6.6-5.3,10.3L231.5,236.7z
				 M303.9,233.9c-1.6-3.6-3.7-6.9-6.3-9.8l1.4-1.2c2.7,3.1,4.9,6.5,6.6,10.3L303.9,233.9z"/>
			<path class="st3" d="M243.8,274.7c-5.8-5.8-9.4-13.2-10.3-21.4l1.2-0.1c0.9,7.9,4.4,15,10,20.6c4.3,4.3,9.8,7.5,15.6,9L260,284
				C253.8,282.4,248.2,279.2,243.8,274.7z M265.2,285l0.1-1.2c7,0.8,14-0.5,20.1-3.8l0.6,1.1C279.7,284.5,272.5,285.8,265.2,285z
				 M290.6,278.2l-0.7-1c1.4-1,2.7-2.2,3.9-3.4c8.8-8.8,12.2-21.6,9-33.6l1.2-0.3c3.3,12.4-0.2,25.7-9.3,34.8
				C293.4,276,292.1,277.2,290.6,278.2z"/>
			<path class="st3" d="M333.2,276.1c1.2-2.9,2.2-5.9,3-8.9l3.3,0.9c-0.8,3.2-1.9,6.3-3.2,9.3L333.2,276.1z M336.9,264.6
				c0.7-3,1.2-6.2,1.4-9.3l3.4,0.3c-0.3,3.3-0.8,6.5-1.5,9.7L336.9,264.6z M338.5,252.6c0.1-3.1,0.1-6.3-0.2-9.4l3.4-0.3
				c0.3,3.3,0.4,6.6,0.2,9.9L338.5,252.6z M338,240.5c-0.4-3.1-1-6.2-1.8-9.2l3.3-0.9c0.8,3.2,1.5,6.4,1.9,9.7L338,240.5z
				 M335.5,228.7c-0.9-3-2.1-5.9-3.4-8.8l3.1-1.4c1.4,3,2.6,6.1,3.6,9.2L335.5,228.7z M330.9,217.5c-1.4-2.8-3.1-5.5-4.9-8.1
				l2.8-1.9c1.9,2.7,3.6,5.5,5.1,8.4L330.9,217.5z M309,192.4l1.9-2.8c2.7,1.9,5.3,4,7.7,6.2l-2.3,2.5
				C314,196.2,311.5,194.2,309,192.4z M324.4,207.3c-1.9-2.5-4-4.8-6.2-7.1l0,0l2.4-2.4l0,0c2.3,2.3,4.5,4.8,6.5,7.4L324.4,207.3z"
				/>
			<path class="st3" d="M328.2,286c1.6-2.7,3.1-5.5,4.3-8.4l3.1,1.3c-1.3,3-2.8,6-4.5,8.8L328.2,286z"/>
			<path class="st3" d="M298.1,315.2l-0.1,0.1c-36.4,15.8-78.9-1-94.7-37.4c-4.9-11.3-6.9-23.7-5.7-35.8l-2.2-0.2
				c-1.2,12.5,0.8,25.3,5.8,36.9c7.9,18.2,22.4,32.2,40.9,39.5c18.5,7.3,38.6,6.9,56.8-1l0.2-0.1L298.1,315.2z"/>
			<path class="st3" d="M291.1,180.7c0,0,0.4-1.6,0.6-2.2c-4.2-1.4-8.6-2.3-13.1-2.9c-13.2-1.7-26.7,0.2-39,5.5
				c-11.8,5.1-22.1,13.3-29.8,23.6c-7.4,10-12.3,21.8-14,34.1l2.2,0.3c3.5-25,19.4-45.9,42.6-55.9
				C256.7,176.1,274.7,175.5,291.1,180.7z"/>
			<path class="st3" d="M213.8,237.6c0.5-2.2,1.1-4.5,1.8-6.6l8.8,3c-0.6,1.8-1.1,3.7-1.5,5.5L213.8,237.6z M305.3,218.6
				c-0.8-1-1.7-1.9-2.6-2.8l-0.1-0.1l6.5-6.6l0.1,0.1c1.1,1.1,2.1,2.2,3.1,3.4L305.3,218.6z"/>
			<path class="st3" d="M229.9,310.7l1.8-2.9c32.3,20.7,75.4,11.3,96.1-21l0-0.1l2.9,1.8l0,0.1c-10.5,16.4-26.8,27.7-45.8,31.9
				C265.8,324.7,246.3,321.2,229.9,310.7z M207.6,209.9l0.1-0.1c10.5-16.4,26.8-27.7,45.9-31.9c19-4.1,38.6-0.6,55,9.9l-1.8,2.9
				c-32.3-20.7-75.5-11.3-96.2,20.9l-0.1,0.1L207.6,209.9z"/>
			<path class="st3" d="M238.3,218.5l-1-1l0.1-0.1c7.9-7.9,18.5-12.6,29.7-13.1l0.1,1.4C256.3,206.2,246.1,210.7,238.3,218.5
				L238.3,218.5z M311.6,259.2c2.5-10.6,0.9-21.7-4.4-31.2l1.2-0.7c5.5,9.8,7.1,21.2,4.5,32.2L311.6,259.2z M275.2,206.1l0.2-1.4
				c9.8,1.4,18.6,5.8,25.6,12.8c1,1,1.9,2,2.8,3l-1.1,0.9c-0.8-1-1.8-2-2.7-3C293.2,211.7,284.6,207.4,275.2,206.1z"/>
			<path class="st3" d="M295,299.4l-4.2-8.1c0.8-0.4,1.6-0.8,2.3-1.3l4.6,7.8C296.9,298.4,296,298.9,295,299.4z M304.4,293.3
				l-5.7-7.1c1.4-1.1,2.7-2.3,3.9-3.5l0,0l6.4,6.4l0,0C307.6,290.6,306,292,304.4,293.3z M235.7,215.9l-6.4-6.4l0.1-0.1
				c1.5-1.5,3.1-2.9,4.7-4.2l5.7,7.1C238.4,213.3,237,214.5,235.7,215.9L235.7,215.9z M245.3,208.4l-4.6-7.8
				c0.9-0.5,1.9-1.1,2.8-1.5l4.2,8.1C246.8,207.6,246,208,245.3,208.4z"/>
		</g>
		<path class="st3" d="M208.1,309.7L208.1,309.7c-8.1-8.1-14.4-17.6-18.7-28.2c-4.2-10.2-6.3-21-6.3-32.1c0-7.9,1.1-15.7,3.2-23.3
			l0-0.2l15.2,4.3l0,0.2c-1.7,6.2-2.6,12.5-2.6,19c0,18.5,7.2,36,20.4,49.1l0.2,0.2l-11.2,11.2L208.1,309.7z M186.6,226.3
			c-2.1,7.5-3.2,15.2-3.1,23c0,11,2.1,21.8,6.2,31.9c4.3,10.5,10.5,20,18.6,28l10.7-10.7c-13.1-13.2-20.4-30.7-20.4-49.3
			c0-6.4,0.9-12.7,2.6-18.9L186.6,226.3z M228.1,324.6l7.4-14l0.2,0.1c9,4.8,19.1,7.6,29.4,8.1l0.2,0l-0.7,15.8l-0.2,0
			c-12.6-0.6-25-4-36.1-9.9L228.1,324.6z M235.7,311.1l-7.1,13.3c10.9,5.8,23.2,9.2,35.6,9.8l0.7-15.1
			C254.8,318.6,244.7,315.8,235.7,311.1z M289.1,332.1l-3.9-15.4l0.2,0c12.1-3,23.2-9.3,32-18.2c8.6-8.6,14.9-19.4,18-31.1l0-0.2
			l15.3,4.1l0,0.2c-3.8,14.4-11.5,27.7-22.1,38.3c-10.9,10.9-24.5,18.6-39.4,22.4L289.1,332.1z M285.7,317l3.7,14.7
			c14.7-3.7,28.2-11.4,39-22.2c10.5-10.5,18.1-23.6,21.9-37.9l-14.6-3.9c-3.1,11.7-9.4,22.5-18,31.1
			C308.8,307.6,297.8,313.9,285.7,317z M196.5,203.4l0.1-0.2c3.3-5.1,7.1-9.8,11.4-14.2c4.6-4.6,9.7-8.7,15.2-12.1l0.2-0.1l8.4,13.5
			l-0.2,0.1c-4.5,2.8-8.6,6.1-12.4,9.8c-3.5,3.5-6.7,7.4-9.3,11.5l-0.1,0.2L196.5,203.4z M223.3,177.4c-5.4,3.4-10.4,7.4-15,11.9
			c-4.3,4.3-8,8.9-11.3,14l12.7,8.2c2.7-4.1,5.8-8,9.3-11.4c3.7-3.7,7.9-7,12.3-9.8L223.3,177.4z M250.1,182.4l-4.1-15.3l0.2,0
			c7.2-1.9,14.6-2.9,22.1-2.9c11.1,0,21.9,2.1,32.1,6.3c10.6,4.3,20.1,10.6,28.2,18.7c0.3,0.3,0.6,0.6,0.9,0.9l0.1,0.1l-11.4,11
			l-0.1-0.1c-0.2-0.2-0.5-0.5-0.7-0.7c-13.1-13.1-30.6-20.3-49.1-20.4c-6.1,0-12.1,0.8-18,2.3L250.1,182.4z M246.5,167.3l3.9,14.6
			c5.8-1.5,11.9-2.3,17.9-2.3c18.6,0,36.2,7.3,49.3,20.5l0,0c0.2,0.2,0.4,0.4,0.6,0.6l10.8-10.5c-8.3-8.5-18-15-28.8-19.4
			c-10.2-4.1-20.9-6.2-31.9-6.2C260.9,164.5,253.6,165.4,246.5,167.3z M337.7,247.3l0-0.2c-0.3-10.2-3-20.4-7.7-29.5l-0.1-0.2
			l14.1-7.3l0.1,0.2c5.7,11.1,9,23.6,9.4,36.2l0,0.2L337.7,247.3z M330.5,217.6c4.6,9,7.3,19.1,7.6,29.3l15.1-0.5
			c-0.5-12.4-3.7-24.7-9.3-35.7L330.5,217.6z"/>
		<path class="st3" d="M192.7,324.9L192.7,324.9c-13.6-13.6-23.3-30.7-28.1-49.3l0.7-0.2c4.7,18.5,14.3,35.4,27.9,48.9
			c13.2,13.2,29.7,22.8,47.7,27.5l-0.2,0.7C222.7,347.8,206.1,338.2,192.7,324.9z M272,356.2l0-0.8c15.6-0.5,31.2-4.6,45-11.7
			l0.4,0.7C303.5,351.5,287.8,355.6,272,356.2z M161.5,244.3c0.7-15.7,5-31.4,12.3-45.2l0.7,0.4c-7.3,13.7-11.5,29.3-12.2,44.9
			L161.5,244.3z M342.9,326l-0.5-0.5c0.3-0.3,0.7-0.7,1-1c26.7-26.7,37.2-66,27.4-102.6l0.7-0.2c4.8,17.8,4.9,36.7,0.3,54.5
			c-4.7,18.4-14.4,35.3-27.9,48.8C343.5,325.3,343.2,325.6,342.9,326z M192.5,173.9l0.2-0.2c13.7-13.7,30.8-23.4,49.5-28.1
			c18.1-4.5,37.2-4.2,55.2,0.8l-0.2,0.7c-37-10.5-76.8-0.1-104,27l-0.2,0.2L192.5,173.9z M358.3,193.2c-4.3-6.8-9.3-13.2-15-18.9
			c0,0,0,0,0,0c-5.4-5.4-11.3-10.2-17.7-14.3l0.4-0.6c6.4,4.1,12.4,8.9,17.8,14.4c0,0,0,0,0,0c5.8,5.8,10.9,12.2,15.2,19
			L358.3,193.2z"/>
		<path class="st3" d="M276.5,391.7L276.5,391.7c-19.2,1.1-38.1-1.7-56.1-8.1c-17.4-6.2-33.2-15.7-47-28c-9.8-8.8-18.4-18.9-25.5-30
			l-0.2-0.3l22.4-14.2l0.2,0.3c5.7,9,12.7,17.3,20.7,24.4c23.1,20.7,52.9,31.1,83.9,29.4l0.4,0l1.6,26.5L276.5,391.7z M148.6,325.5
			c7,11,15.5,20.9,25.2,29.6c13.8,12.3,29.5,21.7,46.8,27.9c17.9,6.4,36.6,9.1,55.7,8.1l-1.5-25.3c-31.1,1.7-60.9-8.8-84.1-29.6
			c-8-7.1-14.9-15.3-20.7-24.3L148.6,325.5z M317.4,383.4l-9.1-24.9l0.3-0.1c16-5.9,30.8-15.4,42.8-27.6l0.2-0.2l18.9,18.6l-0.2,0.2
			c-14.7,15-32.9,26.7-52.6,33.9L317.4,383.4z M309,358.8l8.7,23.8c19.4-7.1,37.3-18.7,51.9-33.5l-18.1-17.8
			C339.6,343.5,324.9,353,309,358.8z M394.8,315.7l-23.5-12.3l0.1-0.3c9.7-18.5,14.2-39.3,13-60.3c-1.2-20.4-7.7-40.2-18.8-57.2
			l-0.2-0.3l22.2-14.5l0.2,0.3c13.7,20.9,21.7,45.2,23.1,70.3c1.5,25.7-4.1,51.4-16,74.1L394.8,315.7z M372.1,303.2l22.4,11.8
			c11.7-22.6,17.2-48,15.8-73.5c-1.4-24.9-9.3-49-22.9-69.7l-21.2,13.9c11.1,17,17.6,36.8,18.8,57.2
			C386.2,263.8,381.7,284.7,372.1,303.2z M131,287.6l-0.1-0.3c-2.7-9.8-4.4-19.9-4.9-30.1c-0.6-10.9,0-21.8,1.8-32.4l0-0.3L154,229
			l-0.1,0.3c-1.5,8.7-2,17.6-1.5,26.4c0.5,8.3,1.8,16.6,4,24.5l0.1,0.3L131,287.6z M128.4,225.1c-1.8,10.5-2.4,21.3-1.8,32
			c0.6,10,2.2,20,4.8,29.7l24.4-6.7c-2.2-7.9-3.5-16.1-4-24.3c-0.5-8.8,0-17.7,1.5-26.3L128.4,225.1z M164.6,197.2l-23.7-12l0.1-0.3
			c5.6-11.1,12.7-21.5,21-30.8c12.3-13.8,27-24.9,43.5-33c17.1-8.4,35.6-13.2,54.8-14.3c0.7,0,1.4-0.1,2-0.1l0.3,0l1.1,26.5l-0.3,0
			c-0.6,0-1.1,0.1-1.7,0.1c-31,1.7-59.4,15.4-80.1,38.5c-6.8,7.6-12.5,16-17.1,25.1L164.6,197.2z M141.7,184.9l22.6,11.4
			c4.6-9,10.3-17.4,17.1-24.9c20.8-23.2,49.4-37,80.5-38.7c0,0,0,0,0,0c0.5,0,0.9,0,1.4-0.1l-1.1-25.3c-19.8,0.9-38.7,5.7-56.3,14.3
			c-16.5,8.1-31.1,19.1-43.4,32.9C154.3,163.8,147.3,174,141.7,184.9z M343.1,160.4l-0.2-0.2c-13.2-11-28.8-19.1-45.3-23.3l-0.3-0.1
			l6.6-25.7l0.3,0.1c20.3,5.3,39.5,15.2,55.7,28.7l0.2,0.2L343.1,160.4z M298,136.3c16.4,4.3,31.9,12.3,45,23.2l16.2-19.4
			c-16-13.3-34.9-23.1-54.9-28.3L298,136.3z"/>
		<path class="st3" d="M324.7,377.8l-0.1-0.1l-28.8-65.4l0.1-0.1c6-2.6,11.5-6.1,16.5-10.3l0.1-0.1l0.1,0.1l46.1,54.6l-0.1,0.1
			c-10.2,8.6-21.6,15.8-33.9,21.1L324.7,377.8z M296.2,312.4l28.6,65c12.1-5.3,23.4-12.4,33.6-20.9l-45.8-54.2
			C307.6,306.3,302.1,309.8,296.2,312.4z M175.2,354.1l-0.3-0.3c-30.3-27.1-47.4-66-46.8-106.7l0-0.2l0.2,0l71.4,1.1v0.2
			c-0.3,19.9,8,38.9,22.9,52.2l0.3,0.2L175.2,354.1z M128.4,247.3c-0.5,40.5,16.5,79.2,46.7,106.3l0.1,0.1l47.2-53l0,0
			c-14.8-13.3-23.2-32.3-23-52.3L128.4,247.3z M408.5,251.5l-0.2,0l-71.4-1v-0.2c0.3-19.9-8.1-38.9-22.9-52.1l-0.2-0.2l47.7-53.4
			l0.2,0.2c30.3,27.1,47.3,65.9,46.8,106.5L408.5,251.5z M337.2,250.2l71,1c0.5-40.5-16.5-79.1-46.7-106.1L314.2,198
			C329,211.3,337.4,230.3,337.2,250.2z M224,196.9l-46.2-54.8l0.1-0.1c10.2-8.6,21.7-15.7,33.9-21.1l0.1-0.1l0.1,0.1l28.7,65.5
			l-0.1,0.1c-6,2.6-11.5,6.1-16.5,10.3L224,196.9z M178.3,142.1l45.8,54.3c4.9-4.1,10.4-7.6,16.3-10.2l-28.5-65
			C199.7,126.6,188.4,133.6,178.3,142.1z"/>
		<path class="st3" d="M278.4,427.9C278.4,427.9,278.4,427.9,278.4,427.9c-32.2,1.8-64.3-5.1-92.7-20l0.6-1.1
			c28.2,14.8,60.1,21.6,92,19.9c31.3-1.7,61.5-11.7,87.5-28.8l0.7,1.1C340.3,416.1,309.9,426.1,278.4,427.9z M405.7,363.9l-1-0.8
			c16.8-20.1,29.1-44.1,35.5-69.3l1.2,0.3C435,319.5,422.6,343.7,405.7,363.9z M143.1,377c-18.9-18.5-33.6-41.3-42.7-65.9l1.2-0.4
			c9,24.5,23.7,47.1,42.4,65.4L143.1,377z M446.9,241.9l-1.3,0.1c0-0.8-0.1-1.6-0.1-2.4c-3.6-63.1-40.9-120.1-97.4-148.7l0.6-1.1
			c27.6,13.9,51.2,34.9,68.4,60.6c17.7,26.4,28,57.3,29.8,89.2C446.9,240.3,446.9,241.1,446.9,241.9z M89.7,259.6l0-0.4
			c-1.8-32.4,5.1-64.5,20.1-93c14.5-27.7,36.2-51.2,62.6-68l0.7,1.1C118.8,133.7,87.4,195,91,259.2l0,0.4L89.7,259.6z M298.6,74.4
			c-13.2-2.3-26.8-3.1-40.3-2.3c0,0,0,0,0,0c-12.7,0.7-25.3,2.8-37.5,6.1l-0.3-1.2c12.2-3.4,24.9-5.4,37.7-6.2c0,0,0,0,0,0
			c13.6-0.8,27.3,0,40.6,2.3L298.6,74.4z"/>
	</g>
</g>
</svg>
